<?xml version="1.0" encoding="UTF-8"?>
<svg id="Layer_2" data-name="Layer 2" xmlns="http://www.w3.org/2000/svg" viewBox="0 0 584.72 408.61">
  <g id="typography">
    <g>
      <g>
        <path d="M171.29,303.91c5.04-2.04,10.03-4.24,15-6.5-1.41,1-3.49.89-4.79-.25,4.35-2.6,8.87-4.93,13.51-6.98-2.23-.34-4.42-.98-6.48-1.9,2.28-1.96,4.96-3.44,7.83-4.32-1.29.49-2.57.98-3.86,1.48,5-2.1,9.87-4.51,14.57-7.21-7.37-2.03-15.19-.06-22.58,1.91,4.2-3.3,8.4-6.6,12.6-9.9-2.89.57-5.78,1.14-8.67,1.7,2.41-2.07,5.28-3.62,8.34-4.49-4.67.52-9.35,1.04-14.02,1.57-2.47-1.85-5.83-2.46-8.78-1.58,2.82-1.57,5.35-3.66,7.43-6.12-4.67.98-9.34,1.96-14.01,2.94.62-.71,1.25-1.41,1.87-2.12-17.04,4.91-40.05-.57-53.34-12.45-5.07-4.53-10.45-8.83-15.3-13.53-34.83-33.73-45.16-109.01,7.6-127.14,3.19-1.1,10.5-2.7,14-2.26,5.87.73,6.49,7.39,11,9.39.94.42,2.02.35,3.05.23,9.92-1.12,19.22-5.78,27-12.04,10.89-8.75,23.26-21.92,25.37-36.32,1.58-10.78-2.22-29.8-13.31-35.23-27.03-13.21-37.22-14.91-66.55-8.92-14.06,2.87-28,7.32-39.51,15.97C33.23,57.09,10.13,91.23,2.82,129.95c-7.33,38.82-.12,80.48,18.57,115.17,8.72,16.18,20.11,31,34.04,43.04,6.9,5.96,14.41,11.22,22.42,15.59,3.96,2.16,8.03,4.1,12.21,5.81,27.97,11.44,55.09,4.97,81.23-5.64Z"/>
        <path d="M351.25,207.86c1.52-10.29,6.76-19.2,8.76-29.47,2.52-3.67,3.83-10.45,4.97-14.86,1.6-6.22.75-12.95,2.39-19.25,1.69-6.49,4.43-13.1,5.21-19.78,1.19-10.24,3.36-28.09-2.76-37.27-5.1-7.65-15.38-6.46-21.01-12.17-6.08-.1-12.18-.71-17.01-1.53-8.21-1.4-22.02,4.55-28.75,8.92-4.69,3.04-14.12,10.46-14.09,16.28.05,9.96-2.08,20.16-2.18,30.53-.1,10.16.44,20.8-2.33,30.69-1.89,6.76-1.39,15.9-4,21.88-6.97-2.84-14.9-5.9-21.23-10.09-14.2-9.43-23.14-25.08-38.24-33.76-1.49-.86-11.58-4.73-11.6-6.51-.05,1.13-.1,2.27-.15,3.4-2.79-2.29-5.92-4.16-9.26-5.52-.77,2.25-.42,4.85.92,6.81-3.31-1.29-6.34-3.27-8.84-5.79-.74,1.88-3.57,1.08-5.26-.03.08,1.23.15,2.46.23,3.69-4.93-2.96-10.48-4.85-16.19-5.53-.21,3.47.2,6.98,1.22,10.3-2.61-.22-5.26-.58-7.86-.54.59,4.33,2.93,8.57,3.8,13.01-1.78-1-3.57-1.99-5.35-2.99-.5-.28-1.21-.52-1.55-.07-.21.27-.15.66-.07.99.65,2.87,1.68,5.65,3.07,8.25-2.87-1.31-6.23-2.37-9.38-2.27,3.42,14.29,14.11,25.39,23.56,36.01,5.29,5.94,26.76,34.41,34.46,34.41,11.35,10.64,23.96,20.65,34.75,31,1.18,1.1,3.31,1.17,3.29,3.81-7.31,16.09-16.96,30.96-26.74,45.63-4.68,7.02-9.42,14.01-13.97,21.12-2.8,4.38-4.46,9.33-6.99,13.85-2.12,3.79-5.12,6.73-7.51,10.25-6.64,9.8-11.47,21.25-17.57,31.44,1.2-1.37,2.87-2.32,4.66-2.67.05,1.03.1,2.05.16,3.08,1.67-.39,3.34-.79,5-1.18-1.84,5.02-3.88,9.96-6.12,14.81,2.06-2.32,4.57-4.24,7.35-5.62-2.33,5.83-4.67,11.66-7,17.49,4.37-5.36,9.53-10.07,15.28-13.91,1.01,2.25.59,5.07-1.03,6.92,1.48-1.37,3.4-2.23,5.4-2.47-.32,2.54-.37,5.53-.87,8.2,2.84-2.41,6.04-4.4,9.47-5.87-.68.92.41,2.29,1.56,2.32s2.13-.75,3.03-1.46c4.52-3.59,9.52-6.58,14.82-8.87-.24,1.12-.48,2.23-.72,3.35,12.08-5.92,20.92-18.48,30.31-28.02,10.14-10.3,20.12-20.82,28.5-32.64,17.23-24.32,30.71-51.11,42.75-78.31,3.7-8.37,7.27-16.81,10.76-25.27,3.08-7.48,8.83-16.75,10-24.73Z"/>
      </g>
      <path d="M570.95,86.39C554.3,51.32,507.51,7.06,467.51.99c-18.18-2.72-42.34-.42-55.39,14.05-12.31,13.64-12.96,34.27-12.18,51.6.42,9.35,2.5,18.92,1.57,28.28-.72,7.29-1.46,13.84-1.7,21.1-2.55,7.5-.36,18.04-1.4,26.07-.49,3.79.37,7.3.47,11.13.37,15.24-.54,30.44-2.73,45.48-1.02,7.03.95,14.6,1.23,21.62.12,2.82-1.02,9.91-.32,12.1.41,1.28,5.91,8.33,5.9,7.33.07,6.63,2.11,13.23,5.8,18.75,3.21-1.58,5.86-4.27,9.28-5.34,3.42-1.07,8.16.63,8.23,4.21,2.15-1.23,4.3-2.45,6.45-3.68,3.18,4.47,8.56,6.5,13.97,7.92-9.22,5.6-18.75,10.72-27.78,16.61-13.81,9.02-27.57,18.65-40.1,29.4,3.95-.11,7.9-.23,11.85-.34-.14.73-.6,1.39-1.23,1.78,1.33-.38,2.83-.12,3.94.7-2.31,4.47-5.3,8.58-8.83,12.17,2.33.41,4.71.56,7.08.44-2.64,3.12-5.8,5.8-9.32,7.88,6.16.46,12.33.76,18.51.88-.58,1.28-1.49,2.42-2.6,3.28,10.75.32,21.52.17,32.26-.46l-.95,2.22c7.62-.96,16.62-.8,23.95-3.05,6.22-1.91,12.72-5.55,18.64-8.38,13.9-6.64,27.18-14.65,39.26-24.25,26.19-20.82,45.52-48.58,58.71-79.16,18.05-41.82,20.61-93.35.86-134.95ZM479.86,234.96c-5.27,6.02-11.12,11.16-17.43,16.04-1.22.94-2.46,1.85-3.7,2.74,2.28-26.44,6.57-52.4,7.27-79.09.38-14.18,1.81-28.37,4.77-42.25,1.79-8.37,1.3-17.08,3.31-25.39.69-2.85,2.42-5.23,2.77-8.19.01-.11,9,3.92,9.83,4.55,42.75,32.97,23.83,96.56-6.83,131.6Z"/>
    </g>
  </g>
</svg>