<?xml version="1.0" encoding="UTF-8"?>
<svg id="Layer_2" data-name="Layer 2" xmlns="http://www.w3.org/2000/svg" viewBox="0 0 750 830">
  <defs>
    <style>
      .cls-1 {
        fill: none;
      }

      .cls-2 {
        fill: #5885c4;
      }

      .cls-3 {
        fill: #abc2e1;
      }

      .cls-4 {
        fill: #fff;
      }

      .cls-5 {
        fill: #f8a712;
      }
    </style>
  </defs>
  <g id="kevin">
    <g>
      <rect class="cls-1" width="750" height="830"/>
      <g>
        <g>
          <path class="cls-3" d="M536.28,551.61c-.21,0-.43.02-.63.02-12.79,0-23.11-5.51-30.09-16.14-7.78-11.86-10.85-29.39-10.91-48.52-40.28,13.02-105.21,14-155.42-9.81-5.1-2.42-9.13-2.79-12.32-1.12-10.35,5.39-14.76,31.37-19.43,58.88-6.78,39.96-15.12,89.15-46.82,108.71,15.71,14.97,36.3,26.67,60.15,34.21-15.89-34.76-9.53-73.31,18.94-114.61,1.24-1.8,3.56-2.49,5.59-1.67,2.02.82,3.2,2.95,2.83,5.1-5.75,33.47-5.96,48.22-.8,66.7,8.13-27.7,20.24-41.68,42.36-60.38,1.74-1.47,4.28-1.47,6.02,0,1.73,1.47,2.15,3.99.98,5.94-23.33,38.9-25.44,84.24-21.17,105.22.21,1.01.45,1.98.72,2.93,13.84.39,27.77-.58,41.46-2.94,17.65-3.04,33.36-7.53,47.12-13.4-16.93-45.16-11.26-73.73,8.16-121.71.84-2.08,3.05-3.27,5.25-2.81,2.2.45,3.76,2.41,3.72,4.65-.06,2.9-.12,5.72-.17,8.47-.62,29.12-1.05,49.39,4.54,67.86,4.09-27.23,13.94-42.62,32.5-63.86,1.5-1.71,4.01-2.09,5.95-.9,1.94,1.2,2.72,3.62,1.86,5.73-9.06,22.06-12.04,45-11.77,64.72,1.72-2.35,3.35-4.76,4.86-7.26,11.95-19.75,17.46-44.5,16.53-74Z"/>
          <path class="cls-3" d="M346.53,115c6.91-1.5,13.93-2.22,20.94-2.22,33.76,0,67.1,16.79,85.66,44.75,27.33-27.75,56.97-83.52,76.1-123.19-26.84,18.69-51.29,33.8-85,50.27-1.36.67-2.97.63-4.3-.11-1.33-.73-2.21-2.07-2.38-3.58-1.94-18.24,2.4-43.64,13.66-62.65-26.65,11.76-48.51,30.67-69.38,59.67-.97,1.35-2.6,2.08-4.26,1.91-1.66-.17-3.1-1.22-3.77-2.75-9.99-22.59-25.29-35.3-51.44-42.03,22.85,31.99,26.68,51.83,24.18,79.92Z"/>
        </g>
        <g>
          <path class="cls-4" d="M511.52,223.37c-3.94-2.03-8.47-3.02-13.3-3.02-8.67,0-18.32,3.2-27.33,9.36-7.1,4.85-12.17,10.3-15.61,15.77,1.07,5.49,1.75,11.41,2.05,17.81.45,3.16.51,6.36.18,9.53-.09,14.23-1.8,26.44-5.17,36.77,6.7-.74,13.62-.74,20.63.02,8.98.99,18.4,3.72,27.51,7.83,19.72-6.09,28.86-23.59,28.7-54.63-.45-20.1-6.55-33.74-17.65-39.44ZM496.3,296.09c-3.42,2.92-7.79,3.6-11.11,3.6-.28,0-.55,0-.82-.01-3.57-.12-6.61-.95-9.05-2.47-3.43-2.14-5.67-5.78-6.28-10.24-.71-5.1.89-10.53,4.18-14.15,5.46-6.02,15.08-8.43,24.52-6.13.94.23,1.59,1.08,1.56,2.05s-.73,1.78-1.68,1.95c-4.97.89-9.17,5.07-10.23,9.99,1.45-1.16,3.38-1.68,5.45-1.44,2.78.33,5.25,1.96,6.46,4.27,2.06,3.96.78,9.37-2.99,12.59Z"/>
          <path class="cls-4" d="M448.04,263.94c-.71-16.14-4-28.79-10.03-38.65-9.23-15.08-20.52-23.49-33.56-24.97-.05,0-.1-.01-.15-.02-2.02-.3-4.06-.44-6.13-.44-16.43,0-34.27,9.19-48.85,25.44-18.57,20.7-27.13,54.89-19.92,79.54,3.63,12.42,16.01,33.85,58.06,37.92,2.82.27,5.63.33,8.39.21,3.08-4.92,6.83-9.46,11.23-13.52,9.53-8.8,21.48-14.92,34.68-18.04,4.24-10.32,6.37-23.19,6.45-38.88,0-.16.01-.33.03-.49.28-2.53.23-5.1-.15-7.63-.02-.16-.04-.32-.05-.48ZM403.02,304.2c-5.28,4.52-12.04,5.57-17.17,5.57-.43,0-.86,0-1.26-.02-5.52-.18-10.23-1.47-13.99-3.82-5.3-3.31-8.75-8.93-9.71-15.82-1.1-7.9,1.38-16.28,6.46-21.88,8.45-9.32,23.35-13.04,37.96-9.49,1.41.34,2.38,1.62,2.34,3.07-.04,1.45-1.1,2.66-2.52,2.92-7.85,1.4-14.48,8.08-16.03,15.88,2.26-1.92,5.31-2.78,8.61-2.4,4.28.5,8.09,3.02,9.94,6.57,3.18,6.1,1.2,14.45-4.62,19.42Z"/>
        </g>
        <g>
          <path class="cls-5" d="M420.01,423.94c-3.63-2.82-8.44-6.1-13.4-6.47-2.66-.2-5.57.39-8.66,1.02-4.58.93-9.78,1.98-15.06.42-6.37-1.88-10.76-6.91-14.57-12.06-5.57-7.55-8.22-14.14-8.11-20.14.05-2.75.71-5.35,1.94-7.72,2.88-5.52,8.42-8.58,12.93-10.62,4.07-1.85,8.25-3.39,12.39-4.83.85-3.87,2.03-7.63,3.54-11.24-1.48-.05-2.97-.12-4.46-.27-8.75-.85-16.83-2.52-24.13-4.94-7.15,7.98-11.29,19.04-12.36,33.03-1.28,16.87,5.21,33.35,16.96,43.02,14.72,12.12,34.84,12.23,45.52,11.21,5.95-.57,11.56-1.69,16.82-3.25-2.33-1.58-4.5-3.31-6.63-5.02-.9-.72-1.81-1.45-2.72-2.15Z"/>
          <path class="cls-5" d="M521.35,341.77c-14.26-12.51-32.73-21.07-49.4-22.9-22.54-2.47-43.88,3.88-58.56,17.43-12.41,11.45-18.7,26.67-18.2,44.01v.1c.21,6.67,1.75,11.13,4.7,13.63,5.6,4.75,17.22,3.2,29.52,1.56,6.69-.89,13.99-1.87,21.22-1.87,12.24,0,24.27,2.79,32.79,13.51,5.64,7.1,8.19,16.84,7.01,26.72-.85,7.04-3.43,13.57-7.48,19.12,15.46-.91,29.99-6.72,40.97-16.58,13.26-11.9,20.52-28.75,21.01-48.71.39-16.01-7.98-32.35-23.56-46.02Z"/>
        </g>
        <g>
          <path class="cls-2" d="M249.58,645.7c-.11-.11-.21-.24-.3-.36-7.15-7.27-13.29-15.16-18.25-23.59-1.94-3.3-3.82-6.89-5.55-10.75-6.68,2.35-14.06,4.71-22.2,7.03-13.14,3.74-37.97,8.02-60.61,8.59,14.9,6.01,31.34,8.51,50.45,7.78,2.1-.1,4.03,1.29,4.64,3.32.61,2.04-.24,4.22-2.06,5.32-10.45,6.28-21.18,10.27-32.45,12.02,18.95,7.46,35.31,7.74,53.99,5.52,1.97-.24,3.88.81,4.74,2.6s.5,3.93-.92,5.33c-5.03,4.98-13.55,9.17-23.99,11.99,26.68,9.09,49.37,1.21,58.76-3.12,0,0,0,0,0,0,7.6-3.5,13.62-7.31,18.4-11.19-9.2-6.06-17.49-12.92-24.67-20.5Z"/>
          <path class="cls-2" d="M527.49,334.78c1.95,1.71,3.79,3.46,5.53,5.24.57-3.98.95-8,1.14-12.06-6.62-1.35-13.61-2.57-20.89-3.68,5.01,3.11,9.81,6.62,14.22,10.49Z"/>
          <path class="cls-2" d="M471.73,462.23c-1.91-.16-3.53-1.47-4.08-3.31-.55-1.84.09-3.83,1.61-5,6.67-5.17,10.9-12.65,11.91-21.06.89-7.43-.95-14.65-5.05-19.82-.34-.43-.69-.84-1.05-1.24-1.5,1.83-3.08,3.58-4.75,5.26-.2.2-.39.4-.58.6-.27.27-.56.54-.84.8-7.18,6.95-15.93,12.86-25.74,17.25-.27.12-.56.21-.84.27-9.43,4.13-19.36,6.73-28.9,7.64-3.13.3-6.21.45-9.22.45-17.12,0-32.19-4.76-43.09-13.74-14.04-11.57-21.83-31.08-20.32-50.92,1.12-14.72,5.32-26.74,12.51-35.93-11.17-5.18-20.01-12.44-26.02-21.43-16.98,2.04-32.02,4.67-44.41,7.78.37,13.07,2.12,26.05,6.35,38.38,2.08,6.06,4.81,12.1,7.46,17.95,3.66,8.09,7.45,16.46,9.79,25.37,7.75,29.5-3.32,63.86-15.33,96.53-7.35,20-15.85,33.16-26.76,41.42-9.08,6.88-19.74,10.29-32.31,10.29-1.97,0-3.98-.09-6.04-.26-1.73,20.39,2.61,39.78,13.04,57.52,4.11,6.99,9.13,13.58,14.89,19.74,29.6-16.49,37.76-64.55,44.35-103.41,5.5-32.44,9.85-58.06,24.31-65.58,5.87-3.05,12.8-2.73,20.6.97,30.76,14.58,63.3,17.85,85.17,18.02,24.47.19,48.36-3.33,66.49-9.71.26-5.45.72-10.97,1.37-16.47-5.71,1.27-11.62,1.92-17.62,1.92-2.29,0-4.58-.09-6.89-.29Z"/>
          <path class="cls-2" d="M528.82,226.71c5.23,1.07,10.37,2.19,15.38,3.39-3.2-8.73-7.31-17.79-12.25-26.76l-4.42,2.45c-.71.39-1.49.58-2.25.58-1.35,0-2.68-.59-3.59-1.69l-33.02-40.06c-.89-1.08-1.25-2.51-.97-3.89s1.16-2.55,2.41-3.2l4.66-2.43c-5.22-4.8-10.74-9.22-16.54-13.15-7.64,10.39-15.34,19.46-22.86,26.36-.86.79-1.99,1.23-3.15,1.23-.24,0-.48-.02-.71-.06-1.4-.22-2.62-1.06-3.32-2.29l-.25-.43c-20.38-35.04-65.61-52.73-105.27-41.2-45.77,16.68-81.25,54.15-98.35,97.64,35.34-4.25,69.1-6.96,101.93-8.2,17.85-17.9,39.69-26.79,59.34-23.94,14.34,1.66,27.17,10.21,37.37,24.79,9.9.61,19.55,1.39,28.95,2.34,15.21-8.2,31.53-9.47,43.89-3.12,4.33,2.22,9.04,5.82,13.05,11.62ZM416.43,163.58c-.37,1.33-1.31,2.44-2.57,3.01l-60.26,27.31c-.62.28-1.27.42-1.92.42-1.53,0-3.01-.75-3.89-2.1l-6.09-9.27c-1.38-2.1-.84-4.93,1.22-6.37l53.04-37.08c2.11-1.47,5.01-.96,6.48,1.15l13.31,19.04c.79,1.13,1.04,2.56.67,3.9Z"/>
          <path class="cls-2" d="M568.16,462.05c-2.47-3.73-5.02-7.58-7.35-11.44-15.91-26.34-4.79-46.43,5.98-65.87,9.56-17.26,18.59-33.57,10.5-55.13-6.05-16.14-19.81-29.11-36.12-34.57,3.41,18.21,3.25,36.68-.28,54.17,9.01,12.17,13.66,25.52,13.34,38.82-.55,22.59-8.88,41.74-24.1,55.4-7.01,6.29-15.27,11.13-24.25,14.37-4.35,32.84-1.7,58.61,7.47,72.59,6.17,9.4,15.13,13.2,27.4,11.6,15.68-2.04,29.72-10.19,37.56-21.81,1.51-2.24,2.78-4.5,3.76-6.73,8.07-18.19-2.61-34.32-13.9-51.4Z"/>
          <path class="cls-2" d="M216.15,548.66c5.71,1.2,11.01,1.82,15.94,1.82,23.6,0,38.73-14.12,50.31-45.62,9.04-24.62,22.71-61.82,15.06-90.95-2.14-8.16-5.6-15.8-9.27-23.9-2.73-6.04-5.56-12.29-7.78-18.77-10.04-29.26-7.17-60.97-3.92-89.5-17.85,1.36-34.96,11.4-44.61,26.52-12.39,19.42-6.94,37.24-1.17,56.11,6.49,21.24,13.21,43.21-7.82,65.67-6.33,6.76-13.67,12.82-20.77,18.68-14.87,12.28-28.92,23.89-31.84,40.03-1.39,7.7-.22,16.03,3.56,25.46,6.81,16.95,23.41,30.47,42.3,34.45Z"/>
        </g>
        <g>
          <path d="M370.59,305.93c3.76,2.35,8.47,3.63,13.99,3.82.41.01.83.02,1.26.02,5.14,0,11.89-1.05,17.17-5.57,5.81-4.97,7.8-13.32,4.62-19.42-1.85-3.55-5.66-6.07-9.94-6.57-3.29-.38-6.35.48-8.61,2.4,1.54-7.8,8.18-14.48,16.03-15.88,1.42-.25,2.48-1.47,2.52-2.92.04-1.45-.93-2.73-2.34-3.07-14.61-3.55-29.51.17-37.96,9.49-5.08,5.6-7.56,13.99-6.46,21.88.96,6.89,4.4,12.51,9.71,15.82Z"/>
          <path d="M575.92,456.91c-2.41-3.65-4.91-7.42-7.15-11.12-13.13-21.73-4.19-37.86,6.15-56.54,9.69-17.49,20.67-37.32,11.07-62.91-3.76-10.02-10.08-19-18.05-26.15,2.97-26.08-1.17-51.65-4.8-62.92-.48-1.48-1.67-2.63-3.17-3.05-1.64-.46-3.32-.9-4.98-1.35-4.13-12.68-9.88-25.46-16.83-37.6-.06-.15-.11-.31-.18-.46l-23.37-44.81c-1.19-2.28-4-3.16-6.28-1.97l-4.83,2.52c-6.39-6.09-13.04-11.51-19.88-16.17,24.49-35.33,47.75-82.24,61.62-112.13.89-1.92.37-4.2-1.25-5.54-1.63-1.35-3.96-1.43-5.68-.2-30.81,22.1-56.19,38.75-91.89,56.63-.27-20.66,7.15-47.44,21.71-61.71,1.54-1.51,1.84-3.89.72-5.73s-3.36-2.68-5.42-2.02c-33.64,10.91-59.98,30.35-84.57,62.62-12.95-24.11-33.38-37.11-66.83-42.93-1.89-.33-3.79.54-4.78,2.18-.99,1.65-.87,3.73.3,5.25,28.51,36.87,32.75,54.69,29.34,87-48.62,18.65-85.89,59.64-102.93,106.69-.23.03-.45.06-.68.08-1.29.17-2.45.86-3.2,1.92-4.3,6.06-7.79,14.98-10.18,25.45-22.54-17.46-54.03-27.63-71.12-27.29-1.43.03-2.77.71-3.62,1.86-.86,1.14-1.14,2.62-.78,4,5.24,19.59,21.2,33.39,34.53,43.21,6.1,4.5,12.53,9.14,19.16,13.49-16.57,5.35-31.12,17.79-38.08,33.6-.54,1.24-.53,2.65.05,3.87s1.66,2.13,2.96,2.49c7.37,2.05,16.89,4.24,26.92,4.24,6.68,0,13.59-.97,20.23-3.6,1.85-.73,3.74-1.72,5.6-2.92-2.25,14.99,2.08,29.17,6.05,42.17,6.24,20.42,11.63,38.06-5.72,56.59-5.92,6.33-13.03,12.19-19.9,17.87-15.51,12.81-31.55,26.06-35.07,45.56-1.71,9.48-.37,19.48,4.08,30.58,8.06,20.06,26.84,35.42,49.02,40.09.84.18,1.67.34,2.5.49-1.49,16.88,1,31.63,5.32,44.07-6.39,2.24-13.47,4.52-21.31,6.75-14.42,4.1-52.07,10.53-77.85,7.53-2.14-.26-4.18,1.01-4.92,3.05-.73,2.03.03,4.3,1.85,5.48,16,10.38,33.24,16.29,53.18,18.1-8.93,2.82-18.19,3.95-27.96,3.44-2.17-.13-4.11,1.27-4.71,3.34-.6,2.07.3,4.29,2.18,5.35,18.44,10.42,34.45,15.29,53.72,15.69-4.65,1.35-9.79,2.42-15.14,3.09-2,.25-3.62,1.77-3.99,3.75-.38,1.98.57,3.99,2.35,4.95,15.38,8.38,30.07,11.16,42.81,11.16,17.02,0,30.54-4.96,37.52-8.18,9.67-4.46,17.13-9.41,22.88-14.48,12.74,7.3,26.98,13.19,42.37,17.45.77.21,1.54.41,2.3.62,9.39,13.88,23.45,25.67,39.98,33.23,12.32,5.64,25.09,8.5,37.17,8.5,8.42,0,16.5-1.39,23.84-4.2,2.06-.79,3.28-2.91,2.93-5.09-.35-2.18-2.18-3.81-4.38-3.91-13.85-.63-36.03-4.46-46.47-21.4.59,0,1.18.03,1.76.03.83,0,1.66,0,2.49-.01.95-.01,1.86-.07,2.74-.15,10.69-.25,21.38-1.28,31.94-3.1,4.81-.83,9.48-1.76,14.02-2.8,16.83,1.91,32.9,6.83,48.44,11.6,18.79,5.76,36.96,11.33,55.19,11.33,12.88,0,25.79-2.79,38.96-10.25,1.92-1.09,2.81-3.37,2.13-5.47s-2.73-3.43-4.92-3.21c-42.95,4.52-48.6-10.88-51.63-19.15-2.55-6.95-4.78-16.88-5.89-28.65,4.54-5.06,8.58-10.48,12.09-16.28,12.98-21.44,18.9-48.13,17.81-79.79,16.83-3.1,31.79-12.38,40.49-25.27,1.82-2.69,3.35-5.44,4.56-8.16h0c10.13-22.85-2.47-41.89-14.65-60.31ZM483.41,407.24c-8.52-10.72-20.55-13.51-32.79-13.51-7.23,0-14.53.97-21.22,1.87-12.3,1.64-23.92,3.19-29.52-1.56-2.95-2.5-4.49-6.96-4.7-13.63v-.1c-.51-17.34,5.79-32.56,18.2-44.01,14.68-13.55,36.02-19.9,58.56-17.43,16.68,1.83,35.14,10.39,49.4,22.9,15.58,13.67,23.95,30.01,23.56,46.02-.49,19.96-7.75,36.8-21.01,48.71-10.98,9.86-25.51,15.67-40.97,16.58,4.05-5.55,6.64-12.09,7.48-19.12,1.19-9.88-1.36-19.62-7.01-26.72ZM349.31,225.3c14.58-16.25,32.43-25.44,48.85-25.44,2.07,0,4.12.15,6.13.44.05,0,.1.01.15.02,13.04,1.48,24.33,9.88,33.56,24.97,6.03,9.86,9.31,22.51,10.03,38.65,0,.16.02.32.05.48.38,2.53.43,5.1.15,7.63-.02.16-.03.32-.03.49-.08,15.69-2.21,28.56-6.45,38.88-13.2,3.12-25.14,9.24-34.68,18.04-4.4,4.06-8.15,8.6-11.23,13.52-2.77.12-5.57.07-8.39-.21-42.05-4.07-54.43-25.51-58.06-37.92-7.21-24.65,1.35-58.84,19.92-79.54ZM500.47,317.45c-9.11-4.11-18.53-6.84-27.51-7.83-7.01-.77-13.93-.76-20.63-.02,3.37-10.34,5.08-22.54,5.17-36.77.33-3.17.27-6.37-.18-9.53-.29-6.4-.98-12.32-2.05-17.81,3.44-5.48,8.51-10.92,15.61-15.77,9.01-6.15,18.66-9.36,27.33-9.36,4.83,0,9.35.99,13.3,3.02,11.1,5.7,17.2,19.34,17.65,39.44.17,31.04-8.98,48.54-28.7,54.63ZM386.56,352.03c1.49.14,2.98.22,4.46.27-1.51,3.61-2.69,7.37-3.54,11.24-4.14,1.44-8.32,2.98-12.39,4.83-4.51,2.04-10.05,5.1-12.93,10.62-1.23,2.37-1.89,4.97-1.94,7.72-.12,6,2.54,12.59,8.11,20.14,3.8,5.15,8.2,10.18,14.57,12.06,5.28,1.56,10.48.5,15.06-.42,3.08-.63,6-1.22,8.66-1.02,4.96.37,9.77,3.65,13.4,6.47.91.71,1.81,1.43,2.72,2.15,2.13,1.71,4.3,3.44,6.63,5.02-5.26,1.56-10.87,2.68-16.82,3.25-10.68,1.01-30.8.91-45.52-11.21-11.74-9.67-18.24-26.16-16.96-43.02,1.07-13.99,5.21-25.05,12.36-33.03,7.3,2.42,15.38,4.09,24.13,4.94ZM527.49,334.78c-4.41-3.87-9.2-7.38-14.22-10.49,7.28,1.1,14.27,2.33,20.89,3.68-.2,4.05-.58,8.08-1.14,12.06-1.75-1.78-3.59-3.54-5.53-5.24ZM322.35,35.08c26.16,6.74,41.45,19.45,51.44,42.03.67,1.53,2.12,2.57,3.77,2.75,1.66.17,3.28-.56,4.26-1.91,20.88-29,42.73-47.91,69.38-59.67-11.25,19-15.6,44.4-13.66,62.65.16,1.51,1.05,2.85,2.38,3.58,1.33.74,2.93.78,4.3.11,33.71-16.47,58.16-31.57,85-50.27-19.12,39.66-48.76,95.44-76.1,123.19-18.56-27.96-51.91-44.75-85.66-44.75-7,0-14.03.72-20.94,2.22,2.5-28.1-1.33-47.94-24.18-79.92ZM342.65,125.58c39.66-11.54,84.9,6.16,105.27,41.2l.25.43c.7,1.23,1.93,2.07,3.32,2.29.24.04.48.06.71.06,1.16,0,2.28-.43,3.15-1.23,7.52-6.9,15.22-15.97,22.86-26.36,5.79,3.93,11.32,8.35,16.54,13.15l-4.66,2.43c-1.24.65-2.13,1.82-2.41,3.2s.08,2.8.97,3.89l33.02,40.06c.91,1.1,2.24,1.69,3.59,1.69.77,0,1.54-.19,2.25-.58l4.42-2.45c4.94,8.98,9.05,18.03,12.25,26.76-5.01-1.2-10.14-2.33-15.38-3.39-4.01-5.8-8.72-9.39-13.05-11.62-12.36-6.35-28.68-5.08-43.89,3.12-9.39-.95-19.05-1.73-28.95-2.34-10.2-14.59-23.03-23.14-37.37-24.79-19.65-2.86-41.5,6.04-59.34,23.94-32.83,1.24-66.59,3.95-101.93,8.2,17.11-43.49,52.58-80.95,98.35-97.64ZM216.15,548.66c-18.89-3.98-35.5-17.5-42.3-34.45-3.79-9.43-4.95-17.75-3.56-25.46,2.92-16.15,16.96-27.75,31.84-40.03,7.1-5.86,14.44-11.92,20.77-18.68,21.03-22.46,14.32-44.43,7.82-65.67-5.77-18.87-11.22-36.69,1.17-56.11,9.65-15.12,26.75-25.16,44.61-26.52-3.25,28.53-6.12,60.24,3.92,89.5,2.22,6.47,5.05,12.72,7.78,18.77,3.66,8.1,7.12,15.75,9.27,23.9,7.65,29.13-6.02,66.34-15.06,90.95-11.57,31.5-26.7,45.62-50.31,45.62-4.93,0-10.23-.62-15.94-1.82ZM232.07,559.77c12.56,0,23.23-3.41,32.31-10.29,10.91-8.26,19.41-21.42,26.76-41.42,12-32.67,23.07-67.04,15.33-96.53-2.34-8.91-6.13-17.28-9.79-25.37-2.65-5.85-5.38-11.9-7.46-17.95-4.23-12.33-5.98-25.31-6.35-38.38,12.39-3.11,27.43-5.75,44.41-7.78,6.02,9,14.85,16.25,26.02,21.43-7.19,9.19-11.39,21.21-12.51,35.93-1.51,19.84,6.27,39.35,20.32,50.92,10.91,8.98,25.97,13.74,43.09,13.74,3.01,0,6.09-.15,9.22-.45,9.54-.91,19.47-3.51,28.9-7.64.29-.07.57-.15.84-.27,9.81-4.39,18.56-10.29,25.74-17.25.28-.27.56-.53.84-.8.2-.2.39-.4.58-.6,1.67-1.68,3.25-3.44,4.75-5.26.36.4.71.81,1.05,1.24,4.1,5.16,5.94,12.38,5.05,19.82-1.01,8.41-5.24,15.89-11.91,21.06-1.52,1.18-2.16,3.16-1.61,5,.55,1.84,2.16,3.16,4.08,3.31,2.3.19,4.6.29,6.89.29,5.99,0,11.91-.66,17.62-1.92-.64,5.5-1.11,11.02-1.37,16.47-18.13,6.38-42.02,9.9-66.49,9.71-21.88-.17-54.41-3.44-85.17-18.02-7.8-3.7-14.74-4.03-20.6-.97-14.46,7.53-18.8,33.15-24.31,65.58-6.59,38.86-14.75,86.92-44.35,103.41-5.76-6.15-10.78-12.74-14.89-19.74-10.43-17.75-14.76-37.13-13.04-57.52,2.06.17,4.08.26,6.04.26ZM255.85,677.38s0,0,0,0c-9.39,4.33-32.09,12.21-58.76,3.12,10.44-2.82,18.96-7.02,23.99-11.99,1.41-1.4,1.78-3.54.92-5.33s-2.77-2.83-4.74-2.6c-18.68,2.23-35.05,1.94-53.99-5.52,11.27-1.75,22-5.74,32.45-12.02,1.82-1.09,2.67-3.28,2.06-5.32-.61-2.04-2.54-3.42-4.64-3.32-19.11.72-35.55-1.77-50.45-7.78,22.63-.57,47.47-4.85,60.61-8.59,8.14-2.32,15.52-4.68,22.2-7.03,1.73,3.86,3.61,7.44,5.55,10.75,4.95,8.43,11.1,16.32,18.25,23.59.1.12.19.24.3.36,7.19,7.58,15.47,14.43,24.67,20.5-4.78,3.88-10.8,7.69-18.4,11.19ZM519.75,625.62c-1.51,2.49-3.14,4.91-4.86,7.26-.27-19.72,2.72-42.66,11.77-64.72.86-2.11.08-4.53-1.86-5.73-1.94-1.2-4.46-.82-5.95.9-18.56,21.24-28.42,36.63-32.5,63.86-5.59-18.47-5.16-38.74-4.54-67.86.06-2.74.12-5.56.17-8.47.04-2.24-1.52-4.2-3.72-4.65-2.2-.45-4.41.73-5.25,2.81-19.42,47.98-25.1,76.55-8.16,121.71-13.76,5.88-29.47,10.36-47.12,13.4-13.7,2.36-27.63,3.33-41.46,2.94-.27-.95-.51-1.92-.72-2.93-4.27-20.98-2.15-66.31,21.17-105.22,1.17-1.95.76-4.46-.98-5.94-1.74-1.48-4.28-1.48-6.02,0-22.11,18.7-34.23,32.67-42.36,60.38-5.16-18.48-4.95-33.23.8-66.7.37-2.15-.81-4.27-2.83-5.1-2.02-.82-4.35-.13-5.59,1.67-28.47,41.3-34.83,79.86-18.94,114.61-23.85-7.54-44.44-19.24-60.15-34.21,31.69-19.56,40.04-68.75,46.82-108.71,4.67-27.51,9.08-53.49,19.43-58.88,3.19-1.66,7.22-1.29,12.32,1.12,50.22,23.81,115.15,22.83,155.42,9.81.06,19.13,3.13,36.66,10.91,48.52,6.98,10.64,17.3,16.14,30.09,16.14.21,0,.42-.02.63-.02.93,29.51-4.58,54.25-16.53,74ZM582.06,513.44c-.99,2.22-2.25,4.49-3.76,6.73-7.84,11.62-21.88,19.77-37.56,21.81-12.27,1.6-21.23-2.2-27.4-11.6-9.17-13.98-11.82-39.75-7.47-72.59,8.98-3.24,17.24-8.07,24.25-14.37,15.21-13.66,23.54-32.82,24.1-55.4.32-13.3-4.33-26.65-13.34-38.82,3.53-17.48,3.69-35.96.28-54.17,16.31,5.46,30.07,18.43,36.12,34.57,8.09,21.56-.94,37.87-10.5,55.13-10.76,19.43-21.89,39.53-5.98,65.87,2.33,3.86,4.88,7.71,7.35,11.44,11.3,17.08,21.97,33.21,13.9,51.4Z"/>
          <path d="M492.83,279.23c-2.07-.24-4,.28-5.45,1.44,1.06-4.91,5.26-9.1,10.23-9.99.95-.17,1.65-.98,1.68-1.95s-.62-1.82-1.56-2.05c-9.44-2.29-19.06.11-24.52,6.13-3.29,3.62-4.89,9.05-4.18,14.15.62,4.46,2.85,8.1,6.28,10.24,2.44,1.52,5.48,2.35,9.05,2.47.26,0,.54.01.82.01,3.32,0,7.69-.68,11.11-3.6,3.77-3.22,5.05-8.64,2.99-12.59-1.2-2.31-3.68-3.94-6.46-4.27Z"/>
          <path d="M351.68,194.32c.65,0,1.3-.13,1.92-.42l60.26-27.31c1.26-.57,2.2-1.67,2.57-3.01.37-1.33.12-2.76-.67-3.9l-13.31-19.04c-1.47-2.11-4.37-2.62-6.48-1.15l-53.04,37.08c-2.06,1.44-2.61,4.27-1.22,6.37l6.09,9.27c.88,1.35,2.37,2.1,3.89,2.1Z"/>
          <path d="M375,747.53c-2.57,0-4.65,2.08-4.65,4.65v62.82c0,2.57,2.08,4.65,4.65,4.65s4.65-2.08,4.65-4.65v-62.82c0-2.57-2.08-4.65-4.65-4.65Z"/>
          <path d="M297.33,710.1c-2.57,0-4.65,2.08-4.65,4.65v62.82c0,2.57,2.08,4.65,4.65,4.65s4.65-2.08,4.65-4.65v-62.82c0-2.57-2.08-4.65-4.65-4.65Z"/>
          <path d="M452.67,710.1c-2.57,0-4.65,2.08-4.65,4.65v62.82c0,2.57,2.08,4.65,4.65,4.65s4.65-2.08,4.65-4.65v-62.82c0-2.57-2.08-4.65-4.65-4.65Z"/>
        </g>
      </g>
    </g>
  </g>
</svg>