<?xml version="1.0" encoding="UTF-8"?>
<svg id="Layer_2" data-name="Layer 2" xmlns="http://www.w3.org/2000/svg" viewBox="0 0 259.57 400.83">
  <defs>
    <style>
      .cls-1 {
        fill: #5885c4;
      }

      .cls-2 {
        fill: #abc2e1;
      }

      .cls-3 {
        fill: #fff;
      }

      .cls-4 {
        fill: #f8a712;
      }
    </style>
  </defs>
  <g id="svg">
    <g>
      <g>
        <g>
          <path d="M132.41,381.37c-24.24-11.23-60.34-5.1-81.99,17.18,4.75-12.66,17.28-22.08,32.97-26.78-19.31.5-29.49.1-58.58,10.58,33.19-19.37,74.28-22.83,107.6-.98Z"/>
          <path d="M50.42,400.83c-.42,0-.84-.12-1.22-.35-.91-.58-1.29-1.72-.91-2.73,3.58-9.54,11.5-17.69,22.41-23.33-12.41.57-23.34,2.24-45.11,10.08-1.11.4-2.34-.11-2.84-1.18s-.1-2.34.92-2.93c17.27-10.08,36.23-15.7,54.83-16.26,19.88-.6,38.96,4.71,55.17,15.34,1,.66,1.32,1.97.74,3.01-.58,1.04-1.87,1.46-2.95.96-24.42-11.32-59.3-3.98-79.4,16.7-.44.46-1.04.69-1.64.69ZM83.39,369.49c1.12,0,2.07.81,2.25,1.92.18,1.13-.5,2.22-1.6,2.54-9.67,2.9-17.74,7.52-23.51,13.31,15.17-10.06,34.27-14.9,51.83-13.38-15.84-5.69-33.09-6.83-50.41-3.41,5.85-.62,11.42-.75,17.96-.9l3.41-.08s.04,0,.06,0Z"/>
        </g>
        <g>
          <path d="M236.39,381.27c-14.06-4.44-16.27-4.85-35.28-5.14,8.69,4.68,15.05,8.8,20.4,19.62-21.14-14.1-28.61-20.36-66.25-16.11,29.03-14.04,59.44-12.45,81.13,1.62Z"/>
          <path d="M221.51,398.03c-.44,0-.88-.13-1.26-.38l-2.56-1.71c-19.03-12.74-26.91-18.01-62.17-14.03-1.11.13-2.14-.57-2.45-1.63-.31-1.07.2-2.2,1.2-2.69,28.93-13.99,60.09-13.34,83.36,1.76.96.62,1.31,1.85.82,2.89-.49,1.03-1.66,1.55-2.75,1.2-11.3-3.57-14.53-4.48-25.95-4.85,5.29,3.61,9.87,8.2,13.8,16.15.46.93.24,2.04-.54,2.72-.43.38-.97.57-1.51.57ZM175.16,376.06c17.7,0,26.7,4.15,38.24,11.58-3.74-4.09-8.06-6.64-13.37-9.5-.93-.5-1.39-1.56-1.13-2.58.26-1.02,1.18-1.74,2.24-1.71,5.54.08,9.66.17,13.09.37-13.77-3.35-28.92-2.72-43.96,1.94,1.71-.07,3.33-.1,4.89-.1Z"/>
        </g>
        <path d="M184.96,380.7c-1.63,0-3.26-.58-4.57-1.75-.45-.41-.93-.83-1.43-1.28-6.67-5.91-16.75-14.85-17.75-26.62-.61-7.14.2-19.32,1.34-26.96.56-3.74,4.04-6.32,7.77-5.76,3.74.56,6.32,4.04,5.76,7.77-1,6.75-1.74,17.91-1.24,23.78.54,6.32,8.16,13.07,13.2,17.54.52.46,1.02.91,1.5,1.33,2.81,2.52,3.04,6.85.52,9.66-1.35,1.5-3.22,2.27-5.09,2.27Z"/>
        <path d="M96.98,377.58c-2.23,0-4.42-1.09-5.74-3.1-2.06-3.16-1.17-7.4,1.98-9.46,2.41-1.77,5.86-14.78,2.34-24.8-1.25-3.56.62-7.47,4.19-8.72,3.56-1.25,7.47.62,8.72,4.19,2.28,6.49,2.87,14.72,1.61,22.58-.81,5.04-3.1,14.11-9.37,18.21-1.15.75-2.45,1.11-3.73,1.11Z"/>
      </g>
      <g>
        <path d="M62.06,103.14c-4.71.83,4.89,51.14,6.26,54.95,1.52,4.23,4.69,14.08,23,11.84,41.32-5.07,23.96-76.19-29.25-66.79Z"/>
        <path d="M86.2,172.54c-15.14,0-18.45-9.25-19.95-13.44l-.08-.24c-.76-2.1-10.58-49.66-6.7-56.36.69-1.19,1.67-1.52,2.19-1.61h0c18-3.18,34.37,2.45,44.9,15.44,9.43,11.64,12.53,27.46,7.72,39.37-3.75,9.29-11.81,15.15-22.69,16.48-1.94.24-3.73.35-5.38.35ZM63.25,105.25c-1.65,6.34,5.49,47.3,7.21,52.07l.09.24c1.51,4.22,4.33,12.08,20.49,10.1,11.74-1.44,16.82-8.22,19.02-13.66,4.21-10.42,1.38-24.4-7.04-34.79-5.49-6.78-17.91-17.51-39.76-13.96Z"/>
      </g>
      <g>
        <path class="cls-1" d="M2.28,217.82c0,15.41,23.1,30.89,32.87,41.39,2.94,3.16,5.7,6.67,6.88,10.83,1.92,6.77-1.12,14.64-7.1,18.36-5.98,3.72-14.38,2.98-19.61-1.74.67,11.15,11.48,19.49,22.49,21.41,14.36,2.51,29.9-3.9,38.31-15.8,9.82-13.9,9.46-32.36,8.17-49.34-1.29-16.97,6.98-67.8.26-61.92C54.42,207.37,2.28,202.1,2.28,217.82Z"/>
        <path d="M44.16,310.9c-2.26,0-4.52-.19-6.75-.58-15.23-2.67-23.79-13.85-24.37-23.52-.06-.92.45-1.79,1.29-2.19.83-.4,1.83-.26,2.52.36,4.49,4.05,11.75,4.69,16.88,1.5,5.13-3.19,7.76-9.99,6.11-15.8-1.1-3.89-3.83-7.18-6.35-9.9-2.39-2.57-5.71-5.54-9.21-8.68C13.46,242.41,0,230.36,0,217.82c0-9.27,12.18-12.11,29.03-16.04,17.2-4.01,38.6-9,54-22.48,1.73-1.51,3.25-1,3.82-.71,3.33,1.68,3.24,8.36,1.13,34.04-.95,11.6-1.94,23.59-1.44,30.13,1.29,16.89,1.79,36.14-8.58,50.82-7.65,10.83-20.65,17.31-33.81,17.31ZM18.68,291.46c3.01,7.68,11.58,12.98,19.51,14.37,13.39,2.34,28.21-3.77,36.05-14.87,9.5-13.44,8.98-31.75,7.76-47.85-.53-6.91.47-19.08,1.44-30.86.83-10.14,1.94-23.55,1.3-28.42-16.17,13.41-37.47,18.37-54.68,22.39-13.69,3.19-25.51,5.95-25.51,11.6,0,10.5,12.61,21.79,22.75,30.87,3.58,3.21,6.97,6.24,9.51,8.97,2.72,2.93,6.03,6.91,7.4,11.76,2.18,7.7-1.3,16.69-8.09,20.92-5.14,3.2-11.89,3.49-17.44,1.12Z"/>
      </g>
      <g>
        <path class="cls-1" d="M145.06,331.89c-2.2,11.56,2.71,22.96,18.17,20.15,6.95-1.26,14.06-3.81,18.6-9.21,7.81-9.29,3.9-25.72-7.25-30.51-15.56-6.68-27.04,6.55-29.52,19.57Z"/>
        <path d="M158.75,354.75c-5.89,0-9.53-2.26-11.66-4.4-4.19-4.22-5.75-11.11-4.27-18.88,1.73-9.13,7.17-17.12,14.18-20.85,5.67-3.01,12.05-3.15,18.48-.39,5.9,2.53,10.4,8.19,12.05,15.14,1.65,6.94.17,14.02-3.96,18.94-4.25,5.06-10.77,8.32-19.94,9.99-1.78.32-3.41.47-4.89.47ZM166.38,312.8c-2.51,0-4.93.61-7.24,1.84-5.73,3.05-10.38,9.99-11.84,17.68h0c-1.18,6.19-.04,11.73,3.03,14.82,2.75,2.77,6.95,3.67,12.5,2.66,8.08-1.47,13.72-4.23,17.26-8.44,3.2-3.81,4.33-9.4,3.01-14.95-1.32-5.55-4.84-10.03-9.41-12-2.5-1.08-4.94-1.61-7.29-1.61ZM145.06,331.89h.01-.01Z"/>
      </g>
      <g>
        <path class="cls-1" d="M92.02,313.62c4.94-8.82,35.75-4.56,36.23,11.48.49,16.36,2.42,29.48-22.66,26.3-18.48-2.35-26.98-13.83-13.57-37.78Z"/>
        <path d="M112.47,354.16c-2.16,0-4.54-.17-7.16-.5-10.24-1.3-17.04-5.15-20.21-11.43-3.68-7.3-2.02-17.3,4.94-29.72,3.28-5.86,13.88-6.75,22.65-4.6,8.44,2.07,17.56,7.66,17.84,17.13.03.91.06,1.81.09,2.69.33,9.38.61,17.49-4.75,22.39-2.98,2.72-7.32,4.04-13.39,4.05ZM104,311.4c-4.81,0-8.79,1.2-9.99,3.33h0c-6.17,11.02-7.8,19.58-4.85,25.44,2.44,4.85,8.07,7.86,16.71,8.96,8.44,1.07,13.97.29,16.91-2.39,3.81-3.48,3.56-10.61,3.27-18.86-.03-.89-.06-1.8-.09-2.72-.21-6.92-7.56-11.17-14.37-12.84-2.58-.63-5.19-.93-7.6-.93ZM92.02,313.62h.01-.01Z"/>
      </g>
      <g>
        <path class="cls-1" d="M179.95,41.98c.48-13.67,7.81-29.94,17.06-37.92-11.01,2.84-20.09,8.87-28.47,18.74,1.66-8.14,5.27-14.82,11.08-20.52-13.14,4.26-20.41,10.47-27.76,20.69-.18-4.68,2.86-11.24,6.73-16.68-26.11,7.61-38.42,32.29-38.42,32.29-39.14,14.22-63.25,58.51-52.84,96.7,5.77,21.16,19.83,33.37,12.97,56.18-7.46,24.83-23.5,47.26-24.33,73.89-1.06,34.17,27.28,65.95,61.04,71.34,8.45,1.35,47.54.98,73.27-27.55,19.31-21.41,14.38-51.55,14.38-78.47,0-12.89,4.6-57.6,15.74-84.15,18.65-44.44-9.36-87.73-40.44-104.53Z"/>
        <path d="M123.88,339.38c-3.17,0-5.66-.19-7.24-.45-17.01-2.72-32.97-11.82-44.94-25.63-12.15-14.01-18.55-31.07-18.02-48.03.54-17.46,7.49-33.23,14.21-48.48,3.72-8.44,7.56-17.16,10.21-25.99,4.38-14.56-.25-24.54-5.61-36.09-2.68-5.78-5.45-11.76-7.38-18.83-10.66-39.08,13.82-84.31,53.52-99.17,3.01-5.51,15.61-25.7,39.3-32.61.93-.27,1.93.08,2.5.87.56.79.56,1.85,0,2.64-1.3,1.83-2.44,3.69-3.38,5.51,5.38-5.44,12.01-9.82,21.85-13.01,1.01-.33,2.11.08,2.65.99.55.91.4,2.07-.35,2.81-3.1,3.04-5.54,6.4-7.36,10.14,6.8-6.07,14.14-10.02,22.59-12.2,1.02-.26,2.1.21,2.59,1.15s.27,2.09-.53,2.78c-8.51,7.35-15.32,22.13-16.2,34.89,34.01,19.16,58.17,63.89,40.19,106.72-10.94,26.05-15.57,70.12-15.57,83.27,0,4.48.14,9.17.28,13.7.71,23.5,1.44,47.8-15.24,66.29-21.84,24.21-52.84,28.72-68.08,28.72ZM122.2,39.58c-.26.52-.71.94-1.27,1.14-38,13.8-61.54,56.83-51.41,93.96,1.83,6.69,4.52,12.5,7.12,18.11,5.51,11.88,10.71,23.1,5.84,39.32-2.73,9.09-6.64,17.95-10.41,26.52-6.54,14.85-13.31,30.21-13.82,46.78-.49,15.81,5.51,31.75,16.91,44.9,11.11,12.82,26.5,21.61,42.22,24.12,8.15,1.3,46.46.62,71.21-26.82,15.46-17.14,14.75-40.5,14.07-63.1-.14-4.57-.28-9.29-.28-13.84,0-13.41,4.74-58.39,15.92-85.04,18.95-45.16-11.64-86.62-39.42-101.64-.76-.41-1.22-1.22-1.19-2.09.38-10.99,5.07-23.66,11.65-32.71-6.96,3.21-13.14,8.13-19.05,15.08-.67.79-1.8,1.03-2.74.57-.94-.46-1.44-1.49-1.24-2.51,1.11-5.44,3.05-10.27,5.88-14.62-8.29,4.12-13.45,9.58-18.49,16.57-.57.79-1.58,1.13-2.51.85-.93-.28-1.58-1.12-1.62-2.1-.13-3.4,1.19-7.8,3.64-12.42-20.67,8.85-30.76,28.48-31,28.95Z"/>
      </g>
      <g>
        <path class="cls-2" d="M190.59,239.93c5.24,7.67,7.92,16.69,9.98,25.75,11.04,48.66-31.44,82.92-83.56,71-33.32-7.62-61.03-37.14-61.04-71.32,0-18.7,11.48-32.6,26.99-41.62,25.25-14.7,30.26,4.76,54.63,2.31,25.31-2.54,36.28-10.6,53,13.88Z"/>
        <path d="M137.5,341.33c-6.83,0-13.88-.8-21-2.42-35.8-8.18-62.81-39.8-62.81-73.54,0-17.56,9.98-33.04,28.12-43.59,15.8-9.2,24.44-5.72,33.58-2.05,6.14,2.47,12.48,5.02,21.98,4.06,4.72-.47,9.02-1.16,12.81-1.76,16.81-2.67,27.92-4.43,42.3,16.62,5.67,8.3,8.4,18.07,10.32,26.53,5.01,22.07-.3,42.28-14.95,56.91-12.57,12.55-30.54,19.24-50.33,19.24ZM100.2,220.47c-4.42,0-9.47,1.38-16.1,5.24-21.38,12.44-25.86,28.43-25.86,39.65,0,31.67,25.49,61.38,59.27,69.1,26.22,6,51.31.16,67.1-15.6,13.5-13.48,18.38-32.19,13.73-52.67-1.83-8.05-4.4-17.31-9.63-24.97-12.75-18.66-21.13-17.33-37.82-14.69-3.86.61-8.22,1.3-13.07,1.79-10.61,1.06-17.79-1.82-24.13-4.37-4.58-1.84-8.66-3.48-13.48-3.48Z"/>
      </g>
      <g>
        <g>
          <path d="M24.47,105.19c2.65,8.29,9.76,14.31,17,19.14,8.43,5.61,19.13,12.43,29.06,14.19,4.49-19.62-31.3-34.34-46.07-33.33Z"/>
          <path d="M70.53,140.79c-.13,0-.27-.01-.4-.04-10.19-1.8-20.79-8.45-29.93-14.54-6.75-4.5-14.89-10.87-17.91-20.34-.21-.67-.11-1.4.29-1.97.39-.58,1.03-.95,1.73-.99,10.53-.73,32.63,6.19,43.3,18.68,4.71,5.51,6.49,11.54,5.15,17.43-.24,1.05-1.18,1.77-2.22,1.77ZM27.86,107.49c3.24,6.56,9.53,11.37,14.88,14.93,8.04,5.35,17.23,11.15,25.89,13.34.19-3.75-1.31-7.52-4.48-11.22-8.33-9.74-25.92-16.29-36.29-17.06Z"/>
        </g>
        <g>
          <path d="M34.18,150.53c7.17,1.63,14.95,2.38,21.65-.64,7.8-3.52,15.89-18.06,2.09-17-10.25.78-20.05,8.07-23.73,17.65Z"/>
          <path d="M45.26,154.24c-4.29,0-8.35-.75-11.59-1.49-.65-.15-1.19-.57-1.51-1.15-.31-.58-.35-1.27-.12-1.89,4-10.4,14.56-18.25,25.69-19.1,7.23-.55,9.19,2.83,9.72,4.89,1.44,5.62-4.68,13.75-10.69,16.46-3.74,1.69-7.71,2.27-11.5,2.27ZM37.43,148.87c7.29,1.35,12.89,1,17.45-1.07,4.67-2.11,8.84-8.46,8.15-11.18-.4-1.58-3.27-1.6-4.95-1.47-8.53.65-16.67,6.16-20.65,13.72Z"/>
        </g>
      </g>
      <g>
        <path d="M224.14,146.92c3.54.41,6.46-39.23,3.74-46.48-25.45-5.89-58.49-6.75-81.58-6.03-28.25.88-56.41,3.81-84.25,8.73-4.71.83,6.56,48.04,8.71,54.09,1.75,4.93,5.71,12.24,6.32,4.74,1.44-17.57,84.7-22.2,147.05-15.04Z"/>
        <path d="M75.75,167.46c-3.09,0-5.57-5.1-7.13-9.47-1.28-3.59-13.01-48.85-9.14-55.51.5-.86,1.28-1.43,2.18-1.58,27.87-4.93,56.32-7.88,84.57-8.76,14.8-.46,52.45-.8,82.16,6.08.74.17,1.35.71,1.62,1.42,2.5,6.67.64,43.11-3.41,48.3-.98,1.25-2.13,1.32-2.72,1.25h0c-65.68-7.54-129.2-1.33-142.11,9.27-1.5,1.23-2.31,2.47-2.41,3.69-.11,1.34-.4,4.91-3.24,5.28-.12.02-.25.02-.37.02ZM63.28,105.24c-1.44,6.43,7.25,44.5,9.64,51.22.65,1.81,1.37,3.37,2,4.53.4-2.2,1.73-4.23,3.95-6.05,16.89-13.86,89.39-16.58,144.45-10.4,2.3-5.35,4.58-33.87,2.74-42.17-28.99-6.46-65.28-6.12-79.69-5.67-27.75.87-55.7,3.74-83.09,8.55ZM224.39,144.66h0s0,0,0,0Z"/>
      </g>
      <g>
        <path class="cls-3" d="M183.51,101.49c6.31-1.93,20.76,5.14,20.76,13.01,0,14.44-4.08,26.09-17.74,28.96-6.41,1.35-11.71,1.93-18.05.27-6.34-1.66-15.22-6.45-15.42-12.99-.19-6.21,15.99-24.83,30.44-29.25Z"/>
        <path d="M176.26,147.03c-2.71,0-5.43-.32-8.35-1.09-5.81-1.52-16.86-6.64-17.12-15.13-.23-7.47,16.68-26.79,32.06-31.5h0c5.01-1.53,12.46,1.25,17.24,4.78,4.17,3.09,6.47,6.78,6.47,10.4,0,18.22-6.39,28.43-19.55,31.2-3.84.81-7.29,1.34-10.74,1.34ZM185.89,103.46c-.66,0-1.24.07-1.71.22h0c-14.1,4.31-28.97,22.49-28.83,27,.14,4.76,7.17,9.14,13.72,10.86,5.81,1.52,10.63,1.04,17-.3,10.86-2.29,15.93-10.78,15.93-26.73,0-2.11-1.68-4.57-4.62-6.74-3.81-2.82-8.48-4.3-11.48-4.3ZM183.51,101.49h.01-.01Z"/>
      </g>
      <g>
        <path d="M182.18,124.04c1.19-1.36,3.7-.8,4.53.81.83,1.61.14,3.69-1.24,4.86-1.38,1.17-3.28,1.54-5.08,1.47-1.35-.05-2.72-.34-3.87-1.06-3.31-2.09-3.39-7.38-.75-10.26,2.64-2.88,7.07-3.54,10.87-2.6-3.01.52-5.52,3.19-5.86,6.22-.08.69.95,1.09,1.4.57Z"/>
        <path d="M180.81,132.18c-.16,0-.31,0-.46,0-1.72-.07-3.19-.48-4.36-1.22-1.65-1.05-2.72-2.81-3.01-4.96-.33-2.47.46-5.08,2.06-6.82,2.65-2.89,7.3-4.03,11.85-2.89.46.11.77.53.76,1.01-.02.47-.36.87-.83.95-2.37.41-4.4,2.39-4.93,4.73.7-.54,1.62-.77,2.6-.65,1.34.17,2.54.96,3.11,2.08.99,1.92.35,4.53-1.48,6.08-1.64,1.38-3.71,1.71-5.31,1.71ZM182.96,117.85c-2.59.09-4.94,1.03-6.45,2.67-1.21,1.32-1.8,3.31-1.55,5.21.21,1.56.95,2.81,2.09,3.54.87.55,2,.86,3.37.91,1.28.04,3.09-.12,4.4-1.23.98-.83,1.62-2.42.99-3.64-.27-.53-.89-.93-1.58-1.01-.26-.03-.9-.06-1.31.41h0c-.5.57-1.34.74-2.08.41-.73-.32-1.14-1.01-1.06-1.75.24-2.16,1.46-4.17,3.18-5.51ZM182.18,124.04h.01-.01Z"/>
      </g>
      <g>
        <path class="cls-1" d="M160.5,118.36c11.19-16.08,33.98-19.53,43.77-3.87-.67-40.59-41.9-18.39-43.77,3.87Z"/>
        <path d="M160.5,120.65c-.26,0-.52-.04-.77-.14-.97-.35-1.59-1.31-1.5-2.34,1.2-14.34,17.24-29.01,31.2-28.54,15.1.51,17.01,17.53,17.13,24.82.02,1.02-.65,1.93-1.63,2.22-.98.29-2.04-.11-2.58-.98-3.54-5.67-9.24-8.88-16.04-9.05-9.02-.21-18.19,4.76-23.93,13.01-.44.63-1.14.98-1.87.98ZM188.78,94.19c-8.26,0-17.82,6.82-22.74,15.02,5.97-4.68,13.2-7.31,20.38-7.11,5.77.14,10.9,2.07,14.96,5.54-1.5-8.52-5.68-13.23-12.11-13.45-.16,0-.33,0-.5,0Z"/>
      </g>
      <g>
        <path class="cls-4" d="M112.53,175.82c-.69,8.41,2.37,17.28,8.85,22.68,6.39,5.32,15.26,6.78,23.54,6.04,16.15-1.44,32.51-12.62,34.73-28.68.56-4.06.16-8.38-1.97-11.88-2.61-4.28-7.38-6.73-12.08-8.48-22.07-8.21-50.66-9.11-53.07,20.32Z"/>
        <path d="M140.93,207c-8.36,0-15.71-2.34-21-6.75-6.75-5.62-10.45-15.05-9.67-24.62.86-10.49,4.93-18.11,12.1-22.68,14.3-9.1,35.56-2.75,44.03.41,4.16,1.55,10.06,4.21,13.23,9.43,2.78,4.57,2.78,9.8,2.28,13.38-2.48,17.99-20.81,29.21-36.79,30.64-1.42.13-2.82.19-4.2.19ZM140.95,152.86c-6.44,0-11.99,1.31-16.14,3.95-5.9,3.75-9.27,10.21-10,19.2-.66,8.11,2.42,16.06,8.04,20.75,7.05,5.87,16.73,5.98,21.87,5.52,19.06-1.7,31.06-15.04,32.67-26.72.39-2.85.42-6.96-1.66-10.38-1.88-3.09-5.26-5.41-10.93-7.53-8.56-3.19-16.75-4.79-23.85-4.79ZM112.53,175.82h.01-.01Z"/>
      </g>
      <g>
        <path class="cls-3" d="M102.48,125.25c-.68,14.33,7.43,27.24,30.82,29.63,8.28.85,17.07-1.69,22.9-7.63,7.11-7.23,8.92-18.11,9.03-28.25.09-8.28-.83-16.89-5.11-23.98-19.78-32.74-56.28,1.58-57.65,30.22Z"/>
        <path d="M136.47,157.33c-1.13,0-2.27-.06-3.41-.17-30.88-3.17-33.27-23.44-32.86-32.01.92-19.29,16.98-40.72,33.7-44.95,11.14-2.82,21.15,2.03,28.17,13.66,5.02,8.31,5.51,18.35,5.43,25.18-.14,13.59-3.31,23.34-9.68,29.83-5.33,5.42-13.13,8.47-21.36,8.47ZM139.97,83.97c-1.61,0-3.26.21-4.95.64-15.01,3.8-29.43,23.22-30.27,40.75h0c-.74,15.6,9.48,25.28,28.77,27.26,8.08.83,15.95-1.77,21.05-6.96,5.5-5.6,8.24-14.33,8.38-26.68.07-6.27-.36-15.45-4.78-22.77-4.88-8.08-11.1-12.24-18.2-12.24ZM102.48,125.25h.01-.01Z"/>
      </g>
      <g>
        <path class="cls-1" d="M102.48,125.25c6.97-43.56,65.8-32.57,62.75-6.25.09-8.28-.83-16.89-5.11-23.98-19.78-32.74-61.02.98-57.65,30.22Z"/>
        <path d="M102.48,127.53s-.03,0-.05,0c-1.14-.02-2.08-.89-2.22-2.02-2.04-17.7,11.72-38.54,29.44-44.6,12.97-4.43,24.78.29,32.42,12.93,4.09,6.78,5.17,14.69,5.39,21.09.18,1.45.19,2.9.03,4.33-.14,1.21-1.2,2.09-2.41,2.01-1.21-.08-2.15-1.09-2.14-2.3.01-1.14,0-2.37-.03-3.68-1.05-7.44-8.24-14.92-21.75-16.78-15.63-2.16-32.96,5.38-36.44,27.09-.18,1.11-1.13,1.92-2.25,1.92ZM138.96,83.85c-2.51,0-5.13.46-7.83,1.38-8.56,2.92-17.2,10.54-22.21,19.97,8.35-9.6,21.04-12.84,32.88-11.2,8.51,1.17,14.88,4.36,19.17,8.5-.68-2.17-1.59-4.3-2.79-6.29-4.91-8.13-11.57-12.35-19.21-12.35Z"/>
      </g>
      <g>
        <path d="M135.07,124.19c1.85-2.11,5.75-1.24,7.03,1.25,1.28,2.49.22,5.74-1.92,7.54s-5.09,2.38-7.89,2.28c-2.1-.08-4.23-.53-6-1.65-5.13-3.24-5.27-11.46-1.16-15.93,4.1-4.47,10.98-5.5,16.87-4.04-4.68.81-8.57,4.94-9.1,9.66-.12,1.06,1.47,1.69,2.17.89Z"/>
        <path d="M132.94,136.78c-.25,0-.48,0-.71-.01-2.66-.1-4.93-.74-6.74-1.88-2.55-1.61-4.2-4.34-4.65-7.67-.51-3.81.71-7.86,3.18-10.55,4.1-4.47,11.3-6.23,18.34-4.48.69.17,1.16.8,1.14,1.51-.03.71-.54,1.3-1.24,1.42-3.75.65-6.94,3.81-7.73,7.52,1.09-.89,2.55-1.29,4.12-1.09,2.07.25,3.9,1.48,4.79,3.21,1.52,2.96.54,6.99-2.28,9.38-2.53,2.14-5.74,2.64-8.2,2.64ZM136.45,114.52c-4.1.1-7.83,1.57-10.22,4.17-1.88,2.05-2.81,5.17-2.42,8.12.32,2.43,1.49,4.4,3.27,5.53,1.36.86,3.13,1.34,5.26,1.42,2,.08,4.82-.19,6.86-1.92,1.54-1.3,2.54-3.79,1.55-5.71-.43-.84-1.41-1.47-2.49-1.6-.41-.05-1.43-.09-2.08.65t0,0c-.76.87-2.04,1.12-3.17.62-1.11-.49-1.74-1.54-1.62-2.66.38-3.4,2.32-6.54,5.04-8.62ZM135.07,124.19h.01-.01ZM133.95,123.2s0,0,0,0c0,0,0,0,0,0Z"/>
      </g>
      <g>
        <path class="cls-1" d="M239.28,307.21c7.23-.21,14.44-4.86,18.01-11.69-8.34,1.7-19.31-.98-20.95-10.09-1.37-7.63,4.86-13.98,8.83-20.42,10.37-16.81,4.78-46.89-15.85-61.82-50.7-36.68-73.98,106.45,9.95,104.01Z"/>
        <path d="M237.12,309.52c-33.69,0-46.7-22.78-51.49-36.57-9.26-26.66-2.71-60.95,14.01-73.38,9.08-6.75,20.1-6.12,31.02,1.78,22.35,16.17,27.12,47.58,16.45,64.86-.89,1.44-1.88,2.87-2.84,4.25-3.39,4.89-6.6,9.5-5.69,14.57.45,2.51,1.8,4.55,4.02,6.05,3.52,2.39,9.1,3.25,14.23,2.21.86-.17,1.75.16,2.28.86.53.7.61,1.65.2,2.43-3.92,7.49-11.94,12.68-19.97,12.92h0c-.75.02-1.49.03-2.22.03ZM239.28,307.21h.01-.01ZM213.21,199.48c-3.84,0-7.48,1.25-10.84,3.74-15.02,11.17-20.95,43.69-12.43,68.23,4.48,12.9,16.84,34.42,49.27,33.47h0c4.97-.14,9.95-2.69,13.43-6.65-4.7.02-9.25-1.17-12.59-3.43-3.23-2.19-5.28-5.3-5.95-9.02-1.25-6.92,2.83-12.79,6.43-17.97.97-1.4,1.89-2.71,2.71-4.04,11.47-18.59,1.23-46.86-15.24-58.77-5.12-3.7-10.1-5.56-14.79-5.56Z"/>
      </g>
      <g>
        <path class="cls-4" d="M134.91,173.35c.62,24.14,33.07-1.14,46.24,15.62,5.31,6.75,4.09,18.33-4.11,24.62,19.83,1.76,39.67-11.06,40.42-35.95.59-19.71-21.74-36.39-39.82-38.47-22.97-2.65-43.25,11.69-42.73,34.13,0,.02,0,.04,0,.05Z"/>
        <path d="M180.65,216.03c-1.26,0-2.53-.06-3.81-.17-.94-.08-1.73-.73-1.99-1.64-.26-.9.06-1.87.8-2.45,3.51-2.69,5.74-6.59,6.3-10.99.49-3.89-.45-7.68-2.59-10.41-5.34-6.79-14.68-5.6-23.72-4.45-7.45.95-14.5,1.85-18.97-1.99-2.59-2.22-3.91-5.67-4.04-10.53h0s0-.03,0-.04c-.24-10.28,3.71-19.65,11.11-26.41,8.67-7.91,21.12-11.58,34.16-10.07,9.57,1.11,20.1,6.04,28.16,13.19,9.11,8.08,13.97,17.89,13.67,27.62-.35,11.69-4.72,21.58-12.63,28.6-7.07,6.28-16.55,9.73-26.46,9.73ZM166.03,180.48c6.39,0,12.51,1.47,16.92,7.09,2.89,3.67,4.17,8.7,3.53,13.79-.47,3.73-1.88,7.17-4.09,10.07,8.17-.37,15.87-3.37,21.69-8.54,6.95-6.17,10.78-14.93,11.1-25.33.44-14.64-15.98-33.62-37.8-36.14-11.73-1.35-22.87,1.89-30.57,8.91-6.51,5.94-9.83,13.86-9.62,22.9l-2.28.11,2.28-.06c.09,3.5.89,5.86,2.45,7.19,2.94,2.52,9.01,1.75,15.43.93,3.57-.46,7.31-.93,10.96-.93Z"/>
      </g>
    </g>
  </g>
</svg>