<?xml version="1.0" encoding="UTF-8"?>
<svg id="Layer_2" data-name="Layer 2" xmlns="http://www.w3.org/2000/svg" viewBox="0 0 555.21 579.13">
  <defs>
    <style>
      .cls-1 {
        fill: #5885c4;
      }

      .cls-2 {
        fill: #abc2e1;
      }

      .cls-3 {
        fill: #fff;
      }

      .cls-4 {
        fill: #f8a712;
      }
    </style>
  </defs>
  <g id="svg">
    <g>
      <g>
        <path class="cls-1" d="M299.57,404.38c12.52-10.37,21.06-24.04,20.65-38.77-.04-1.58-.2-3.21-.88-4.34-1.29-2.14-3.91-1.86-6.2-1.49-17.7,2.84-35.19,2.25-51.73-1.73-12.21-2.94-25.61-13.94-39.49-8.12-6.82,2.86-11.67,13.09-12.56,22.23-6.24,64.14,56.44,60.21,90.21,32.23Z"/>
        <path d="M249.04,425.88c-8.17,0-15.78-1.61-22.1-4.96-10.68-5.67-22.79-18.77-19.85-48.99.92-9.46,6.01-20.77,13.95-24.11,10.51-4.41,20.71-.02,29.71,3.86,3.93,1.69,7.63,3.29,11.19,4.15,16.3,3.93,33.4,4.5,50.83,1.7,2.06-.33,6.36-1.02,8.52,2.57.98,1.62,1.16,3.67,1.21,5.46.4,14.37-7.23,28.79-21.48,40.59h0c-15.35,12.72-34.9,19.74-51.99,19.74ZM230.33,350.54c-2.51,0-5.02.44-7.52,1.48-5.46,2.29-10.27,11.04-11.17,20.34-2.13,21.93,3.9,37.33,17.45,44.52,18,9.56,47.68,3.43,69.04-14.26,13.15-10.89,20.19-24.01,19.83-36.95-.02-.66-.07-2.41-.56-3.23-.42-.7-1.44-.81-3.89-.42-18.03,2.9-35.73,2.3-52.62-1.77-3.94-.95-7.82-2.62-11.93-4.39-6.11-2.63-12.37-5.33-18.62-5.33ZM299.57,404.38h.01-.01Z"/>
      </g>
      <g>
        <g>
          <path d="M161.54,559.67c-24.24-11.23-60.34-5.1-81.99,17.18,4.75-12.66,17.28-22.08,32.97-26.78-19.31.5-29.49.1-58.58,10.58,33.19-19.37,74.28-22.83,107.6-.98Z"/>
          <path d="M79.55,579.13c-.42,0-.84-.12-1.22-.35-.91-.58-1.29-1.72-.91-2.73,3.58-9.54,11.5-17.69,22.41-23.33-12.41.57-23.34,2.24-45.11,10.08-1.11.4-2.34-.11-2.84-1.18-.5-1.07-.1-2.34.92-2.93,17.27-10.08,36.23-15.7,54.83-16.26,19.88-.6,38.96,4.71,55.17,15.34,1,.66,1.32,1.97.74,3.01-.58,1.04-1.87,1.46-2.95.96-24.42-11.32-59.3-3.98-79.4,16.7-.44.46-1.04.69-1.64.69ZM112.52,547.79c1.12,0,2.07.81,2.25,1.92.18,1.13-.5,2.22-1.6,2.54-9.67,2.9-17.74,7.52-23.51,13.31,15.17-10.06,34.27-14.9,51.83-13.38-15.84-5.69-33.09-6.83-50.41-3.41,5.85-.62,11.42-.75,17.96-.9l3.41-.08s.04,0,.06,0Z"/>
        </g>
        <g>
          <path d="M265.52,559.57c-14.06-4.44-16.27-4.85-35.28-5.14,8.69,4.68,15.05,8.8,20.4,19.62-21.14-14.1-28.61-20.36-66.25-16.11,29.03-14.04,59.44-12.45,81.13,1.62Z"/>
          <path d="M250.64,576.34c-.44,0-.88-.13-1.26-.38l-2.56-1.71c-19.03-12.74-26.91-18.01-62.17-14.03-1.1.12-2.14-.56-2.45-1.63-.31-1.07.2-2.2,1.2-2.69,28.93-13.99,60.09-13.34,83.36,1.76.96.62,1.31,1.85.82,2.89-.49,1.03-1.66,1.55-2.75,1.2-11.3-3.57-14.53-4.48-25.95-4.85,5.29,3.61,9.87,8.2,13.8,16.15.46.93.24,2.04-.54,2.72-.43.38-.97.57-1.51.57ZM204.29,554.37c17.7,0,26.7,4.15,38.24,11.58-3.74-4.09-8.06-6.64-13.37-9.5-.93-.5-1.39-1.56-1.13-2.58.26-1.02,1.19-1.73,2.24-1.71,5.54.08,9.66.17,13.09.37-13.77-3.35-28.92-2.72-43.96,1.94,1.7-.07,3.33-.1,4.89-.1Z"/>
        </g>
        <path d="M214.09,559c-1.63,0-3.26-.58-4.57-1.75-.45-.41-.93-.83-1.43-1.28-6.67-5.91-16.75-14.85-17.75-26.62-.61-7.14.2-19.32,1.34-26.96.56-3.74,4.04-6.32,7.77-5.76,3.74.56,6.32,4.04,5.76,7.77-1,6.75-1.74,17.91-1.24,23.78.54,6.32,8.16,13.07,13.2,17.54.52.46,1.02.91,1.5,1.33,2.81,2.52,3.04,6.85.52,9.66-1.35,1.5-3.22,2.27-5.09,2.27Z"/>
        <path d="M126.11,555.89c-2.23,0-4.42-1.09-5.74-3.1-2.06-3.16-1.18-7.4,1.98-9.46,2.41-1.77,5.86-14.78,2.34-24.8-1.25-3.56.62-7.47,4.19-8.72,3.56-1.25,7.47.62,8.72,4.19,2.28,6.49,2.87,14.72,1.61,22.58-.81,5.04-3.1,14.11-9.37,18.21-1.15.75-2.45,1.11-3.73,1.11Z"/>
      </g>
      <g>
        <path d="M91.19,281.44c-4.71.83,4.89,51.14,6.26,54.95,1.52,4.23,4.69,14.08,23,11.84,41.32-5.07,23.96-76.19-29.25-66.79Z"/>
        <path d="M115.34,350.84c-15.14,0-18.45-9.25-19.95-13.44l-.08-.24c-.76-2.1-10.58-49.66-6.7-56.36.69-1.19,1.67-1.52,2.19-1.61h0c18-3.18,34.37,2.45,44.9,15.44,9.43,11.64,12.53,27.46,7.72,39.37-3.75,9.29-11.81,15.15-22.69,16.48-1.94.24-3.73.35-5.38.35ZM92.38,283.55c-1.65,6.34,5.49,47.3,7.21,52.07l.09.24c1.51,4.22,4.33,12.08,20.49,10.1,11.74-1.44,16.82-8.22,19.02-13.66,4.21-10.42,1.38-24.4-7.04-34.79-5.49-6.78-17.91-17.51-39.76-13.96Z"/>
      </g>
      <g>
        <path class="cls-1" d="M174.19,510.19c-2.2,11.56,2.71,22.96,18.17,20.15,6.95-1.26,14.06-3.81,18.6-9.21,7.81-9.29,3.9-25.72-7.25-30.51-15.56-6.68-27.04,6.55-29.52,19.57Z"/>
        <path d="M187.88,533.05c-5.89,0-9.53-2.26-11.66-4.4-4.19-4.22-5.75-11.11-4.27-18.88,1.73-9.13,7.17-17.12,14.18-20.85,5.67-3.01,12.05-3.15,18.48-.39,5.9,2.53,10.4,8.19,12.05,15.14,1.65,6.94.17,14.02-3.96,18.94-4.25,5.06-10.77,8.32-19.94,9.99-1.78.32-3.41.47-4.89.47ZM195.52,491.1c-2.51,0-4.93.61-7.24,1.84-5.74,3.05-10.38,9.99-11.84,17.68h0c-1.18,6.19-.04,11.73,3.03,14.82,2.75,2.77,6.95,3.67,12.5,2.66,8.08-1.47,13.72-4.23,17.26-8.44,3.2-3.81,4.33-9.4,3.01-14.95-1.32-5.55-4.84-10.03-9.41-12-2.5-1.08-4.94-1.61-7.29-1.61ZM174.19,510.19h.01-.01Z"/>
      </g>
      <g>
        <path class="cls-1" d="M121.15,491.92c4.94-8.82,35.75-4.56,36.23,11.48.49,16.36,2.42,29.48-22.66,26.3-18.48-2.35-26.98-13.83-13.57-37.78Z"/>
        <path d="M141.6,532.46c-2.16,0-4.54-.17-7.16-.5-10.24-1.3-17.04-5.15-20.21-11.43-3.68-7.3-2.02-17.3,4.94-29.72h0c3.28-5.86,13.88-6.75,22.65-4.6,8.44,2.07,17.56,7.66,17.84,17.13.03.91.06,1.81.09,2.7.33,9.38.61,17.49-4.75,22.39-2.98,2.72-7.32,4.04-13.39,4.05ZM133.13,489.7c-4.81,0-8.79,1.2-9.99,3.33h0c-6.17,11.02-7.8,19.58-4.85,25.44,2.44,4.85,8.07,7.86,16.71,8.96,8.44,1.07,13.97.29,16.91-2.39,3.81-3.48,3.56-10.61,3.27-18.86-.03-.89-.06-1.8-.09-2.72-.21-6.92-7.56-11.17-14.37-12.84-2.58-.63-5.19-.93-7.6-.93ZM121.15,491.92h.01-.01Z"/>
      </g>
      <g>
        <path class="cls-1" d="M209.08,220.28c.48-13.67,7.81-29.94,17.06-37.92-11.01,2.84-20.09,8.87-28.47,18.74,1.66-8.14,5.27-14.82,11.08-20.52-13.14,4.26-20.41,10.47-27.76,20.69-.18-4.68,2.86-11.24,6.73-16.68-26.11,7.61-38.42,32.29-38.42,32.29-39.14,14.22-63.25,58.51-52.84,96.7,5.77,21.16,19.83,33.37,12.97,56.18-7.46,24.83-23.5,47.26-24.33,73.89-1.06,34.17,27.28,65.95,61.04,71.34,8.45,1.35,47.54.98,73.27-27.55,19.31-21.41,14.38-51.55,14.38-78.47,0-12.89,4.6-57.6,15.74-84.15,18.65-44.44-9.36-87.73-40.44-104.53Z"/>
        <path d="M153.02,517.68c-3.17,0-5.66-.19-7.24-.45-17.01-2.72-32.97-11.82-44.94-25.63-12.15-14.01-18.55-31.07-18.02-48.03.54-17.46,7.49-33.23,14.21-48.48,3.72-8.44,7.56-17.16,10.21-25.99,4.38-14.56-.25-24.54-5.61-36.09-2.68-5.78-5.45-11.76-7.38-18.83-10.66-39.08,13.82-84.31,53.52-99.17,3-5.53,15.52-25.68,39.3-32.61.93-.27,1.93.08,2.5.87.56.79.56,1.85,0,2.64-1.3,1.83-2.44,3.69-3.38,5.51,5.38-5.44,12.01-9.82,21.85-13.01,1.01-.33,2.11.08,2.65.99.55.91.4,2.07-.35,2.81-3.1,3.04-5.54,6.4-7.36,10.14,6.8-6.07,14.14-10.02,22.59-12.2,1.03-.26,2.1.21,2.59,1.15s.27,2.09-.53,2.78c-8.51,7.35-15.32,22.13-16.2,34.89,34.01,19.16,58.17,63.89,40.19,106.72-10.94,26.05-15.57,70.12-15.57,83.27,0,4.48.14,9.17.28,13.7.71,23.5,1.44,47.8-15.24,66.29-21.84,24.21-52.84,28.72-68.08,28.72ZM151.33,217.88c-.26.52-.71.94-1.27,1.14-38,13.8-61.54,56.83-51.41,93.96,1.83,6.69,4.52,12.5,7.12,18.11,5.51,11.88,10.71,23.1,5.84,39.32-2.73,9.09-6.64,17.95-10.41,26.52-6.54,14.85-13.31,30.21-13.82,46.78-.49,15.81,5.51,31.75,16.91,44.9,11.11,12.82,26.5,21.61,42.22,24.12,8.15,1.3,46.46.62,71.21-26.82,15.46-17.14,14.75-40.5,14.07-63.1-.14-4.57-.28-9.29-.28-13.84,0-13.41,4.74-58.39,15.92-85.04,18.95-45.16-11.64-86.62-39.42-101.64-.76-.41-1.22-1.22-1.19-2.09.38-10.99,5.07-23.66,11.65-32.71-6.96,3.21-13.14,8.13-19.05,15.08-.67.79-1.8,1.03-2.74.57-.94-.46-1.44-1.49-1.24-2.51,1.11-5.44,3.05-10.27,5.88-14.62-8.29,4.12-13.46,9.58-18.49,16.57-.57.79-1.58,1.13-2.51.85-.93-.28-1.58-1.12-1.62-2.1-.13-3.4,1.19-7.8,3.64-12.42-20.68,8.85-30.77,28.48-31,28.95Z"/>
      </g>
      <g>
        <g>
          <path class="cls-1" d="M120.42,367.36c-14.63-2.66-25.27-9.98-29.52-21.37-14.64-39.31-13.13-77.4-9.9-83.21,3.78-6.79,11.47-10.66,15.43-17.35,5.25-8.87,2.25-21.11-5.34-28.08-1.07-.99-2.22-1.87-3.42-2.67.81-1.86,1.48-3.77,1.99-5.73.62-2.36,1.02-4.82.71-7.24-.74-5.74-5.98-10.55-11.76-10.82-5.78-.26-11.43,4.06-12.7,9.7-.27-5.08-4.77-9.43-9.82-10.04-5.05-.6-10.2,2.24-12.86,6.58s-2.95,9.9-1.31,14.71c-3.22-5.35-9.49-6.69-14.74-2.62-9.05,7.02-3.48,17.83,1.86,26.28,18.99,30.08,14.83,75.62-26.76,104.54,8.1,8.09,21.19,10.71,31.77,6.35-2.82,13.75-9.35,26.72-18.72,37.17,7.63,5.77,18.64,6.66,27.1,2.21-2.31,17.47,2.92,35.8,14.11,49.41,11.18,13.61,28.15,22.31,45.73,23.43"/>
          <path d="M102.28,460.9s-.1,0-.15,0c-18.12-1.16-35.82-10.23-47.35-24.26-10.69-13.02-16.17-30.42-15-47.24-8.58,2.95-18.53,1.5-25.82-4.01-.51-.38-.83-.97-.89-1.6-.06-.64.15-1.27.57-1.74,8.26-9.21,14.19-20.28,17.28-32.22-10.57,2.67-22.5-.42-30.25-8.16-.48-.48-.72-1.14-.66-1.81.06-.67.42-1.28.97-1.67,41.14-28.61,44.29-72.69,26.13-101.45-3.85-6.09-12.85-20.36-1.33-29.3,3.03-2.35,6.56-3.3,9.94-2.67,1.01.19,1.98.51,2.9.96,0-3.51.91-6.92,2.66-9.78,3.23-5.27,9.29-8.34,15.07-7.65,4.13.49,7.79,2.96,9.91,6.31,2.89-3.79,7.59-6.21,12.44-5.99,6.91.31,13.03,5.94,13.92,12.8.31,2.37.06,4.95-.76,8.11-.38,1.45-.85,2.91-1.4,4.34.77.58,1.5,1.18,2.17,1.8,8.74,8.03,11.26,21.62,5.76,30.92-2.11,3.57-5.11,6.32-8.02,8.99-2.89,2.66-5.63,5.16-7.38,8.31-2.4,4.31-4.99,40.93,10.05,81.31,3.83,10.29,13.7,17.36,27.79,19.93,1.24.23,2.06,1.41,1.84,2.65-.23,1.24-1.41,2.06-2.65,1.84-15.74-2.86-26.83-10.97-31.25-22.82-14.24-38.26-13.77-77.9-9.76-85.11,2.11-3.79,5.25-6.67,8.28-9.45,2.78-2.55,5.41-4.97,7.18-7.95,4.45-7.52,2.29-18.61-4.92-25.24-.93-.85-1.99-1.68-3.14-2.44-.92-.61-1.27-1.8-.83-2.81.77-1.77,1.4-3.58,1.88-5.4.67-2.58.88-4.6.65-6.37-.6-4.66-4.91-8.62-9.6-8.83-4.69-.2-9.34,3.34-10.37,7.92-.25,1.11-1.28,1.87-2.42,1.77-1.14-.1-2.03-1.02-2.09-2.15-.2-3.86-3.71-7.4-7.81-7.89-3.98-.48-8.36,1.79-10.64,5.51-2.2,3.58-2.6,8.36-1.09,12.78.38,1.1-.14,2.31-1.2,2.8-1.06.49-2.32.11-2.92-.89-1.23-2.05-3.04-3.4-5.08-3.78-2.08-.39-4.32.25-6.31,1.79-5.86,4.55-5.17,11.29,2.39,23.26,9.99,15.82,13.5,35.64,9.64,54.38-4.15,20.17-16.12,37.94-34.69,51.58,7.5,6.02,18.33,7.72,27.26,4.04.78-.32,1.67-.19,2.32.35.65.54.95,1.39.78,2.21-2.74,13.36-8.78,25.84-17.54,36.26,6.75,3.96,15.71,4.29,22.62.65.75-.4,1.67-.34,2.37.15.7.49,1.07,1.32.96,2.17-2.22,16.77,2.87,34.59,13.61,47.67,10.74,13.07,27.23,21.53,44.12,22.61,1.26.08,2.21,1.16,2.13,2.42-.08,1.21-1.08,2.13-2.27,2.13Z"/>
        </g>
        <g>
          <path class="cls-1" d="M64.1,252.77c-3.76-2.6-6.02-7.22-5.76-11.78.26-4.56,3.03-8.9,7.06-11.06-5.67-1.83-13.24-.89-16.21-6.06-1.89-3.3-.57-7.75,2.22-10.34,2.79-2.59,6.67-3.66,10.44-4.12,7.77-.94,18.73,1.93,25.82,5.26"/>
          <path d="M64.09,255.05c-.45,0-.9-.13-1.29-.4-4.4-3.04-7.05-8.45-6.75-13.79.2-3.59,1.74-7.06,4.15-9.72-.26-.04-.53-.08-.8-.12-4.51-.7-9.61-1.49-12.2-6.01-2.28-3.97-1.14-9.62,2.64-13.14,2.73-2.54,6.57-4.09,11.72-4.71,8.45-1.03,19.95,2.11,27.06,5.46,1.14.54,1.63,1.9,1.09,3.03-.54,1.14-1.9,1.63-3.03,1.09-6.75-3.18-17.36-5.94-24.57-5.06-4.16.51-7.16,1.66-9.16,3.52-1.96,1.83-3.17,5.14-1.8,7.54,1.5,2.62,4.95,3.15,8.95,3.77,1.99.31,4.05.63,5.98,1.25.87.28,1.49,1.06,1.57,1.97s-.39,1.78-1.2,2.21c-3.34,1.79-5.64,5.39-5.86,9.18-.21,3.79,1.66,7.62,4.78,9.78,1.04.72,1.3,2.14.58,3.17-.44.64-1.15.98-1.88.98Z"/>
        </g>
      </g>
      <g>
        <g>
          <path d="M53.6,283.49c2.65,8.29,9.76,14.31,17,19.14,8.43,5.61,19.13,12.43,29.06,14.19,4.49-19.62-31.3-34.34-46.07-33.33Z"/>
          <path d="M99.66,319.1c-.13,0-.27-.01-.4-.04-10.19-1.8-20.79-8.45-29.93-14.54-6.75-4.5-14.89-10.87-17.91-20.34-.21-.67-.11-1.4.29-1.97.39-.58,1.03-.95,1.73-.99,10.53-.72,32.63,6.19,43.3,18.68,4.71,5.51,6.49,11.54,5.15,17.43-.24,1.05-1.18,1.77-2.22,1.77ZM56.99,285.8c3.24,6.56,9.53,11.37,14.88,14.93,8.04,5.35,17.23,11.15,25.89,13.34.19-3.75-1.31-7.52-4.48-11.22-8.33-9.74-25.92-16.29-36.29-17.06Z"/>
        </g>
        <g>
          <path d="M63.31,328.83c7.17,1.63,14.95,2.38,21.65-.64,7.8-3.52,15.89-18.06,2.09-17-10.25.78-20.05,8.07-23.73,17.65Z"/>
          <path d="M74.39,332.54c-4.29,0-8.35-.75-11.59-1.49-.64-.15-1.19-.57-1.51-1.15-.31-.58-.35-1.27-.12-1.89,4-10.4,14.56-18.25,25.69-19.1,7.23-.55,9.19,2.83,9.72,4.89,1.44,5.62-4.68,13.75-10.69,16.46-3.74,1.69-7.71,2.27-11.5,2.27ZM66.56,327.18c7.29,1.34,12.89,1,17.46-1.07,4.67-2.11,8.84-8.46,8.15-11.18-.4-1.58-3.27-1.6-4.95-1.47-8.53.65-16.67,6.15-20.65,13.72Z"/>
        </g>
      </g>
      <g>
        <path d="M253.27,325.23c3.54.41,6.46-39.23,3.74-46.48-25.45-5.89-58.49-6.75-81.58-6.03-28.25.88-56.41,3.81-84.25,8.73-4.71.83,6.56,48.04,8.71,54.09,1.75,4.93,5.71,12.24,6.32,4.74,1.44-17.57,84.7-22.2,147.05-15.04Z"/>
        <path d="M104.88,345.76c-3.09,0-5.57-5.1-7.13-9.47-1.28-3.59-13.01-48.85-9.14-55.51.5-.86,1.28-1.43,2.18-1.58,27.87-4.93,56.32-7.88,84.57-8.76,14.8-.46,52.45-.8,82.16,6.08.74.17,1.35.71,1.62,1.42,2.5,6.67.64,43.11-3.41,48.3-.98,1.25-2.13,1.32-2.72,1.25h0c-65.68-7.54-129.2-1.33-142.11,9.27-1.5,1.23-2.31,2.47-2.41,3.69-.11,1.34-.4,4.91-3.24,5.28-.12.02-.25.02-.37.02ZM92.41,283.54c-1.44,6.43,7.25,44.5,9.64,51.22.65,1.81,1.37,3.37,2,4.53.4-2.2,1.73-4.23,3.95-6.05,16.89-13.86,89.39-16.58,144.45-10.4,2.3-5.35,4.58-33.87,2.74-42.17-28.99-6.46-65.28-6.12-79.69-5.67-27.75.87-55.7,3.74-83.09,8.55ZM253.52,322.96h0s0,0,0,0Z"/>
      </g>
      <g>
        <path class="cls-3" d="M212.65,279.8c6.31-1.93,20.76,5.14,20.76,13.01,0,14.44-4.08,26.09-17.74,28.96-6.41,1.35-11.71,1.93-18.05.27-6.34-1.66-15.22-6.45-15.42-12.99-.19-6.21,15.99-24.83,30.44-29.25Z"/>
        <path d="M205.39,325.33c-2.71,0-5.43-.32-8.35-1.09-5.81-1.52-16.86-6.64-17.12-15.13-.23-7.47,16.68-26.79,32.06-31.5,5.01-1.53,12.46,1.25,17.24,4.78,4.17,3.09,6.47,6.78,6.47,10.4,0,18.22-6.39,28.43-19.55,31.2-3.84.81-7.29,1.34-10.74,1.34ZM215.02,281.76c-.66,0-1.24.07-1.71.22h0c-14.1,4.31-28.97,22.49-28.83,27,.14,4.76,7.17,9.14,13.72,10.86,5.81,1.52,10.63,1.04,17-.3,10.86-2.29,15.93-10.78,15.93-26.73,0-2.11-1.68-4.57-4.62-6.74-3.81-2.82-8.48-4.3-11.48-4.3ZM212.65,279.8h.01-.01Z"/>
      </g>
      <g>
        <path d="M211.31,302.35c1.19-1.36,3.7-.8,4.53.81.83,1.61.14,3.69-1.24,4.86s-3.28,1.54-5.08,1.47c-1.35-.05-2.72-.34-3.87-1.06-3.31-2.09-3.39-7.38-.75-10.26,2.64-2.88,7.07-3.54,10.87-2.6-3.01.52-5.52,3.19-5.86,6.22-.08.69.95,1.09,1.4.57Z"/>
        <path d="M209.94,310.49c-.16,0-.31,0-.46,0-1.72-.07-3.19-.48-4.36-1.22-1.65-1.04-2.72-2.81-3.01-4.96-.33-2.47.46-5.08,2.06-6.82,2.65-2.89,7.3-4.03,11.85-2.89.46.11.77.53.76,1.01-.02.47-.36.87-.83.95-2.37.41-4.4,2.39-4.93,4.73.7-.54,1.62-.77,2.6-.65,1.34.17,2.54.96,3.11,2.08.99,1.92.35,4.53-1.48,6.08-1.64,1.38-3.71,1.71-5.31,1.71ZM212.09,296.15c-2.59.09-4.94,1.03-6.45,2.67-1.21,1.32-1.8,3.31-1.55,5.21.21,1.56.95,2.81,2.09,3.54.87.55,2,.86,3.37.91,1.28.04,3.09-.12,4.4-1.23.98-.83,1.62-2.42.99-3.64-.27-.53-.89-.93-1.58-1.01-.26-.03-.9-.06-1.31.41h0c-.5.57-1.34.74-2.08.41-.73-.32-1.14-1.01-1.06-1.75.24-2.16,1.46-4.17,3.18-5.51ZM211.31,302.35h.01-.01Z"/>
      </g>
      <g>
        <path class="cls-1" d="M189.63,296.67c11.19-16.08,33.98-19.53,43.77-3.87-.67-40.59-41.9-18.39-43.77,3.87Z"/>
        <path d="M189.63,298.95c-.26,0-.52-.04-.77-.14-.97-.35-1.59-1.31-1.5-2.34,1.2-14.34,17.25-28.99,31.2-28.54,15.1.51,17.01,17.53,17.13,24.82.02,1.02-.65,1.93-1.63,2.22-.98.29-2.04-.11-2.58-.98-3.54-5.67-9.24-8.88-16.04-9.05-9.02-.2-18.19,4.76-23.93,13.01-.44.63-1.14.98-1.87.98ZM217.91,272.49c-8.26,0-17.82,6.82-22.74,15.02,5.97-4.68,13.2-7.3,20.38-7.11,5.77.14,10.9,2.07,14.96,5.54-1.5-8.52-5.68-13.23-12.11-13.45-.16,0-.33,0-.5,0Z"/>
      </g>
      <g>
        <path class="cls-4" d="M141.66,354.13c-.69,8.41,2.37,17.28,8.85,22.68,6.39,5.32,15.26,6.78,23.54,6.04,16.15-1.44,32.51-12.62,34.73-28.68.56-4.06.16-8.38-1.97-11.88-2.61-4.28-7.38-6.73-12.08-8.48-22.07-8.21-50.66-9.11-53.07,20.32Z"/>
        <path d="M170.06,385.31c-8.36,0-15.71-2.34-21-6.75-6.75-5.62-10.45-15.05-9.67-24.62.86-10.49,4.93-18.11,12.1-22.68,14.3-9.1,35.56-2.75,44.03.41,4.16,1.55,10.06,4.21,13.23,9.43,2.78,4.57,2.78,9.8,2.28,13.38-2.48,17.99-20.81,29.21-36.79,30.64-1.42.13-2.82.19-4.2.19ZM141.66,354.13l2.27.19c-.66,8.11,2.42,16.06,8.04,20.75,7.05,5.87,16.73,5.98,21.87,5.52,19.06-1.7,31.06-15.04,32.67-26.72.39-2.85.42-6.96-1.66-10.38-1.88-3.09-5.26-5.42-10.93-7.53-16.32-6.07-31.27-6.38-39.99-.83-5.9,3.75-9.27,10.21-10,19.2l-2.27-.19Z"/>
      </g>
      <g>
        <path class="cls-3" d="M131.61,303.55c-.68,14.33,7.43,27.24,30.82,29.63,8.28.85,17.07-1.69,22.9-7.63,7.11-7.23,8.92-18.11,9.03-28.25.09-8.28-.83-16.89-5.11-23.98-19.78-32.74-56.28,1.58-57.65,30.22Z"/>
        <path d="M165.6,335.63c-1.13,0-2.27-.06-3.41-.17-30.88-3.17-33.27-23.44-32.86-32.01.92-19.29,16.98-40.72,33.7-44.95,11.14-2.82,21.15,2.03,28.17,13.66,5.02,8.31,5.51,18.35,5.43,25.18-.14,13.59-3.31,23.34-9.68,29.83-5.33,5.42-13.13,8.47-21.36,8.47ZM131.61,303.55l2.28.11c-.74,15.6,9.48,25.28,28.77,27.26,8.08.83,15.95-1.77,21.05-6.96,5.5-5.6,8.24-14.33,8.38-26.68.07-6.27-.36-15.45-4.78-22.77-5.98-9.91-13.99-13.92-23.15-11.6-15.01,3.8-29.43,23.22-30.27,40.75l-2.28-.11Z"/>
      </g>
      <g>
        <path class="cls-1" d="M131.61,303.55c6.97-43.56,65.8-32.57,62.75-6.25.09-8.28-.83-16.89-5.11-23.98-19.78-32.74-61.02.98-57.65,30.22Z"/>
        <path d="M131.61,305.83s-.03,0-.05,0c-1.14-.02-2.08-.89-2.22-2.02-2.04-17.7,11.72-38.54,29.44-44.6,12.97-4.43,24.78.28,32.42,12.93,4.09,6.78,5.17,14.69,5.39,21.09.18,1.45.19,2.9.03,4.33-.14,1.21-1.2,2.08-2.41,2.01-1.21-.08-2.15-1.09-2.14-2.3.01-1.14,0-2.37-.03-3.68-1.05-7.44-8.24-14.92-21.75-16.78-15.63-2.16-32.96,5.38-36.44,27.09-.18,1.11-1.13,1.92-2.25,1.92ZM168.09,262.16c-2.51,0-5.13.46-7.83,1.38-8.56,2.92-17.2,10.54-22.21,19.97,8.35-9.6,21.04-12.84,32.88-11.2,8.51,1.17,14.88,4.36,19.17,8.5-.68-2.17-1.59-4.3-2.79-6.29-4.91-8.13-11.57-12.35-19.21-12.35Z"/>
      </g>
      <g>
        <path d="M164.2,302.5c1.85-2.11,5.75-1.24,7.03,1.25,1.28,2.49.22,5.74-1.92,7.54-2.14,1.81-5.09,2.38-7.89,2.28-2.1-.08-4.23-.53-6-1.65-5.13-3.24-5.27-11.46-1.16-15.93s10.98-5.5,16.87-4.04c-4.68.81-8.57,4.94-9.1,9.66-.12,1.06,1.47,1.69,2.17.89Z"/>
        <path d="M162.08,315.08c-.25,0-.48,0-.71-.01-2.66-.1-4.93-.74-6.74-1.88-2.55-1.61-4.2-4.34-4.65-7.67-.51-3.81.71-7.86,3.18-10.55,4.1-4.47,11.3-6.23,18.34-4.48.69.17,1.16.8,1.14,1.51-.03.71-.54,1.3-1.24,1.42-3.75.65-6.94,3.81-7.73,7.52,1.09-.89,2.55-1.29,4.12-1.09,2.07.25,3.9,1.48,4.79,3.21,1.52,2.96.54,6.99-2.28,9.38-2.53,2.14-5.74,2.64-8.2,2.64ZM165.58,292.83c-4.1.1-7.83,1.57-10.22,4.17-1.88,2.05-2.81,5.17-2.42,8.12.32,2.43,1.49,4.4,3.27,5.53,1.36.86,3.13,1.34,5.26,1.42,2,.08,4.82-.19,6.86-1.92,1.54-1.3,2.54-3.79,1.55-5.71-.43-.84-1.41-1.47-2.49-1.6-.41-.05-1.43-.09-2.08.65,0,0,0,0,0,0-.76.87-2.04,1.12-3.17.62-1.11-.49-1.74-1.54-1.62-2.66.38-3.4,2.32-6.54,5.04-8.62ZM164.2,302.5h.01-.01ZM163.08,301.51s0,0,0,0c0,0,0,0,0,0Z"/>
      </g>
      <g>
        <path class="cls-4" d="M164.39,351.65c.62,24.14,33.07-1.14,46.24,15.62,5.31,6.75,4.09,18.33-4.11,24.62,19.83,1.76,39.67-11.06,40.42-35.95.59-19.71-21.74-36.39-39.82-38.47-22.97-2.65-43.25,11.69-42.73,34.13,0,.02,0,.04,0,.05Z"/>
        <path d="M210.12,394.34c-1.26,0-2.53-.06-3.81-.17-.94-.08-1.73-.73-1.99-1.64-.26-.9.06-1.87.8-2.45,3.51-2.69,5.74-6.59,6.3-10.99.49-3.89-.45-7.68-2.59-10.41-5.34-6.79-14.68-5.6-23.72-4.45-7.46.95-14.5,1.85-18.97-1.99-2.59-2.22-3.91-5.67-4.04-10.54,0,0,0-.06,0-.06-.24-10.26,3.71-19.62,11.11-26.38,8.67-7.91,21.12-11.58,34.16-10.07,9.57,1.11,20.1,6.04,28.16,13.19,9.11,8.08,13.97,17.89,13.67,27.62-.35,11.69-4.72,21.58-12.63,28.6-7.07,6.28-16.55,9.73-26.47,9.73ZM195.5,358.78c6.39,0,12.51,1.47,16.92,7.09,2.89,3.67,4.17,8.7,3.53,13.79-.47,3.73-1.88,7.17-4.09,10.07,8.17-.37,15.87-3.37,21.69-8.54,6.95-6.17,10.78-14.93,11.1-25.33.44-14.64-15.98-33.62-37.8-36.14-11.73-1.35-22.87,1.89-30.57,8.91-6.51,5.94-9.83,13.86-9.62,22.9l-2.28.11,2.28-.06c.09,3.5.89,5.86,2.45,7.19,2.94,2.52,9.01,1.75,15.43.93,3.57-.46,7.31-.93,10.96-.93Z"/>
      </g>
      <g>
        <path class="cls-2" d="M219.72,418.23c5.24,7.67,7.92,16.69,9.98,25.75,11.04,48.66-31.44,82.92-83.56,71-33.32-7.62-61.03-37.14-61.04-71.32,0-18.7,11.48-32.6,26.99-41.62,25.25-14.7,30.26,4.76,54.63,2.31,25.31-2.54,36.28-10.6,53,13.88Z"/>
        <path d="M166.63,519.63c-6.83,0-13.88-.8-21-2.42-35.8-8.18-62.81-39.8-62.81-73.54,0-17.56,9.98-33.04,28.12-43.59,15.8-9.2,24.44-5.72,33.58-2.05,6.14,2.47,12.48,5.02,21.98,4.06,4.72-.47,9.02-1.16,12.81-1.76,16.81-2.67,27.92-4.43,42.3,16.62,5.67,8.3,8.4,18.07,10.32,26.53,5.01,22.07-.3,42.28-14.95,56.91-12.57,12.55-30.53,19.24-50.33,19.24ZM129.33,398.77c-4.42,0-9.47,1.38-16.1,5.24-21.38,12.44-25.86,28.43-25.86,39.65,0,31.67,25.49,61.38,59.27,69.1,26.22,6,51.31.16,67.1-15.6,13.5-13.48,18.38-32.19,13.73-52.67-1.83-8.05-4.4-17.31-9.63-24.97-12.75-18.66-21.13-17.33-37.82-14.69-3.86.61-8.22,1.3-13.07,1.79-10.61,1.06-17.79-1.82-24.13-4.37-4.58-1.84-8.66-3.48-13.48-3.48Z"/>
      </g>
      <g>
        <g>
          <rect x="325.41" y="3.46" width="20.88" height="434.61" transform="translate(40.09 -51.38) rotate(9.3)"/>
          <path d="M311.04,439.18c-.12,0-.25,0-.37-.03l-20.61-3.37c-.6-.1-1.13-.43-1.48-.92-.35-.49-.5-1.1-.4-1.7L358.42,4.26c.1-.6.43-1.13.92-1.48.49-.35,1.1-.5,1.7-.4l20.61,3.38c1.24.2,2.09,1.38,1.88,2.62l-70.24,428.89c-.18,1.12-1.15,1.91-2.25,1.91ZM293.05,431.64l16.11,2.64L378.65,9.89l-16.11-2.64-69.5,424.39Z"/>
        </g>
        <g>
          <rect class="cls-3" x="165.88" y="31.82" width="377.56" height="148.15" transform="translate(21.78 -55.93) rotate(9.3)"/>
          <path d="M528.99,211.78c-.12,0-.25,0-.37-.03l-372.6-61.02c-1.24-.2-2.09-1.38-1.88-2.62L178.08,1.91c.1-.6.43-1.13.92-1.48.49-.35,1.1-.5,1.7-.4l372.6,61.02c1.24.2,2.09,1.38,1.88,2.62l-23.94,146.2c-.1.6-.43,1.13-.92,1.48-.39.28-.86.43-1.33.43ZM159.01,146.6l368.1,60.28,23.21-141.7L182.22,4.9l-23.21,141.7Z"/>
        </g>
        <g>
          <path d="M222.17,32.27c-.06.1-.15.19-.27.27-.13.07-.25.15-.38.22-.13.07-.22.16-.27.27-.06.1-.02.26.09.47.1.06.15.14.13.25l-.05.33c-.02.11-.02.21,0,.29.02.08.13.12.32.11-.05.07-.1.13-.14.18-.05.05-.06.11-.03.19.15.25.09.41-.17.49-.26.07-.46.19-.6.36-.01.07,0,.16.01.26.02.1,0,.18-.04.25-.38.24-.79.41-1.22.51-.43.1-.87.21-1.31.33l.16.08c-.29.14-.61.25-.96.33-.35.08-.67.24-.94.5-.24.07-.49.14-.74.19-.26.05-.53.06-.83,0-.24.07-.5.11-.78.1-.28,0-.55.04-.79.15-.09.06-.06.1.09.13h.4s0,.06,0,.06c.15.02.39.04.73.03.34,0,.7,0,1.08-.02.38-.01.75-.02,1.11-.02.36,0,.61.02.76.04-.23.04-.56.06-.98.07-.42,0-.86.01-1.34,0-.47,0-.91.01-1.32.04-.4.03-.71.1-.92.22l3.94-.09c-.27.03-.64.06-1.12.07-.48.02-.97.04-1.49.07-.52.03-1.01.05-1.49.07-.48.02-.85.02-1.11.02-.01.99,0,1.98.05,3,.04,1.01.02,2.02-.07,3.03-.01.53-.08,1.06-.2,1.59-.13.53-.14,1.07-.04,1.62l-1.01,6.49c.02,1.03,0,2.1-.07,3.23-.07,1.13-.16,2.23-.26,3.31.1.09.09.26-.03.51,0,.04-.03.05-.06.05l-.03.17.03-.17.06-.05-.1-.07c-.22.15-.33.38-.34.68-.01.3-.13.53-.34.68-.07.41-.24.66-.52.77l-.47.09c.02-.15.02-.22-.02-.23l-.11-.02c-.17.12-.27.31-.29.55-.02.24-.18.36-.48.35l-.35.4.03-.17c-.15.01-.29-.08-.41-.29-.12.02-.2.1-.24.25-.04.14-.1.29-.16.43-.06.14-.12.25-.17.31-.05.07-.16.05-.33-.05-.03-.08-.05-.14-.08-.18-.03-.04-.08-.11-.14-.19-.07-.01-.12,0-.15.06-.03.05-.08.11-.17.17l-.14-.19-.12.04s.05.06.03.18h-.29s-.03.18-.03.18c-.06-.09-.14-.13-.24-.12-.1,0-.2-.02-.3-.08.03.31-.06.44-.27.41s-.31.08-.31.35c-.09.1-.17.1-.23.02-.08.02-.16.14-.23.33-.07.2-.15.42-.22.67-.08.25-.15.5-.21.73-.06.24-.09.39-.1.47-.14-.1-.23-.43-.29-.99-.06-.56-.07-.95-.04-1.17,0-.19-.09-.26-.25-.21-.16.05-.21-.02-.14-.19-.04-.2-.16-.27-.36-.23-.2.04-.27-.06-.23-.32-.06-.09-.13-.12-.21-.09-.08.02-.16.03-.23.02-.09.29-.22.36-.41.22-.19-.14-.33-.11-.44.1-.1-.55-.21-1.12-.31-1.73-.11-.61-.19-1.22-.24-1.83l2.09-13.43c0-.49-.05-.98-.16-1.45-.11-.47-.17-.96-.16-1.45.05-.07.1-.08.15-.03.05.05.1.04.15-.03.06-.14.05-.41-.04-.8-.12.06-.15.13-.09.21.06.09.02.14-.14.15l-.04.22c-.06-.12-.09-.27-.1-.44-.01-.17.12-.26.38-.25l-.27-1.81c.23-.04.31-.16.23-.36-.17-.33-.24-.61-.21-.83l.36-3.58c-.07-.05-.11-.08-.13-.11-.02-.02-.05,0-.1.07,0,.46-.04.96-.13,1.51s-.14,1.08-.14,1.57c.01.38-.02.75-.09,1.09-.08.35-.07.74,0,1.17l.11.02-.11,1.01c-.04-.42-.08-.88-.12-1.36-.04-.48-.02-.92.05-1.33l-.09-.13c.03-.68.09-1.29.16-1.85.07-.56.1-1.16.1-1.81-.66-.37-1.39-.65-2.2-.82-.81-.17-1.59-.37-2.35-.61-.21-.11-.62-.26-1.23-.46-.61-.19-1.26-.39-1.93-.57-.67-.19-1.31-.35-1.91-.48-.6-.14-1-.2-1.19-.2l-.04-.12c.12-.02.25-.02.4,0s.27-.05.38-.22c-.06-.12-.04-.21.05-.28.09-.06.15-.13.2-.19l.09-.9c.23-.27.45-.52.64-.78.19-.25.41-.51.64-.78.08-.02.16-.03.23-.02s.14-.03.19-.14c-.05-.16-.11-.28-.17-.37.05-.07.1-.17.17-.31.06-.14.18-.16.35-.06l.14-.15-.09-.13h-.06s-.06-.02-.06-.02c.2-.04.33-.1.4-.16.07-.06.17-.18.31-.35l-.05-.06c.15-.01.33-.02.52-.03.19,0,.26-.09.21-.25-.13-.13-.28-.21-.45-.22-.17,0-.35-.03-.53-.06.18-.39.54-.61,1.08-.68.54-.06,1.05-.13,1.51-.21,1.58.07,3.17.23,4.76.47,1.59.24,3.17.47,4.75.69,1.58.22,3.15.4,4.72.55,1.57.14,3.11.15,4.61.01,1-.06,1.95-.01,2.88.16.92.17,1.88.24,2.87.21-.09.06-.09.19,0,.4-.08.03-.13.04-.15.03s-.07.03-.16.09c-.02.15,0,.23.07.24l.44.07s.03.03,0,.06-.03.09.03.18c.08-.02.19-.03.34,0-.22.16-.24.29-.07.42.17.12.28.23.35.31l.39.06ZM213.13,38.81c-.3-.05-.47-.04-.52.03.07.05.14.06.22.04.08-.02.16-.05.24-.07h.06ZM208.51,63.89c.08-.02.12-.06.13-.09s-.03-.06-.1-.07l-.03.17ZM218.22,38.62h-.34s0-.05,0-.05h.34s0,.05,0,.05Z"/>
          <path d="M245.77,68.23c.01.38-.06.75-.21,1.1-.15.35-.29.67-.41.96-.12.51-.31.97-.57,1.39-.26.41-.52.84-.78,1.29l-.11-.02c-.2.04-.36.08-.5.12-.14.03-.28.06-.44.07-.07.18-.16.27-.27.27-.11,0-.25.02-.41.07-.13-.13-.25-.18-.37-.15-.12.04-.22.09-.31.15-.09.06-.18.1-.28.13-.1.02-.21-.03-.34-.17-.04.03-.08.04-.12.04s-.08,0-.12.04l-.02.11s-.02-.1.03-.17c-.04-.2-.14-.33-.28-.39-.19-.22-.38-.26-.55-.12-.18.14-.35.16-.52.06-.1-.06-.21-.13-.31-.22-.1-.09-.2-.07-.3.07-.06-.09-.07-.19-.03-.32.04-.13-.01-.2-.16-.23-.12-.21-.26-.3-.41-.27-.16.03-.31.08-.45.15-.14.07-.29.12-.42.16-.14.03-.29-.04-.45-.22.01-.07.03-.13.06-.16.02-.03.02-.09,0-.17-.19-.03-.25-.1-.19-.2.05-.1.01-.21-.12-.3-.26,0-.43-.07-.48-.19-.06-.12-.07-.25-.05-.38l.07-.44c.03-.17-.03-.3-.16-.4.21-.84.29-1.66.23-2.47-.06-.81-.05-1.64.01-2.5,0-.04-.08-.11-.25-.21.04-.71.13-1.43.27-2.15.14-.72.27-1.44.39-2.18l-.07-.24c-.87,0-1.76-.07-2.66-.24-.9-.17-1.79-.34-2.67-.52l-.18.03-.61,3.37c-.07.18-.13.38-.18.6-.06.22-.19.41-.4.56-.15.47-.36.92-.62,1.35-.26.43-.51.82-.76,1.16-.04,0-.05-.03-.05-.06s-.03-.04-.11-.02c-.25.38-.46.77-.62,1.18-.16.41-.37.82-.63,1.23-.18-.07-.35-.07-.51,0-.16.07-.34.12-.54.17-.03.18-.07.27-.13.26s-.13-.04-.21-.09c-.09-.05-.17-.1-.26-.16-.09-.05-.17-.05-.26.01-.08.02-.12.07-.11.12,0,.06-.03.12-.11.18.2-.27.15-.44-.14-.51-.29-.07-.48-.2-.56-.4-.04.03-.07.08-.08.16-.1-.09-.15-.2-.14-.34,0-.13-.03-.24-.09-.33-.09.06-.19.08-.32.06s-.24,0-.32.06c-.09.06-.11.23-.08.5l-.03.17.03-.17c-.12-.17-.2-.36-.22-.58-.02-.21-.12-.39-.28-.53-.11-.02-.17.02-.16.12,0,.1-.02.18-.07.24l-.19-.6c-.22-.3-.44-.36-.66-.16-.22.19-.42.27-.61.24-.03-.08-.02-.14.03-.17s.02-.09-.08-.18c-.03-.08-.04-.1-.05-.06s-.03.05-.06.05c-.24-.15-.39-.33-.45-.53-.06-.2-.24-.36-.52-.48-.03-.53-.1-1.03-.21-1.49-.12-.45-.19-.95-.21-1.49.05-.3.02-.59-.08-.9-.1-.3-.09-.59.03-.88.42-1.41.76-2.88,1.01-4.42.25-1.53.46-3.07.61-4.62.16-1.55.33-3.07.52-4.58.19-1.51.44-2.97.75-4.4.32-1.47.5-2.9.56-4.32.06-1.41.31-2.86.74-4.35l.18-.43.59.21c.2-.04.31-.07.33-.09.02-.02.12.01.3.08.07.05.12.06.17.03l.06-.05.05.06-.11-.02.14.19c.32.13.67.23,1.06.32.38.08.76.08,1.11-.02.11.02.19.08.25.18.06.1.15.13.27.07.17.14.32.19.46.13.14-.05.29-.12.43-.21.15-.09.32-.17.53-.26.2-.08.41-.1.64-.07l.13-.09c.13.1.24.27.32.51s.14.5.19.77c.05.27.07.54.07.81,0,.26-.04.45-.09.55.17,1.73.23,3.47.17,5.21-.06,1.74-.02,3.47.12,5.2-.14.17-.08.38.18.65.03.27,0,.55-.11.84-.1.29-.04.54.19.77l6.21,1.36.18-.03c-.02-.12-.03-.24-.02-.37,0-.13-.09-.23-.26-.3-.47-.15-.96-.27-1.48-.36s-.99-.2-1.42-.35c.52.08,1.04.17,1.58.26s1.06.19,1.57.31l.11-3.79.26-.53c.06-.82.17-1.65.32-2.48.15-.83.33-1.61.52-2.33.26-.41.45-.85.59-1.33.13-.47.28-.96.44-1.46.09-.06.17-.15.24-.27.08-.12.2-.13.37-.02.2-.04.29-.18.29-.41,0-.23.05-.41.15-.55.41-.16.64-.43.7-.8.25-.11.44-.26.58-.44.14-.18.27-.36.37-.54.03.04.08.06.13.05.06,0,.11-.01.14,0,.15.02.23-.02.25-.13.12-.06.2-.16.22-.31s.06-.28.1-.41c.04-.13.09-.23.17-.31.07-.08.19-.09.37-.02.14.1.23.13.3.11.06-.03.11.06.16.25.19.26.41.51.67.76.26.25.5.51.73.77.14.33.2.68.2,1.06,0,.38.24.67.74.86.04.2.04.4-.01.6-.05.2,0,.39.16.57.22.04.4.12.53.26.13.14.26.23.41.29.1.32.17.64.22.95.04.31.06.64.04.97-.29,1.32-.46,2.66-.51,4.01-.05,1.36-.07,2.71-.04,4.06.03,1.35.05,2.7.08,4.05.03,1.35-.01,2.68-.11,3.99-.17,1.76-.37,3.43-.59,5.02-.22,1.59-.54,3.27-.94,5.02.06.09.07.15.02.2-.05.05-.02.12.08.21ZM221.59,67.51l-.13.09v-.06s.13-.04.13-.04ZM223.87,68.85h-.06s.03-.18.03-.18h.06s-.03.18-.03.18Z"/>
          <path d="M277.92,72.58c-.17.09-.25.21-.26.36,0,.15-.06.33-.17.54-.26-.04-.45.08-.57.36-.02.11-.01.19.02.23-.2.04-.41.08-.64.09-.23.02-.4.13-.51.34-1.66.15-3.28.31-4.89.48-1.6.17-3.23.3-4.87.37-1.72.06-3.44.02-5.16-.11-1.72-.13-3.42-.18-5.1-.15-.68,0-1.35-.01-2.01-.05-.66-.03-1.33-.14-2.02-.33.12-.02.22-.02.31,0s.18,0,.27-.07c-.16-.41-.49-.61-.98-.62.12-.06.19-.14.21-.25s.01-.21-.01-.29c-.03-.08-.02-.13.02-.14.04-.01.07-.06.08-.13l-.03-.52c.13-.58.22-1.2.27-1.83.05-.64.17-1.2.36-1.7.01-.07.06-.16.16-.26.09-.1.11-.19.05-.28l-.11-.02c.2-.04.35-.15.45-.32-.05-.16-.09-.33-.12-.5s0-.33.1-.47c.69-.3,1.41-.5,2.14-.59.73-.09,1.46-.21,2.16-.36.12-.02.22-.02.31,0s.18,0,.27-.07c0-1.33.06-2.65.22-3.97.16-1.32.34-2.64.53-3.95.2-1.31.39-2.64.59-3.97.2-1.33.33-2.68.4-4.03l-.1-.07c-.12.06-.24.08-.36.08-.11,0-.21.01-.29.04-.11,1.12-.27,2.26-.48,3.42-.21,1.16-.39,2.32-.54,3.47.02.08.02.27,0,.57-.03.3-.05.62-.07.96-.02.34-.03.66-.04.96-.01.3,0,.49.02.57-.19-.22-.29-.58-.31-1.07-.01-.49.01-1.01.08-1.55.07-.54.15-1.06.25-1.55.1-.5.15-.88.16-1.14l.04-.56.11-1.01c.18-.62.27-1.14.29-1.57.01-.43.12-.92.32-1.45-.89.12-1.81.16-2.75.12-.94-.04-1.87-.02-2.8.05l-.66-.16c.01-.07-.02-.12-.09-.13-.18-.07-.4-.08-.67-.05-.27.03-.44-.07-.52-.31-.06-.09-.14-.17-.24-.27-.1-.09-.18-.18-.24-.27.33-.4.45-.84.36-1.31-.09-.47-.07-.9.07-1.3-.08-.43-.03-.87.16-1.31.19-.44.39-.86.6-1.24,0-.19.05-.33.18-.43.13-.09.24-.22.35-.4.16-.5.48-.78.96-.81.48-.04.92-.11,1.32-.24,1.53-.28,3.07-.52,4.64-.72,1.57-.2,3.11-.42,4.63-.66.97-.14,1.94-.24,2.89-.29.96-.05,1.93-.07,2.91-.06.2.15.43.22.67.22.25,0,.5,0,.77.01.26,0,.5.05.72.12.22.07.4.24.55.49.19,0,.34.05.46.16.11.11.24.22.37.32l1.2-.03c.04.2.2.39.47.59.03.31.02.59-.03.85s.07.49.34.68c.28.12.59.24.91.35.32.11.53.33.63.64.03.27-.03.5-.2.68-.16.18-.34.34-.53.48s-.38.29-.56.45c-.18.16-.29.37-.33.63-1.02.44-2.06.8-3.11,1.08-1.05.28-2.15.44-3.29.48l-.07.1c-.06,1.96-.16,3.87-.31,5.72-.15,1.85-.29,3.72-.4,5.6-.13.13-.17.25-.11.35.06.1.06.23,0,.37-.13.78-.2,1.55-.21,2.33-.01.78-.02,1.54-.04,2.3.64.03,1.31.05,2.01.07.7.02,1.37.04,2.01.07.1.06.25.06.42.01.18-.05.31.01.4.18l1.07.06c-.27.03-.54.02-.82-.02s-.55-.05-.82-.02c-.57.02-1.13,0-1.67-.05-.54-.05-1.09,0-1.64.13.25.12.5.16.78.13.27-.03.51-.01.73.06.9.07,1.84.14,2.81.2.98.07,1.94.18,2.9.33-.04.03-.05.05,0,.06.02.08.08.12.18.11.09,0,.18.02.24.07.02.12-.01.25-.09.38-.08.14-.03.24.15.31l.33.05c-.19.23-.18.39.04.46.23-.04.4.02.49.16.09.15.25.2.49.16.02.12.05.24.08.36.04.12.06.24.08.36-.09.06-.18.08-.3.07s-.18.05-.2.19,0,.26.06.35v-.06s.18.03.18.03v.06s-.11.02-.19.08c-.03.19,0,.33.1.44.1.11.19.25.27.41.34-.02.51.1.51.37-.02.11-.07.24-.15.4-.08.16-.06.32.06.49-.01.07-.06.14-.15.2-.09.06-.06.14.07.24Z"/>
          <path d="M295.53,72.16c.09.85.06,1.88-.08,3.09-.14,1.21-.54,2.52-1.18,3.93-.65,1.41-1.6,2.9-2.87,4.48-1.26,1.58-2.98,3.19-5.15,4.85-.28.07-.53.19-.77.36-.24.17-.46.34-.68.51-.22.17-.44.33-.67.46-.23.13-.49.18-.79.13l-.21-.43c-.05.07-.09.09-.12.06-.03-.03-.07-.02-.12,0,.11-.21.06-.34-.16-.4-.22-.06-.29-.19-.22-.41-.03-.31.05-.6.23-.87.18-.27.25-.57.23-.87-.06-.09-.13-.11-.22-.06-.08.04-.16.08-.24.1-.09.1-.17.1-.23.02l-.06-.35c-.28.1-.46.16-.54.17-.08,0-.13,0-.17,0s-.1.01-.18.06c-.08.04-.25.12-.49.23.13-.36.24-.61.32-.74.08-.14.16-.26.23-.36.07-.1.16-.22.26-.36.1-.14.21-.38.35-.74-.07-.05-.12-.1-.15-.14s-.09-.05-.17-.03c-.3.22-.49.34-.57.36-.08.02-.14.03-.18.03s-.1.01-.18.06c-.08.04-.3.19-.64.44.25-.34.41-.57.48-.69.08-.12.14-.21.19-.28.05-.07.12-.15.21-.25.09-.1.28-.3.55-.59l-.52.37c-.34.25-.57.42-.68.51-.11.1-.21.17-.29.24-.09.06-.19.13-.32.2-.13.07-.38.21-.75.42.29-.41.53-.73.7-.97.17-.24.35-.46.54-.68.19-.22.39-.44.59-.67.21-.23.49-.53.86-.88.31-.52.7-1.02,1.16-1.52.46-.49.89-1.01,1.28-1.55.81-1.69,1.05-3.32.72-4.89-.33-1.57-.85-2.99-1.55-4.27-.7-1.27-1.43-2.34-2.18-3.2-.75-.86-1.14-1.41-1.18-1.64-.01-.15-.03-.27-.06-.35-.03-.08-.07-.16-.13-.25-.34-1.19-.57-2.39-.69-3.58-.13-1.2-.09-2.42.12-3.68s.6-2.54,1.2-3.84c.59-1.31,1.46-2.64,2.59-4.01.75-.9,1.6-1.71,2.53-2.43.93-.72,1.85-1.4,2.75-2.05.75-.41,1.5-.73,2.26-.97.76-.24,1.52-.48,2.28-.74.07-.22.2-.36.38-.42.18-.06.34-.18.48-.35l.65.22c.23.19.48.35.74.49.26.14.57.2.91.18.02.08.08.11.16.08.08-.02.15-.01.22.04v.06c.09.09.19.12.29.08.1-.04.12.03.05.21.23.19.49.2.76.04.27-.16.48-.1.62.19.07.01.16.05.27.1.1.06.11.15.01.29.12-.06.26-.02.41.1.15.12.28.09.38-.08.19.26.24.49.17.71-.07.22-.19.42-.36.62-.17.2-.34.4-.52.6-.18.2-.31.4-.39.62-.18.39-.43.87-.75,1.44-.32.57-1.06,1.28-2.22,2.11-.13.09-.29.15-.48.18-.19.03-.29.13-.28.32-.06.14-.18.27-.35.4-.17.12-.33.27-.47.44-.07-.01-.25.15-.53.48-.28.33-.59.81-.91,1.41-.33.61-.64,1.33-.92,2.15-.29.83-.45,1.73-.5,2.71.03.95.27,1.82.71,2.59.44.77.95,1.63,1.51,2.58.57.95,1.11,2.05,1.62,3.31.51,1.26.88,2.86,1.09,4.79Z"/>
          <path d="M356.77,90.79c-.17-.56-.35-1.27-.53-2.14-.18-.86-.37-1.76-.56-2.68-.19-.92-.37-1.81-.53-2.68-.16-.86-.31-1.59-.44-2.18-.03-.04-.07-.11-.11-.22-.04-.1-.09-.21-.14-.34.29,2.13.61,4.2.95,6.19.34,1.99.61,3.63.82,4.91-.04,0-.03.05.03.18.06.12-.14.3-.6.53-.06.14-.12.19-.17.14-.05-.05-.09-.12-.13-.22-.04-.1-.08-.2-.12-.3-.04-.1-.08-.14-.12-.11-.04.68-.08,1.12-.13,1.34-.06.22-.11.33-.17.34-.06,0-.13-.09-.21-.29-.16-.22-.24-.46-.25-.72-.01-.27-.21-.4-.59-.38-.09.06-.32.18-.71.37-.39.18-.81.37-1.26.56-.45.19-.87.35-1.27.47-.4.12-.65.16-.76.1l-.04-.12-.42.5c-.21-.11-.44-.25-.7-.43-.26-.18-.48-.15-.67.09-.25-.12-.4-.05-.46.21-.06.25-.15.41-.28.47-.33-.55-.69-1.53-1.08-2.96-.39-1.43-.78-3.03-1.15-4.8-.37-1.77-.74-3.58-1.1-5.44-.36-1.86-.7-3.52-1.03-4.98-.33-1.46-.64-2.57-.93-3.34-.29-.77-.53-.96-.7-.57-.1.36-.28.84-.55,1.42s-.54,1.16-.83,1.74c-.29.58-.54,1.09-.76,1.53-.22.44-.34.71-.36.82-.1.14-.27.45-.52.94-.25.49-.52,1.02-.8,1.58-.28.56-.55,1.09-.8,1.58-.25.49-.41.82-.48,1l-.11-.02c-.1.14-.13.23-.1.27.03.04-.03.09-.19.14.12-.25.16-.5.13-.78-.2.31-.38.64-.53.99-.15.35-.4.66-.75.9l.03-.51c-.17.09-.3.18-.39.28-.09.1-.24.17-.43.21l.05-.28c-.12.06-.22.09-.3.09-.08,0-.21,0-.39-.04.01-.07.04-.16.07-.27.04-.11-.02-.15-.18-.14-.25.11-.47.11-.66,0-.19-.11-.41-.09-.66.06.01-.07.05-.12.11-.15.06-.03.1-.08.11-.15-.13-.14-.22-.14-.28-.02-.06.12-.18.15-.36.08l-.02.11c-.24-.15-.45-.35-.64-.59-.19-.24-.44-.42-.76-.55-.31.03-.52-.09-.62-.36-.11-.26-.26-.49-.46-.67-.31.03-.42.14-.34.34.08.2,0,.34-.24.42-.37-1.01-.63-2.05-.8-3.12-.17-1.07-.25-2.16-.26-3.26l-.47-.93.13-.09c-.36-.32-.59-.71-.66-1.16-.08-.45-.24-.88-.47-1.3-.72.94-1.35,1.9-1.87,2.88-.52.98-.99,1.93-1.41,2.87-.42.94-.82,1.84-1.21,2.7-.39.87-.85,1.65-1.38,2.36-.43.08-.76.23-.98.44-.22.21-.5.4-.83.57l-.55-.09c.05-.1.07-.23.06-.36-.02-.14-.12-.22-.3-.25-.2.08-.43.08-.68,0-.25-.08-.51-.17-.78-.27-.27-.1-.53-.18-.79-.24-.26-.06-.49-.01-.71.14-.39-.14-.59-.32-.59-.55,0-.23-.22-.41-.65-.56.02-.11-.04-.11-.17,0-.13.11-.28.24-.43.38-.16.14-.3.23-.44.24-.14.02-.18-.12-.13-.42l-.3-1.3c.05-.56.11-1.04.18-1.45s.16-.8.28-1.18c.12-.38.26-.76.42-1.16.16-.39.34-.85.54-1.39.96-2.65,1.92-5.29,2.86-7.92.94-2.63,1.79-5.31,2.54-8.03.47-1.74,1.12-3.49,1.94-5.23.82-1.74,1.63-3.35,2.44-4.81.1-.4.12-.73.05-.99-.07-.26-.04-.58.1-.98l.04-.22.05.06c-.03-.27.07-.41.29-.41.23,0,.36-.11.4-.33.11-.21.24-.21.4,0,.3-.22.56-.45.77-.7s.47-.5.78-.75c.14-.17.28-.19.41-.08.13.12.25.07.36-.14.15.25.32.3.52.14.2-.16.33-.1.4.18l.31-.18c.67.79,1.02,1.68,1.07,2.65.05.98.07,1.96.06,2.94.32.62.7,1.62,1.16,3.01.46,1.38.9,2.79,1.33,4.23.43,1.44.79,2.7,1.09,3.79.29,1.09.44,1.66.43,1.69,0,.19.1.31.28.36.18.05.21.2.1.44l-.13.09c.17.1.26.23.25.38,0,.15.04.29.13.42-.07.18-.07.35,0,.51.07.16.13.32.18.46.05.14.09.29.1.44.01.15-.05.31-.19.48l.4.35c.25-.38.46-.79.63-1.23.17-.45.41-.85.74-1.22.23-.49.47-.97.72-1.42.24-.45.57-.87.98-1.26.09-.1.21-.21.34-.34.05-.07.1-.14.15-.2l.97-1.04c.45-.46.93-.92,1.42-1.39.49-.47.92-1,1.28-1.58.26-.19.48-.51.67-.97.19-.46.36-.94.52-1.42.16-.49.28-.93.39-1.33.1-.4.18-.65.24-.76.25-.6.57-1.16.96-1.66.39-.51.92-.85,1.59-1.05.33.09.72.1,1.19.02.47-.07.8.09,1,.51-.03.19,0,.34.09.47.09.13.18.28.27.44-.18-.07-.29-.17-.35-.31-.05-.14-.17-.21-.37-.2,0,.23.09.42.27.59.18.16.35.33.51.51l1.65-.36c-.09.06-.12.17-.11.32.01.15.05.27.11.36,0,.23.11.39.32.48.21.09.4.19.58.29.1.06.23.07.36.03.14-.03.28-.07.41-.1.14-.03.26-.03.37,0,.11.04.18.17.22.41l.28.05c.01-.07.01-.15,0-.23,0-.08-.06-.14-.17-.2h-.06s.03-.08.07-.11c.25.34.28.66.1.96-.18.29-.26.61-.24.96.04.2.04.32,0,.37-.05.05-.08.17-.11.35.17.1.22.23.14.36-.08.14-.15.28-.21.42l-.25.13c.05.16.14.26.26.3.13.04.13.16.02.37l-.27.24c.23.19.34.49.31.9-.03.41.02.78.16,1.11.65,2.08,1,4.19,1.07,6.32.15.25.23.53.26.84.02.31,0,.55-.06.73-.05.75-.02,1.85.09,3.29.11,1.44.28,3.05.52,4.84.24.61.46,1.37.65,2.3.19.92.37,1.85.54,2.79.17.94.32,1.82.45,2.63.13.82.28,1.43.44,1.84l.08.53.3.96c.06.77.17,1.36.31,1.79.14.42.19.99.15,1.7Z"/>
          <path d="M385.94,92.49l-.23-.32c-.12.02-.19.1-.21.25-.01.07-.02.15,0,.23,0,.08,0,.15,0,.23-.02.15-.14.24-.33.29l-.06.39c.02-.15-.03-.27-.17-.37-.14-.1-.26-.17-.36-.23-.09.06-.12.16-.11.3.02.14.04.24.06.32l-.17-.03c-.07-.01-.14-.06-.2-.15-.06-.09-.12-.17-.19-.26-.06.1-.08.21-.08.33,0,.11,0,.23-.03.34v.06s-.12-.02-.12-.02c-.04,0-.05.03-.05.11,0,.08-.02.15-.06.22-.16.05-.25.15-.28.3-.02.11,0,.22.03.32.04.1.05.21.03.32v.06s-.53.37-.53.37c.04.2.11.37.2.52.09.15.16.32.2.52h-.06c-.03-.28-.11-.53-.25-.76-.13-.23-.28-.45-.43-.67-.11-.02-.17,0-.18.08s0,.15.02.23c-.14-.1-.25-.23-.33-.4-.09-.17-.22-.26-.41-.29-.05.07-.06.12-.03.17-.02.15.02.3.13.45.11.15.17.32.17.51-.07-.05-.12-.12-.17-.2-.04-.08-.12-.13-.23-.15l-.44-.47v-.06c-.07-.01-.12-.03-.15-.05-.03-.03-.09-.04-.16-.06-.12.06-.2.18-.23.36-.01.07,0,.19.06.35l-.26-.16-.12.04-.32.23c-.26-.27-.48-.46-.65-.56-.8-1.15-1.54-2.4-2.24-3.72-.23-.45-.43-.89-.61-1.3-.18-.41-.38-.84-.61-1.3l-.24.07c.4,1.24.94,2.42,1.61,3.54.67,1.12,1.42,2.18,2.24,3.18l-.28-.05c-.07-.01-.13,0-.18.03-.75-.77-1.44-1.8-2.08-3.1-.64-1.3-1.18-2.46-1.62-3.48-1.96.13-3.91.04-5.87-.28-.59-.1-1.17-.21-1.74-.34-.57-.13-1.12-.3-1.65-.5l-.17-.03c-.07-.01-.12.07-.12.24,0,.17-.02.29-.03.36-.1.59-.3,1.14-.61,1.64-.31.5-.55,1.02-.71,1.56-.07-.01-.13-.04-.16-.08-.11-.02-.19.04-.23.16-.04.13-.07.26-.1.41l-.04.22c-.01.07-.04.14-.09.21v-.06c.06-.07.1-.19.13-.38-.04-.23-.05-.41-.03-.52-.1-.09-.16-.21-.17-.34-.02-.14-.05-.26-.11-.39l-.07.1c-.07-.01-.12-.05-.12-.11-.01-.06-.03-.09-.07-.1h-.06c-.19,0-.29.09-.3.25,0,.17-.1.22-.28.15-.08.02-.13.08-.14.18s-.07.09-.17,0l-.25.47-.03-.18-.23.02s-.04-.12-.02-.23l-.24.07s-.04-.12-.02-.23,0-.17-.08-.18l-.11-.02c-.12.06-.19.18-.2.37-.01.19-.11.27-.29.24l-.06.05.05-.33c.02-.15-.04-.23-.19-.26-.07-.01-.11,0-.09.04.01.04-.02.09-.11.15-.03-.08-.03-.15-.02-.2s-.02-.09-.1-.1-.12-.06-.15-.14c-.03-.08-.05-.14-.08-.18l-.23.02c.02-.15,0-.25-.07-.3l-.18.08c.02-.11-.03-.19-.13-.25l-.14.15s-.02-.1-.08-.18c-.07-.01-.14.03-.19.11-.05.09-.12.16-.21.22v.06s-.06,0-.06,0c-.07-.01-.15-.04-.21-.09-.07-.05-.14-.08-.21-.09-.04,0-.1.02-.18.08-.19-.03-.28-.13-.29-.3-.01-.17-.09-.27-.24-.29-.14-.29-.23-.6-.25-.92-.02-.33,0-.64.04-.93.23-1.4.62-2.77,1.16-4.11.54-1.33,1.09-2.66,1.65-3.97l3.49-8.13c.29-.63.59-1.26.9-1.87.31-.61.61-1.22.89-1.82.49-1.13.91-2.26,1.26-3.38.35-1.12.91-2.16,1.68-3.14.18.03.29,0,.33-.12.04-.11.13-.17.29-.18l.25-.81c-.01.07.02.12.09.13.07-.18.15-.32.24-.42.09-.1.17-.22.23-.36.07.01.13,0,.18-.03.11.02.19-.02.24-.1.05-.09.14-.14.25-.16,0-.04.02-.09.06-.16.03-.07.05-.14.06-.22v-.06c0,.07,0,.11.05.12l.11.02c.14-.17.28-.21.42-.13.14.08.27-.02.39-.31,0-.04.03-.05.06-.05s.06.02.08.04c.01.02.06.04.13.05.04,0,.06,0,.06-.05.07.01.17,0,.29-.01.12-.02.15-.09.09-.21l.07-.1c.07.05.12.12.17.2.04.08.1.13.18.14l.12-.04c-.06-.09-.09-.17-.07-.24.02-.11.09-.19.21-.25.12-.06.16-.16.11-.32l.11.02s.1-.02.18-.08c.36.55.68,1.17.95,1.86.27.69.44,1.36.52,2.02l.3-.07c-.09-.39-.2-.77-.33-1.13-.13-.36-.26-.73-.39-1.09l.8,2.07-.17-.37c-.04.22.03.5.21.83l.02-.11s0-.07-.01-.09c-.02-.02-.02-.05-.01-.09l.09.47c.06.09.09.15.08.18l-.07-.3h-.06c-.09.05-.09.09-.02.1-.02.11,0,.21.07.3.18,1.24.38,2.46.62,3.66.24,1.2.51,2.39.81,3.57-.05.07-.05.12,0,.14.05.03.09.08.12.16.45,1.67,1.01,3.27,1.69,4.8.68,1.53,1.38,3.08,2.11,4.64.32.58.63,1.17.94,1.75.3.58.6,1.16.88,1.74-.02.15.01.27.11.36.1.09.18.2.23.32.25.57.48,1.16.71,1.77.22.61.42,1.21.59,1.8.19.22.26.47.22.75s0,.54.15.79l-.03.17c-.05.33.04.66.29.99.25.33.42.65.52.97.07.28.12.54.15.79.03.25.15.49.34.71ZM359.91,91.93l-.11.32-.33.29.44-.61ZM360.23,91.35l-.26.53.05-.33.2-.19ZM373.16,81.92l-2.61-7.31-.03.51-.04-.46c-.06.14-.25.51-.55,1.1-.31.6-.63,1.22-.96,1.86-.33.65-.64,1.24-.92,1.78-.28.54-.43.87-.45.98-.01.07.02.13.09.16.07.03.14.05.22.06-.33-.05-.54.06-.63.35-.09.29-.2.52-.34.68l6.21.28ZM373.4,80.76c-.07-.24-.25-.76-.54-1.57-.29-.81-.58-1.65-.89-2.54-.31-.88-.6-1.7-.88-2.45-.28-.75-.44-1.18-.5-1.3.04.23.17.74.41,1.52.23.78.51,1.6.82,2.47.31.87.63,1.68.94,2.43.31.75.53,1.23.65,1.44ZM370.67,76.28s-.01-.15-.06-.35c-.03-.08-.05-.18-.07-.3l.05-.28.08.92ZM374.16,59.83l-.08-.18h-.06s.08.18.08.18h.06ZM374.6,61.61c.01-.07-.04-.32-.16-.74-.12-.42-.21-.67-.27-.76l.41,1.66.02-.11v-.06ZM375.22,63.08s-.04-.1-.03-.18l-.04-.12v.06s-.02.06-.02.06c0,.04.02.1.08.18ZM373.96,82.22c-.04-.2-.12-.42-.23-.66-.11-.25-.25-.44-.42-.58.04.2.11.43.2.69.09.26.22.44.39.55h.06ZM377.76,95.48h-.06c.01-.08.01-.14,0-.18-.01-.04-.01-.1,0-.17.06.09.08.2.06.35Z"/>
          <path d="M408.98,92.11c-.35.06-.77.05-1.25-.03s-.94-.06-1.38.06c-.05.07-.03.12.06.15.09.03.09.1,0,.2-.2.04-.37.06-.52.06-.15,0-.33.01-.52.06-.08.03-.12.07-.11.12,0,.06-.01.12-.06.19.06.12.13.17.23.15.1-.02.18,0,.25.04.12-.06.24-.04.36.06.12.1.26.12.42.07.07.24.02.35-.17.34-.19-.01-.34,0-.46.01-.1-.05-.15-.04-.12.04.02.08-.02.13-.14.15.02.08.09.11.18.09.1-.02.18.01.24.1.02.12-.03.21-.16.29-.13.07-.14.16-.04.25,0,.26-.12.39-.34.37-.22-.02-.37.06-.44.24-.19-.03-.33.06-.44.27.06.09.14.15.23.18.09.03.11.1.05.21-.19-.03-.33.01-.42.13-.1.12-.2.2-.33.26l-.06.05.36.23s-.09.05-.15.06c-.06,0-.1-.03-.12-.11-.12.06-.26.05-.42-.01-.16-.06-.28-.07-.37,0,.05.16.12.24.22.23.09,0,.19.04.29.13,0,.04-.07.07-.18.08-.12.02-.15.11-.1.27-.1-.05-.25-.11-.43-.16-.18-.05-.32.01-.43.19-.02.11-.08.17-.17.17-.1,0-.2-.01-.3-.05-.11-.04-.21-.05-.3-.05-.1,0-.17.06-.23.16l.19.2c-.33-.05-.66-.06-.99-.02-.33.04-.68.07-1.07.08-.4-.1-.79-.15-1.17-.14-.38.01-.76-.09-1.15-.3-.14-.1-.42-.29-.85-.57-.43-.28-.9-.58-1.41-.91-.51-.33-1.03-.67-1.54-1.02-.51-.35-.95-.67-1.32-.96-.36-.36-.73-.73-1.1-1.09-.38-.36-.74-.75-1.09-1.15-1.05-1.23-1.95-2.63-2.7-4.2-.75-1.56-1.16-3.15-1.24-4.76-.36-1.27-.42-2.74-.19-4.41.23-1.67.62-3.3,1.14-4.9.53-1.6,1.13-3.06,1.8-4.37.67-1.31,1.26-2.27,1.78-2.87,1.54-1.76,3.43-3.32,5.66-4.68,2.23-1.36,4.49-2.4,6.77-3.13.2-.04.47-.04.82.02s.72.14,1.1.24c.38.1.74.22,1.08.35.34.13.61.25.82.36.05.16.12.24.22.23.09,0,.19.04.29.13.06.09.1.17.1.24,0,.08.04.16.1.24l.17.03c-.1.17-.18.26-.21.25.04.2.21.42.49.68.28.25.46.47.55.63-.11.21-.11.44,0,.68.16-.05.25-.02.27.07.02.1.06.19.13.28-.06.14-.13.29-.22.45-.08.16-.06.3.07.44l.16.08c-.13.59-.46.93-.97,1.04-.51.11-1,.33-1.48.67-.44.38-.9.75-1.38,1.11-.48.36-.95.73-1.43,1.1-.39.32-.92.79-1.57,1.42-.65.63-1.32,1.31-2.01,2.03-.69.72-1.34,1.43-1.94,2.13-.61.7-1.05,1.29-1.32,1.78-.64,1.11-1.11,2.32-1.42,3.64-.31,1.31-.34,2.6-.09,3.85-.12.28-.11.52.05.72.16.2.2.42.12.67.22.3.3.58.26.84.23.68.43,1.21.6,1.58.17.37.35.67.56.92.21.24.48.47.83.68.34.21.79.47,1.35.79.38.21,1.04.44,1.97.66.93.23,1.86.38,2.8.46.53.01.94.01,1.22,0,.29,0,.55-.02.8-.04.25-.02.52-.02.8-.01.28,0,.68.07,1.19.2.02.08-.01.13-.11.15-.1.02-.15.07-.17.14-.14.13-.26.26-.38.39-.12.13-.17.29-.16.49l.14.19s-.11.1-.2.19c.23.19.5.32.79.39.29.07.58.16.86.28l.1.07Z"/>
          <path d="M436.45,99.45c.01.38-.06.75-.21,1.1-.15.35-.29.67-.41.96-.12.51-.31.97-.57,1.39-.26.41-.52.84-.78,1.29l-.11-.02c-.2.04-.36.08-.5.12-.14.03-.29.06-.44.07-.07.18-.16.27-.27.27-.11,0-.25.02-.41.07-.13-.14-.25-.18-.37-.15-.12.04-.22.09-.31.15-.09.06-.18.1-.28.13-.1.02-.21-.03-.34-.17-.04.03-.08.04-.12.04s-.08,0-.12.04l-.02.11s-.02-.1.03-.17c-.04-.2-.14-.33-.28-.39-.19-.22-.38-.26-.55-.12-.18.14-.35.16-.52.06-.1-.06-.21-.13-.31-.22-.1-.09-.2-.07-.3.07-.06-.09-.07-.19-.03-.32.04-.13-.02-.2-.16-.23-.12-.21-.26-.3-.41-.27-.16.03-.31.08-.45.15-.14.07-.29.12-.42.16-.14.03-.29-.04-.45-.22.01-.07.03-.13.06-.16.02-.03.02-.09,0-.17-.19-.03-.25-.1-.19-.2.05-.1.01-.21-.12-.3-.26,0-.43-.07-.48-.19-.06-.12-.07-.25-.05-.38l.07-.44c.03-.17-.03-.3-.16-.4.21-.84.29-1.66.23-2.47-.06-.81-.05-1.64.01-2.5,0-.04-.08-.11-.25-.21.04-.71.13-1.43.27-2.15.14-.72.27-1.44.39-2.18l-.07-.24c-.87,0-1.76-.07-2.66-.24-.9-.17-1.79-.34-2.67-.52l-.18.03-.61,3.37c-.07.18-.13.38-.18.6-.06.22-.19.41-.4.56-.15.47-.36.92-.62,1.35-.26.43-.51.82-.76,1.16-.04,0-.05-.03-.05-.06s-.03-.04-.11-.02c-.25.38-.46.77-.62,1.18-.16.41-.37.82-.63,1.23-.18-.07-.35-.07-.51,0-.16.07-.34.12-.54.17-.03.18-.07.27-.13.26s-.13-.04-.21-.09c-.09-.05-.17-.1-.26-.16-.09-.05-.17-.05-.26.01-.08.02-.12.07-.11.12,0,.06-.03.12-.11.18.2-.27.15-.44-.14-.51-.29-.07-.48-.2-.56-.4-.04.03-.07.08-.08.16-.1-.09-.15-.2-.14-.34,0-.13-.03-.24-.09-.33-.09.06-.19.08-.32.06s-.24,0-.32.06c-.09.06-.11.23-.08.5l-.03.17.03-.17c-.12-.17-.2-.36-.22-.58-.02-.21-.12-.39-.28-.53-.11-.02-.17.02-.16.12,0,.1-.02.18-.07.24l-.19-.6c-.22-.3-.44-.36-.66-.16-.22.19-.42.27-.61.24-.03-.08-.02-.14.03-.17s.02-.09-.08-.18c-.03-.08-.04-.1-.05-.06s-.03.05-.06.05c-.24-.15-.39-.33-.45-.53-.06-.2-.24-.36-.52-.48-.03-.54-.1-1.03-.21-1.49-.12-.45-.19-.95-.21-1.49.05-.3.02-.59-.08-.9-.1-.3-.09-.59.03-.88.42-1.41.76-2.88,1.01-4.42.25-1.53.46-3.07.61-4.62.16-1.55.33-3.07.52-4.58.19-1.51.44-2.97.75-4.4.32-1.47.5-2.9.56-4.32.06-1.41.31-2.86.74-4.35l.18-.43.59.21c.2-.04.31-.07.33-.09.02-.02.12.01.3.08.07.05.12.06.17.03l.06-.05.05.06-.11-.02.14.19c.32.13.67.23,1.06.32.38.08.76.08,1.11-.02.11.02.19.08.25.18.06.1.15.13.27.07.17.14.32.19.46.13.14-.05.29-.12.43-.21.15-.09.32-.17.53-.26.2-.08.42-.1.64-.07l.13-.09c.14.1.24.27.32.51.07.24.14.5.19.77.05.27.07.54.07.81,0,.26-.04.45-.09.55.17,1.73.23,3.47.17,5.21-.06,1.74-.02,3.47.12,5.2-.14.17-.08.38.18.65.03.27,0,.55-.11.84-.1.29-.04.54.19.77l6.21,1.36.18-.03c-.02-.12-.03-.24-.02-.37,0-.13-.09-.23-.26-.3-.47-.15-.96-.27-1.48-.36s-.99-.2-1.42-.35l1.58.26c.54.09,1.06.19,1.57.31l.11-3.79.26-.53c.06-.82.17-1.65.32-2.48.15-.83.33-1.61.52-2.33.26-.41.45-.85.59-1.33.13-.47.28-.96.44-1.46.09-.06.17-.15.24-.27.08-.12.2-.13.37-.02.2-.04.29-.18.29-.41,0-.23.05-.41.15-.55.41-.16.64-.43.7-.8.25-.11.44-.26.58-.44.14-.18.27-.36.37-.54.03.04.08.06.13.05.06,0,.11-.01.14,0,.15.02.23-.02.25-.13.12-.06.2-.16.22-.31s.06-.28.1-.41c.04-.13.09-.23.17-.31.07-.08.19-.09.37-.02.13.1.23.13.3.11.06-.03.11.06.16.25.19.26.41.51.67.76.26.25.5.51.73.77.14.33.2.68.2,1.06,0,.38.24.67.74.86.04.2.04.4-.01.6-.05.2,0,.39.16.57.22.04.4.12.53.26.13.13.26.23.41.29.1.32.17.64.21.95.04.31.06.64.04.97-.29,1.32-.46,2.66-.51,4.01-.05,1.36-.07,2.71-.04,4.06.03,1.35.05,2.7.08,4.05.03,1.35-.01,2.68-.11,3.99-.17,1.76-.37,3.43-.6,5.02-.22,1.59-.54,3.27-.94,5.02.06.09.07.15.02.2-.05.05-.02.12.08.21ZM412.27,98.74l-.13.09v-.06s.13-.04.13-.04ZM414.56,100.08h-.06s.03-.18.03-.18h.06s-.03.18-.03.18Z"/>
          <path d="M468.61,103.81c-.17.09-.25.21-.26.36,0,.15-.06.33-.17.54-.26-.04-.45.08-.57.36-.02.11-.01.19.02.23-.2.04-.41.08-.64.09-.23.02-.4.13-.51.34-1.66.15-3.28.31-4.89.48-1.6.17-3.23.3-4.87.37-1.72.06-3.44.02-5.16-.11-1.72-.13-3.42-.18-5.1-.15-.68,0-1.35-.01-2.01-.05-.66-.03-1.33-.14-2.02-.33.12-.02.22-.02.31,0s.18,0,.27-.07c-.16-.41-.49-.61-.98-.62.12-.06.19-.14.21-.25s.01-.21,0-.29c-.03-.08-.02-.13.02-.14.04-.01.07-.06.08-.13l-.03-.52c.13-.58.22-1.2.27-1.83.05-.64.17-1.2.36-1.7.01-.07.06-.16.16-.26.09-.1.11-.19.05-.28l-.11-.02c.2-.04.35-.15.45-.32-.05-.16-.09-.33-.12-.5-.03-.18,0-.33.1-.47.69-.3,1.41-.5,2.14-.59.73-.09,1.46-.21,2.16-.36.12-.02.22-.02.31,0s.18,0,.27-.07c0-1.33.07-2.65.22-3.97.16-1.32.34-2.64.53-3.95.2-1.31.39-2.64.59-3.97.2-1.33.33-2.68.4-4.03l-.1-.07c-.12.06-.24.08-.36.08-.11,0-.21.01-.29.04-.11,1.12-.27,2.26-.48,3.42-.21,1.16-.39,2.32-.54,3.47.02.08.02.27,0,.57-.03.3-.05.62-.07.96-.02.34-.03.66-.04.96-.01.3,0,.49.02.57-.19-.22-.29-.58-.31-1.07-.01-.49.01-1.01.08-1.55.07-.54.15-1.06.25-1.55.1-.5.15-.88.16-1.14l.04-.56.11-1.01c.18-.62.27-1.14.29-1.57.01-.43.12-.92.32-1.45-.89.12-1.81.16-2.75.12-.94-.04-1.87-.02-2.8.05l-.66-.16c.01-.07-.02-.12-.09-.13-.18-.07-.4-.08-.67-.05-.27.03-.44-.07-.52-.31-.06-.09-.14-.17-.24-.27-.1-.09-.18-.18-.24-.27.33-.4.45-.84.36-1.31-.09-.47-.07-.9.07-1.3-.08-.43-.03-.87.16-1.31.19-.44.39-.86.6-1.24,0-.19.05-.33.18-.43.13-.09.24-.22.35-.4.16-.5.48-.78.96-.81.48-.04.92-.11,1.32-.24,1.53-.28,3.07-.52,4.64-.72,1.57-.2,3.11-.42,4.63-.66.97-.14,1.94-.24,2.89-.29.96-.05,1.93-.07,2.91-.06.2.15.43.22.67.22.25,0,.5,0,.77.01.26,0,.5.05.72.12.22.07.4.24.55.49.19,0,.34.05.46.16.11.11.24.22.37.32l1.2-.03c.04.2.2.39.47.59.03.31.02.59-.03.85s.07.49.34.68c.28.12.59.24.91.35.32.11.53.33.63.64.03.27-.03.5-.2.68-.16.18-.34.34-.53.48s-.38.29-.56.45c-.18.16-.29.37-.33.63-1.02.44-2.06.8-3.11,1.08-1.05.28-2.15.44-3.29.48l-.07.1c-.06,1.96-.16,3.87-.31,5.72-.15,1.85-.29,3.72-.4,5.6-.14.13-.17.25-.11.35.06.1.06.23,0,.37-.13.78-.2,1.55-.21,2.33-.01.78-.03,1.54-.04,2.3.64.03,1.31.05,2.01.07.7.02,1.37.04,2.01.07.1.06.25.06.42.01.18-.05.31.01.4.18l1.07.06c-.27.03-.54.02-.82-.02s-.55-.05-.82-.02c-.57.02-1.13,0-1.67-.05-.54-.05-1.09,0-1.64.13.25.12.5.16.78.13.27-.03.51-.01.73.06.9.07,1.84.14,2.81.2.98.07,1.94.18,2.9.33-.04.03-.05.05,0,.06.02.08.08.12.18.11.09,0,.18.02.24.07.02.12-.01.25-.09.38-.08.14-.03.24.15.31l.33.05c-.19.23-.18.39.04.46.23-.04.4.02.49.16.09.15.25.2.49.16.02.12.05.24.08.36.04.12.07.24.08.36-.09.06-.18.08-.3.07s-.18.05-.2.19,0,.26.06.35v-.06s.18.03.18.03v.06s-.11.02-.19.08c-.03.19,0,.33.1.44.1.11.19.25.27.41.34-.02.51.1.51.37-.02.11-.07.24-.15.4-.08.16-.06.32.06.49-.01.07-.06.14-.15.2-.09.06-.06.14.07.24Z"/>
          <path d="M501.91,107.56c-.12.74-.27,1.47-.45,2.2-.18.73-.36,1.46-.56,2.18-.18.62-.42,1.15-.72,1.59-.3.44-.59.91-.85,1.4-.11-.02-.21-.05-.3-.11-.09-.05-.17-.07-.25-.04-.11-.02-.22.04-.31.18-.19-.03-.28,0-.29.07l-.05.28c.02-.11-.01-.17-.08-.18l-.11-.02c-.06.1-.15.15-.28.13s-.19.04-.17.2h-.06s-.07-.01-.09,0c-.02.02-.05.02-.09.01l-.02.11c-.18-.07-.25-.18-.23-.35s-.05-.28-.23-.35c-.03-.04-.1-.07-.21-.09l-.21-.09c-.03.18-.12.25-.26.19-.14-.06-.26-.02-.36.11h-.06c-.22-.05-.36.08-.41.38-.07-.05-.1-.13-.1-.24,0-.11-.03-.2-.1-.24-.19-.03-.27,0-.24.1.02.1.02.2,0,.31s-.06.12-.12.04c.02-.15-.04-.23-.19-.26-.07-.01-.15,0-.23.02-.08.02-.16.03-.23.02-.08.02-.16.06-.24.1-.08.04-.16.06-.24.05s-.18-.1-.33-.25c-.15-.16-.25-.26-.32-.31-.04,0-.1.06-.2.19-.04-.2-.14-.34-.27-.41-.14-.08-.19-.21-.16-.4,0-.04-.01-.04-.06,0l-.17-.03-.17.37c-.05-.16-.09-.32-.12-.47-.03-.16-.09-.3-.19-.43.01-.07-.02-.12-.09-.13h-.06s-.06.04-.06.04h.06c-.15-.02-.24.08-.28.31-.8-.89-1.61-1.78-2.41-2.67-.8-.89-1.5-1.86-2.09-2.9l-1.86-3.21.02-.11c.01-.07-.03-.17-.13-.28-.1-.11-.17-.21-.24-.29-.95-1.6-1.89-3.2-2.8-4.81-.91-1.61-1.78-3.24-2.61-4.89-.04.22-.01.43.07.64.08.2.16.41.24.61l-.4-.69c-.14,1.31-.22,2.61-.24,3.91-.02,1.3-.14,2.6-.35,3.9-.09.55-.21,1.1-.36,1.65-.15.55-.35,1.06-.62,1.55-.26-.04-.41.06-.45.3s-.16.38-.35.43l-.74,1.41-.3.07v-.06c.02-.07.05-.15.11-.24.05-.09.08-.17.1-.24.02-.11-.05-.18-.19-.2l-.08.16c-.06-.12-.13-.15-.21-.09-.19-.03-.3.1-.35.4s-.19.46-.42.5l-.1.27c-.06-.09-.15-.14-.26-.16-.15-.02-.41.04-.8.18-.38.15-.66.24-.82.29,0,.04-.05.09-.14.15-.11-.02-.14-.08-.08-.18-.07-.01-.16-.03-.24-.07-.09-.03-.17-.06-.24-.07-.11-.02-.21.02-.3.12-.07-.05-.13-.11-.17-.17s-.1-.12-.17-.17c-.08.03-.17.11-.27.24-.15.01-.19-.09-.12-.3.07-.22.04-.34-.11-.36l-.11-.02-.04.22c-.06-.09-.1-.19-.12-.3-.02-.12-.09-.15-.21-.09-.06-.31-.06-.64.02-.96.07-.33.13-.64.18-.94.02-.15.04-.28.04-.39,0-.11,0-.25-.02-.4.17-2.21.32-4.41.46-6.61.13-2.2.38-4.4.74-6.62.24-1.44.51-2.88.82-4.3.31-1.43.63-2.84.98-4.22.18.07.33-.15.45-.64.12-.49.25-.82.39-.99.19,0,.29-.09.29-.24,0-.15.03-.26.08-.33l.02-.11c.02-.11.06-.22.14-.32.07-.1.1-.21.08-.33.09-.06.13-.11.14-.15l-.05-.06c.15-.24.35-.44.58-.59.23-.15.44-.34.64-.58-.02-.12.04-.17.17-.17.13,0,.17-.08.12-.24l.03-.17c.02-.11.08-.2.18-.25.1-.06.2-.12.29-.18.07.05.09.1.06.15-.03.05,0,.07.08.04l.07-.1c.01-.07,0-.16-.04-.26-.04-.1-.05-.19-.04-.26v-.06c.07.09.1.19.1.3,0,.11.06.18.17.2l.07-.1.17.03c.15.02.22.1.22.23,0,.13.05.21.16.23l.16.08.04-.22c.01-.07,0-.13-.03-.18-.03-.04-.04-.1-.03-.18.06.09.09.2.09.33,0,.13.06.25.2.35l.03-.17c.01-.07,0-.13-.03-.18-.03-.04-.04-.1-.03-.18l.39.75.07-.1c.38.25.65.56.81.93.17.37.36.72.57,1.06,0,.26.11.44.34.51.23.08.44.17.61.27,1.02,1.15,1.95,2.42,2.77,3.78.82,1.37,1.61,2.74,2.37,4.11,1.12,1.97,2.24,3.91,3.37,5.84,1.13,1.93,2.33,3.85,3.61,5.77.07.05.1.02.1-.1,0-.11.02-.2.07-.27-.04-.2-.3-.71-.77-1.55-.96-1.52-1.89-3.02-2.79-4.5-.12-.21-.22-.37-.29-.47-.08-.11-.15-.2-.21-.29-.67-1.21-1.35-2.4-2.03-3.58-.68-1.17-1.38-2.35-2.1-3.53l-.22-.38c-.21-.34-.42-.67-.64-.99-.21-.32-.43-.63-.64-.93l-.56-.77.51.71c.25.34.48.69.69,1.02.21.34.44.68.69,1.02.84,1.35,1.64,2.72,2.4,4.09.76,1.38,1.54,2.74,2.35,4.08.32.58.76,1.3,1.33,2.15.56.85,1.05,1.63,1.47,2.35.15.25.31.5.48.73.17.24.33.46.49.68l.16-.26c.08-.94.17-1.86.28-2.77.11-.91.21-1.83.28-2.77-.19-.03-.27-.12-.27-.27,0-.15,0-.28-.02-.4l.22-3.09-.09-.13c.1-1.31.09-2.61-.04-3.9-.13-1.29-.28-2.6-.44-3.91l.03-.17c.02-.11,0-.28-.03-.52.12-.06.19-.12.2-.19.02-.11,0-.28-.03-.52.08-.02.12,0,.13.05,0,.06.01.11,0,.14.05-.07.07-.16.07-.27,0-.11,0-.21.02-.28.06-.37.22-.52.47-.46.26.06.51.11.77.15.11.02.22.03.34.03.11,0,.25-.02.41-.08.09.13.21.21.36.23.18.03.37.02.57-.02.2-.04.39-.05.57-.02.06.09.13.13.21.12.08,0,.17-.02.29-.04.07.01.1.06.09.13.32-.1.57-.13.76-.1.3.05.43.14.41.27s.02.2.13.22c.03-.18.11-.27.24-.25l.36.06c.18.03.32.02.41-.05.25.12.43.3.54.54.11.25.21.47.29.67.74,1.75,1.2,3.51,1.39,5.26.19,1.76.28,3.56.28,5.42-.13.09-.21.23-.24.42s-.04.35-.03.51c.01.15,0,.32-.03.51-.07.44-.1,1.1-.1,1.98,0,.87,0,1.58,0,2.1-.05,1.43-.11,2.85-.18,4.24-.08,1.39-.23,2.79-.46,4.19ZM493.67,84.93c-.04-.23-.08-.47-.11-.7-.04-.23-.08-.47-.11-.7l-.05-.06v-.06s.06.06.06.06c.07.24.12.48.14.73.02.25.04.49.08.72Z"/>
          <path d="M533.36,89.89c-.26-.04-.44.05-.53.28-.1.23-.24.39-.45.47l.1.07c-.65.05-1.25.15-1.79.31-.54.16-1.15.24-1.83.24-.48.15-.97.32-1.48.5-.5.18-1.03.32-1.58.42-1.21.22-2.39.38-3.55.47-1.15.1-2.38.07-3.69-.06l-.13.09c-.07.44-.16.88-.27,1.32-.11.44-.16.87-.15,1.28.57-.02,1.18.02,1.83.13s1.26.23,1.85.36c-.52-.05-1.14-.13-1.84-.24s-1.35-.13-1.93-.03c0,.04.02.1.08.18.98.05,1.9.15,2.77.31.86.16,1.78.32,2.74.48l1.23.49c.02.08.06.17.1.27.04.1.12.12.24.07.05.16.04.31-.02.45-.06.14-.04.26.06.35h.34s-.04.09-.11.15c-.07.07-.05.14.05.24l.26.16c-.09.06-.16.16-.22.31-.06.14-.07.29-.02.45.04.2.14.26.28.19.14-.07.23-.05.24.07-.09.06-.2.11-.34.14-.14.03-.18.13-.13.29,0,.19.08.32.22.38.14.06.16.18.06.35.02.08.02.16,0,.23-.03.07,0,.13.11.19l.17.03c-.05.07-.1.15-.16.26-.06.1-.07.2-.05.28.03.04.06.07.07.07s.04.03.07.07c-.1.14-.23.26-.4.36-.17.11-.21.26-.13.46-.06.1-.11.16-.17.17-.06,0-.11.05-.16.12l.36.57-1,.52c.09.13.04.22-.16.26.13.13.29.22.47.25s.33.09.43.18c-.01.07-.06.12-.14.15-.08.03-.16.05-.24.07-.33-.05-.65-.05-.94.02-.3.07-.59.14-.89.22-.3.08-.59.14-.88.17-.29.03-.6,0-.92-.09-.71-.04-1.43-.14-2.14-.29-.71-.15-1.43-.25-2.14-.29l-.18.08-.25,1.89c1.14.22,2.21.57,3.22,1.04,1,.47,2.07.85,3.2,1.15-1.14-.22-2.2-.57-3.19-1.03-.99-.46-2.08-.76-3.27-.88-.08.03-.12.07-.11.12,0,.06.01.11,0,.14,1.01.32,2.02.65,3.02,1.01,1,.35,1.95.81,2.85,1.38.23-.04.37.02.43.18.05.16.1.28.17.37-.02.11-.06.22-.11.32-.06.1-.03.2.07.3.11.02.19.01.23-.02l-.39.28c.06.09.15.13.26.13.11,0,.18.06.2.17.19,0,.29.06.31.19.02.14.05.25.12.33-.1.14-.12.24-.08.3.05.06.1.13.17.2.06.07.12.14.16.23.04.08.02.19-.08.33-.14.17-.3.2-.47.09-.17-.1-.33-.09-.46.04-.12.06-.16.12-.11.18.05.06.03.13-.06.19l.12-.04c-.12.28-.16.61-.1.98.05.37-.14.61-.57.73.08.2.03.39-.15.57-.18.18-.14.37.14.56.05.16,0,.28-.14.35-.14.07-.26.14-.35.2-.17-.1-.28-.14-.32-.11-.1.17-.16.28-.17.31.06.09.13.17.21.26.08.09.06.18-.07.27.21.11.36.23.45.36-.44.12-.88.11-1.33-.02-.45-.13-.9-.12-1.34.04-.76-.01-1.44-.19-2.05-.53-.61-.35-1.27-.62-2-.81-1.15-.34-2.34-.64-3.56-.9-1.22-.26-2.25-.81-3.09-1.67l.07-.1c0-.26-.09-.48-.29-.65-.2-.16-.28-.38-.23-.64-.18-.07-.24-.18-.2-.35.05-.16-.04-.28-.25-.35-.21-.11-.38-.1-.51.03.03-.18-.04-.33-.21-.43-.31.03-.46-.08-.46-.3.05-.1.01-.21-.12-.3-.03-.04-.11-.02-.24.07l.02.23c-.11-.7-.08-1.4.11-2.09.19-.69.25-1.42.19-2.19.41-2.25.75-4.48,1.04-6.69.29-2.21.63-4.44,1.04-6.69.08-.52.23-1.04.43-1.58.2-.54.38-1.08.55-1.62-.01-.15-.09-.25-.24-.29-.14-.04-.2-.16-.17-.34-.04-.2,0-.3.14-.32.13-.02.23-.09.29-.24.13-.36.24-.74.33-1.14.08-.4.26-.73.53-.99.07-.22.09-.46.06-.73-.03-.27.08-.48.33-.63-.08-.2-.07-.36.02-.48.09-.12.2-.23.31-.35.11-.11.19-.23.23-.36.04-.13-.04-.28-.23-.47.17-.12.17-.26,0-.4-.17-.14-.11-.26.17-.37.43-.35.9-.55,1.4-.62.5-.07,1.01-.09,1.54-.06.52.03,1.04.08,1.56.14.52.07,1.02.08,1.52.05,1.46-.14,2.89-.11,4.29.11,1.4.21,2.82.34,4.26.38l.02-.11.32.11c.16-.05.31-.08.44-.1.13-.02.3-.03.49-.03.17.1.34.12.5.05.16-.07.34-.09.52-.06.02.08-.02.16-.12.24-.11.08-.09.17.04.26.62-.09,1.23-.07,1.81.04.59.12,1.18.18,1.79.21.06.09.14.12.24.1.1-.02.18.01.24.1-.16.28-.22.51-.17.71.09.13.23.21.42.24,0,.04-.02.05-.04.05s-.03.03-.05.11c.17.1.37.14.58.1.21-.04.43,0,.64.1-.1.17-.19.29-.26.36-.07.07-.15.18-.26.36-.18.2-.24.4-.16.6.04.2.15.27.33.23.18-.05.34-.04.48.02.04.2.11.34.21.43-.04.03-.11.09-.2.17-.09.08-.12.16-.1.24.07.05.07.1,0,.14s-.07.11,0,.2l.25.21-.13.09.21.09c-.05.07-.16.16-.33.29-.17.12-.14.26.1.42-.07-.01-.12,0-.15.03-.03.03-.08.06-.16.09-.02.11.01.2.1.27.08.07.16.15.22.23ZM517.94,93l.04-.22h-.06s-.04.21-.04.21h.06ZM517.84,93.61l.04-.22h-.06s-.04.21-.04.21h.06ZM517.77,94.05l.04-.22h-.06s-.04.21-.04.21h.06ZM516.21,107.05l-.24.07c-.05.07,0,.11.15.14.02-.11.05-.18.09-.21ZM516.21,106.71c-.04-.23-.03-.42.04-.56.06-.14.07-.31.03-.51l-.17,1.05.11.02ZM523.09,95.95l-.5-.08.51.03v.06Z"/>
          <path d="M218.33,120.64l-.07.1c-.06-.09-.15-.18-.27-.27-.12-.09-.27-.12-.47-.08-.02.15-.09.2-.2.17-.11-.04-.21-.02-.29.04l-.61.58c-.35.06-.68.12-1,.18-.31.06-.65.12-1,.18-.07-.01-.14-.06-.2-.15-.06-.09-.14-.1-.22-.04-.01.07-.03.15-.06.22-.03.07-.05.14-.06.22-.07-.01-.18.03-.33.12-.15.09-.26.03-.34-.17l-.18.03-.02.11c.06.09.1.11.1.07v.06c-.18-.1-.32-.15-.41-.15-.1,0-.24,0-.43.02l-.02.11c-.14-.1-.27-.21-.4-.32-.13-.12-.25-.09-.36.08,0,.19.08.34.21.46.13.12.25.24.34.37-.41.16-.83.1-1.28-.18-.45-.28-.86-.55-1.23-.8-1.11-1.09-1.98-2.01-2.59-2.76-.62-.75-1.18-1.44-1.68-2.1-.5-.65-1.07-1.3-1.7-1.96-.63-.65-1.56-1.44-2.77-2.36-.35,2.37-.75,4.8-1.19,7.29-.45,2.49-1.11,4.8-1.99,6.93-.1.17-.26.3-.46.38-.2.08-.39.18-.56.31-.27-.23-.58-.37-.93-.41-.35-.04-.6-.24-.73-.6-.38-.25-.77-.39-1.18-.42-.41-.03-.83-.04-1.25-.03-.28-.12-.57-.12-.85,0-.29.12-.57.24-.85.34-.15-.02-.25-.08-.31-.17-.06-.09-.1-.19-.12-.3-.02-.12-.06-.21-.13-.28-.07-.07-.17-.1-.33-.08-.2-.15-.31-.36-.32-.62-.01-.27-.16-.44-.45-.53,0-.19-.01-.4-.01-.63,0-.23-.08-.41-.25-.55-.1-1.23-.11-2.48-.01-3.76.09-1.27.21-2.56.35-3.87-.15-.25-.19-.52-.12-.82.07-.29-.01-.57-.23-.83v-1.76c-.14-.25-.16-.53-.03-.83.12-.3.12-.6-.03-.89.03-1.1.13-2.21.32-3.33s.39-2.27.62-3.43c.23-1.16.44-2.31.65-3.45.21-1.14.32-2.24.34-3.3,0-1.21.12-2.42.34-3.62.21-1.2.34-2.38.38-3.55l.36-2.19c.12-.72.41-1.36.89-1.93l.17.03c.21-.38.49-.53.84-.43.34.09.67.13.98.1.23,0,.32-.08.27-.24v-.06c.02-.07.02-.16,0-.26-.02-.1,0-.2.05-.3.06.09.08.17.04.26-.03.09-.06.19-.08.3h.06c-.02.12.05.17.2.16.09-.06.13-.11.14-.15v.06c-.03.15.02.18.15.08.09-.06.14-.13.15-.2.12-.25.26-.4.42-.47.16-.07.31-.24.43-.53.2-.04.27.05.21.29-.06.24,0,.35.2.35.23-.04.42-.13.56-.28.14-.15.26-.31.36-.48-.03.19-.01.3.06.35,0,.04,0,.06.05.06s.06,0,.06-.05c.09-.06.16-.16.22-.31.06-.14.18-.16.35-.06-.02.11,0,.19.07.24.04,0,.08,0,.12-.04.06.12.06.26.02.4-.04.14,0,.25.15.31.18-.2.29-.35.3-.46l.03-.17c-.01.07,0,.13.03.18-.02.11,0,.21.07.3.34-.02.55-.21.61-.58.06.09.08.22.05.41s.05.29.23.32c.1-.36.38-.56.84-.6v.06c.05.09.1.13.14.14.2-.04.27-.15.22-.31l.07.3c-.35.74-.44,1.5-.26,2.29.17.79.19,1.59.06,2.4.08.2.1.42.06.66l-.11.69c.05.88.03,1.66-.04,2.35-.08.69-.13,1.36-.16,2.02-.03.66-.03,1.33.01,2.02.04.69.16,1.45.37,2.28,1.22-.94,2.49-1.98,3.81-3.13s2.63-2.34,3.91-3.57c1.28-1.23,2.53-2.46,3.73-3.68,1.21-1.22,2.3-2.4,3.28-3.53.14-.17.28-.45.42-.84.03.27.17.34.42.21.25-.13.45-.11.61.07.01.15.07.27.17.34s.23.09.39.04c.01.15.07.19.18.11.11-.08.19-.04.24.12.28.16.48.4.62.73.14.33.38.46.73.4.33,1,.54,2.03.63,3.09.09,1.06-.05,2.13-.41,3.2-.34.93-.69,1.81-1.06,2.64-.36.83-.82,1.64-1.36,2.42-.23,0-.33.1-.3.29.03.19-.05.33-.21.42-.31.29-.57.61-.78.95-.21.35-.45.68-.74,1.02-.12.06-.25.09-.39.11-.14.02-.22.12-.25.3-.05.33-.24.61-.57.85-.32.23-.61.42-.86.57,0,.19-.05.33-.16.43-.11.1-.23.17-.35.23-.12.06-.25.12-.37.19-.13.07-.2.2-.23.39-.06.14-.16.24-.3.29-.14.05-.27.1-.39.13s-.21.09-.28.15c-.07.07-.08.21-.04.45-.12.06-.28.17-.48.35-.2.18-.4.36-.6.56-.2.19-.41.37-.63.52-.22.15-.38.24-.5.26-.06.14.14.64.61,1.49.47.85,1.02,1.8,1.67,2.83.65,1.04,1.28,2.03,1.9,2.99.62.96,1.04,1.6,1.25,1.94.08.2.29.58.64,1.13.35.55.71,1.11,1.09,1.69.38.57.76,1.11,1.13,1.61.37.5.63.81.76.95Z"/>
          <path d="M247.16,127.81c-.17.09-.25.21-.26.36,0,.15-.06.33-.17.54-.26-.04-.45.08-.57.36-.02.11-.01.19.02.23-.2.04-.41.08-.64.09-.23.02-.4.13-.51.34-1.66.15-3.28.31-4.89.48-1.6.17-3.23.3-4.87.37-1.72.06-3.44.02-5.16-.11-1.72-.13-3.42-.18-5.1-.15-.68,0-1.35-.01-2.01-.05-.66-.03-1.33-.14-2.02-.33.12-.02.22-.02.31,0s.18,0,.27-.07c-.16-.41-.49-.61-.98-.62.12-.06.19-.14.21-.25s.01-.21-.01-.29c-.03-.08-.02-.13.02-.14.04-.01.07-.06.08-.13l-.03-.52c.13-.58.22-1.2.27-1.83.05-.64.17-1.2.36-1.7.01-.07.06-.16.16-.26.09-.1.11-.19.05-.28l-.11-.02c.2-.04.35-.15.45-.32-.05-.16-.09-.33-.12-.5s0-.33.1-.47c.69-.3,1.41-.5,2.14-.59.73-.09,1.46-.21,2.16-.36.12-.02.22-.02.31,0s.18,0,.27-.07c0-1.33.06-2.65.22-3.97.16-1.32.34-2.64.53-3.95.2-1.31.39-2.64.59-3.97.2-1.33.33-2.68.4-4.03l-.1-.07c-.12.06-.24.08-.36.08-.11,0-.21.01-.29.04-.11,1.12-.27,2.26-.48,3.42-.21,1.16-.39,2.32-.54,3.47.02.08.02.27,0,.57-.03.3-.05.62-.07.96-.02.34-.03.66-.04.96-.01.3,0,.49.02.57-.19-.22-.29-.58-.31-1.07-.01-.49.01-1.01.08-1.55.07-.54.15-1.06.25-1.55.1-.5.15-.88.16-1.14l.04-.56.11-1.01c.18-.62.27-1.14.29-1.57.01-.43.12-.92.32-1.45-.89.12-1.81.16-2.75.12-.94-.04-1.87-.02-2.8.05l-.66-.16c.01-.07-.02-.12-.09-.13-.18-.07-.4-.08-.67-.05-.27.03-.44-.07-.52-.31-.06-.09-.14-.17-.24-.27-.1-.09-.18-.18-.24-.27.33-.4.45-.84.36-1.31-.09-.47-.07-.9.07-1.3-.08-.43-.03-.87.16-1.31.19-.44.39-.86.6-1.24,0-.19.05-.33.18-.43.13-.09.24-.22.35-.4.16-.5.48-.78.96-.81.48-.04.92-.11,1.32-.24,1.53-.28,3.07-.52,4.64-.72,1.57-.2,3.11-.42,4.63-.66.97-.14,1.94-.24,2.89-.29.96-.05,1.93-.07,2.91-.06.2.15.43.22.67.22.25,0,.5,0,.77.01.26,0,.5.05.72.12.22.07.4.24.55.49.19,0,.34.05.46.16.11.11.24.22.37.32l1.2-.03c.04.2.2.39.47.59.03.31.02.59-.03.85s.07.49.34.68c.28.12.59.24.91.35.32.11.53.33.63.64.03.27-.03.5-.2.68-.16.18-.34.34-.53.48s-.38.29-.56.45c-.18.16-.29.37-.33.63-1.02.44-2.06.8-3.11,1.08-1.05.28-2.15.44-3.29.48l-.07.1c-.06,1.96-.16,3.87-.31,5.72-.15,1.85-.29,3.72-.4,5.6-.13.13-.17.25-.11.35.06.1.06.23,0,.37-.13.78-.2,1.55-.21,2.33-.01.78-.02,1.54-.04,2.3.64.03,1.31.05,2.01.07.7.02,1.37.04,2.01.07.1.06.25.06.42.01.18-.05.31.01.4.18l1.07.06c-.27.03-.54.02-.82-.02s-.55-.05-.82-.02c-.57.02-1.13,0-1.67-.05-.54-.05-1.09,0-1.64.13.25.12.5.16.78.13.27-.03.51-.01.73.06.9.07,1.84.14,2.81.2.98.07,1.94.18,2.9.33-.04.03-.05.05,0,.06.02.08.08.12.18.11.09,0,.18.02.24.07.02.12-.01.25-.09.38-.08.14-.03.24.15.31l.33.05c-.19.23-.18.39.04.46.23-.04.4.02.49.16.09.15.25.2.49.16.02.12.05.24.08.36.04.12.06.24.08.36-.09.06-.18.08-.3.07s-.18.05-.2.19,0,.26.06.35v-.06s.18.03.18.03v.06s-.11.02-.19.08c-.03.19,0,.33.1.44.1.11.19.25.27.41.34-.02.51.1.51.37-.02.11-.07.24-.15.4-.08.16-.06.32.06.49-.01.07-.06.14-.15.2-.09.06-.06.14.07.24Z"/>
          <path d="M268.15,129.2c-.09.06-.2.08-.35.06s-.24.06-.27.24c.07.05-.01.08-.24.1-.23.02-.31.02-.23,0-.08.03-.16.03-.23.02s-.1.04-.08.16c.13.13.11.25-.05.33-.17.09-.14.17.07.24-.11-.02-.3,0-.55.08-.26.07-.42.1-.5.09-.02.11,0,.19.07.24.07.01.13.01.17,0,.04-.01.1-.01.17,0l.02.23c-.06-.09-.12-.1-.16-.05-.05.05-.08.11-.09.18-.09.06-.09.1-.02.11s.13.04.16.08l.17.03c-.2.04-.39.06-.58.05-.19-.01-.37.04-.54.17-.12.25-.05.38.19.4.24.02.38.05.41.1-.04,0-.07,0-.09.04-.03.03-.07.04-.15.03.06.09.13.13.2.15h.06s-.06,0-.06,0h-.06c-.2.04-.3.08-.3.11.14.33.12.65-.04.96l-.17.31c-.44.12-.87.24-1.31.35-.44.12-.88.18-1.34.18l-.36.11c-1.81-.07-3.63-.17-5.47-.3-1.84-.13-3.55-.69-5.13-1.67-.44-.07-.82-.25-1.14-.53-.32-.28-.66-.54-1.04-.8-.02-.12.03-.2.16-.26.12-.06.23-.11.31-.18l.28.05c.03-.18-.01-.32-.13-.42-.12-.09-.22-.21-.31-.34.07.01.14.05.21.12.06.07.14.05.24-.05-.01-.15-.07-.29-.16-.4-.1-.11-.15-.24-.16-.4-.02-.12.04-.17.17-.17.13,0,.19-.07.18-.23-.06-.09-.18-.17-.36-.26-.18-.09-.33-.18-.47-.28-.36-.36-.54-.83-.54-1.4,0-.57.09-1.07.27-1.49-.16-.18-.19-.35-.08-.53.1-.17.15-.35.15-.55-.01-.61.09-1.16.3-1.66.21-.5.33-1.03.35-1.59.12-.25.15-.48.11-.69-.04-.21.03-.42.22-.62-.01-.38.03-.77.14-1.17.1-.4.26-.77.47-1.12,0-.04.14-.48.42-1.33.27-.85.57-1.76.91-2.75.33-.99.63-1.91.91-2.75.27-.85.41-1.29.42-1.33.1-.59.27-1.06.51-1.4.09-.55.24-1.1.44-1.64.2-.54.4-1.07.6-1.61.28-.79.59-1.57.93-2.35.34-.78.66-1.54.97-2.29.15-.24.28-.49.38-.73.1-.25.21-.52.33-.8.14.06.28.12.43.18.14.06.24.15.3.28.14-.13.21-.29.22-.48.01-.19.13-.3.37-.34.06.12.12.15.18.09.07-.06.11-.04.13.08.17-.12.31-.14.41-.05.12.17.25.24.39.21.14-.03.28-.09.42-.16.14-.07.29-.11.45-.13.15-.01.29.09.41.29.2-.08.41-.15.63-.21.22-.06.41-.04.59.07-.02.15.06.24.24.27.09-.1.17-.13.24-.1.07.03.14.08.2.15.06.07.14.13.23.18.09.05.18.03.27-.07.08.2.14.33.17.37l.28.05c.05-.07.07-.14.06-.22,0-.08.01-.15.06-.22.06.09.08.2.06.35s.05.27.22.38c.12-.02.15-.11.1-.27-.05-.16-.07-.28-.06-.35.05.16.07.28.06.35.06.12.18.28.38.46l.17.03c-.19,1.41-.61,3.21-1.25,5.4-.64,2.19-1.34,4.46-2.08,6.8-.74,2.34-1.44,4.61-2.08,6.8-.64,2.19-1.06,4.01-1.26,5.45.03.04.07.06.11.05.04-.01.09,0,.16.06-.29.14-.44.46-.44.95l.15.14c1.14-.04,2.31.08,3.5.37,1.18.29,2.36.49,3.51.6-.01.3.11.42.37.35.26-.07.47-.05.65.05-.15-.02-.23.04-.26.19l.09.13.06-.05.17.03-.12.04c-.07-.01-.11,0-.12.04l.08.18c-.07-.05-.13-.05-.17,0-.05.05-.07.09-.08.13-.02.15,0,.25.07.3,0,.04-.11.08-.3.12-.2.04-.22.16-.05.33.07.01.21.03.42.04.21.01.43.02.68.03.25,0,.48.01.71.03.22.02.37.03.45.04-.06.1-.22.15-.48.15-.26,0-.54-.01-.82-.02-.28,0-.54,0-.78.04-.23.04-.34.13-.33.29.07.05.23.11.48.19.25.08.52.14.79.19s.54.08.78.1c.24.02.42.04.53.06ZM266.42,126.93s-.08,0-.12.04l.12-.04Z"/>
          <path d="M289.55,132.7c-.09.06-.2.08-.35.06s-.24.06-.27.24c.07.05-.01.08-.24.1-.23.02-.31.02-.23,0-.08.03-.16.03-.23.02s-.1.04-.08.16c.13.13.11.25-.05.33-.17.09-.14.17.07.24-.11-.02-.3,0-.55.08-.26.07-.42.1-.5.09-.02.11,0,.19.07.24.07.01.13.01.17,0,.04-.01.1-.01.17,0l.02.23c-.06-.09-.12-.1-.16-.05-.05.05-.08.11-.09.18-.09.06-.09.1-.02.11s.13.04.16.08l.17.03c-.2.04-.39.06-.58.05-.19-.01-.37.04-.54.17-.12.25-.05.38.19.4.24.02.38.05.41.1-.04,0-.07,0-.09.04-.03.03-.07.04-.15.03.06.09.13.13.2.15h.06s-.06,0-.06,0h-.06c-.2.04-.3.08-.3.11.14.33.12.65-.04.96l-.17.31c-.44.12-.87.24-1.31.35-.44.12-.88.18-1.34.18l-.36.11c-1.81-.07-3.63-.17-5.47-.3-1.84-.13-3.55-.69-5.13-1.67-.44-.07-.82-.25-1.14-.53-.32-.28-.66-.54-1.04-.8-.02-.12.03-.2.16-.26.12-.06.23-.11.31-.18l.28.05c.03-.18-.01-.32-.13-.42-.12-.09-.22-.21-.31-.34.07.01.14.05.21.12.06.07.14.05.24-.05-.01-.15-.07-.29-.16-.4-.1-.11-.15-.24-.16-.4-.02-.12.04-.17.17-.17.13,0,.19-.07.18-.23-.06-.09-.18-.17-.36-.26-.18-.09-.33-.18-.47-.28-.36-.36-.54-.83-.54-1.4,0-.57.09-1.07.27-1.49-.16-.18-.19-.35-.08-.53.1-.17.15-.35.15-.55-.01-.61.09-1.16.3-1.66.21-.5.33-1.03.35-1.59.12-.25.15-.48.11-.69-.04-.21.03-.42.22-.62-.01-.38.03-.77.14-1.17.1-.4.26-.77.47-1.12,0-.04.14-.48.42-1.33.27-.85.57-1.76.91-2.75.33-.99.63-1.91.91-2.75.27-.85.41-1.29.42-1.33.1-.59.27-1.06.51-1.4.09-.55.24-1.1.44-1.64.2-.54.4-1.07.6-1.61.28-.79.59-1.57.93-2.35.34-.78.66-1.54.97-2.29.15-.24.28-.49.38-.73.1-.25.21-.52.33-.8.14.06.28.12.43.18.14.06.24.15.3.28.14-.13.21-.29.22-.48.01-.19.13-.3.37-.34.06.12.12.15.18.09.07-.06.11-.04.13.08.17-.12.31-.14.41-.05.12.17.25.24.39.21.14-.03.28-.09.42-.16.14-.07.29-.11.45-.13.15-.01.29.09.41.29.2-.08.41-.15.63-.21.22-.06.41-.04.59.07-.02.15.06.24.24.27.09-.1.17-.13.24-.1.07.03.14.08.2.15.06.07.14.13.23.18.09.05.18.03.27-.07.08.2.14.33.17.37l.28.05c.05-.07.07-.14.06-.22,0-.08.01-.15.06-.22.06.09.08.2.06.35s.05.27.22.38c.12-.02.15-.11.1-.27-.05-.16-.07-.28-.06-.35.05.16.07.28.06.35.06.12.18.28.38.46l.17.03c-.19,1.41-.61,3.21-1.25,5.4-.64,2.19-1.34,4.46-2.08,6.8-.74,2.34-1.44,4.61-2.08,6.8-.64,2.19-1.06,4.01-1.26,5.45.03.04.07.06.11.05.04-.01.09,0,.16.06-.29.14-.44.46-.44.95l.15.14c1.14-.04,2.31.08,3.5.37,1.18.29,2.36.49,3.51.6-.01.3.11.42.37.35.26-.07.47-.05.65.05-.15-.02-.23.04-.26.19l.09.13.06-.05.17.03-.12.04c-.07-.01-.11,0-.12.04l.08.18c-.07-.05-.13-.05-.17,0-.05.05-.07.09-.08.13-.02.15,0,.25.07.3,0,.04-.11.08-.3.12-.2.04-.22.16-.05.33.07.01.21.03.42.04.21.01.43.02.68.03.25,0,.48.01.71.03.22.02.37.03.45.04-.06.1-.22.15-.48.15-.26,0-.54-.01-.82-.02-.28,0-.54,0-.78.04-.23.04-.34.13-.33.29.07.05.23.11.48.19.25.08.52.14.79.19s.54.08.78.1c.24.02.42.04.53.06ZM287.82,130.43s-.08,0-.12.04l.12-.04Z"/>
          <path d="M307.56,134.4c.09.85.06,1.88-.08,3.09-.14,1.21-.54,2.52-1.18,3.93-.65,1.41-1.6,2.9-2.87,4.48-1.26,1.58-2.98,3.19-5.15,4.85-.28.07-.53.19-.77.36-.24.17-.46.34-.68.51-.22.17-.44.33-.67.46-.23.13-.49.18-.79.13l-.21-.43c-.05.07-.09.09-.12.06-.03-.03-.07-.02-.12,0,.11-.21.06-.34-.16-.4-.22-.06-.29-.19-.22-.41-.03-.31.05-.6.23-.87.18-.27.25-.57.23-.87-.06-.09-.13-.11-.22-.06-.08.04-.16.08-.24.1-.09.1-.17.1-.23.02l-.06-.35c-.28.1-.46.16-.54.17-.08,0-.13,0-.17,0s-.1.01-.18.06c-.08.04-.25.12-.49.23.13-.36.24-.61.32-.74.08-.14.16-.26.23-.36.07-.1.16-.22.26-.36.1-.14.21-.38.35-.74-.07-.05-.12-.1-.15-.14s-.09-.05-.17-.03c-.3.22-.49.34-.57.36-.08.02-.14.03-.18.03s-.1.01-.18.06c-.08.04-.3.19-.64.44.24-.34.41-.57.48-.69.08-.12.14-.21.19-.28.05-.07.12-.15.21-.25.09-.1.28-.3.55-.59l-.52.37c-.34.25-.57.42-.68.51-.11.1-.21.17-.29.24-.09.06-.19.13-.32.2-.13.07-.38.21-.75.42.29-.41.53-.73.7-.97.17-.24.35-.46.54-.68.19-.22.38-.44.59-.67.21-.23.49-.53.86-.88.31-.52.7-1.02,1.16-1.52.46-.49.89-1.01,1.28-1.55.81-1.69,1.05-3.32.72-4.89-.33-1.57-.85-2.99-1.55-4.27-.7-1.27-1.43-2.34-2.18-3.2-.75-.86-1.14-1.41-1.18-1.64-.01-.15-.03-.27-.06-.35-.03-.08-.07-.16-.13-.25-.34-1.19-.57-2.39-.69-3.58-.13-1.2-.09-2.42.12-3.68s.6-2.54,1.2-3.84c.59-1.31,1.46-2.64,2.59-4.01.75-.9,1.6-1.71,2.53-2.43.93-.72,1.85-1.4,2.75-2.05.75-.41,1.5-.73,2.26-.97.76-.24,1.52-.48,2.28-.74.07-.22.2-.36.38-.42.18-.06.34-.18.48-.35l.65.22c.23.19.48.35.74.49.26.14.57.2.91.18.02.08.08.11.16.08.08-.02.15-.01.22.04v.06c.09.09.19.12.29.08.1-.04.12.03.05.21.23.19.49.2.76.04.27-.16.48-.1.62.19.07.01.16.05.27.1.1.06.11.15,0,.29.12-.06.26-.02.41.1.15.12.28.09.38-.08.19.26.24.49.17.71-.07.22-.19.42-.36.62-.17.2-.34.4-.52.6-.18.2-.31.4-.39.62-.18.39-.43.87-.75,1.44-.32.57-1.06,1.28-2.22,2.11-.13.09-.29.15-.48.18-.19.03-.29.13-.28.32-.06.14-.18.27-.35.4-.17.12-.33.27-.47.44-.07-.01-.25.15-.53.48-.28.33-.59.81-.91,1.41-.33.61-.64,1.33-.92,2.15-.29.83-.45,1.73-.5,2.71.03.95.27,1.82.71,2.59.44.77.95,1.63,1.51,2.58.57.95,1.11,2.05,1.62,3.31.51,1.26.88,2.86,1.09,4.79Z"/>
          <path d="M348.96,117.85c-.1-.09-.22-.13-.35-.11-.14.02-.26.03-.38.05,0,.04.02.1.08.18h.06s-.07.11-.07.11c.12.21.2.37.26.5.05.16.07.28.06.35s-.11.1-.3.07c-.18.16-.27.25-.27.27s-.09.05-.24.1c-.05.07-.04.14.02.2.06.07.04.13-.09.18-.1-.09-.23-.08-.41.05.12.21.3.31.55.32.25,0,.39.12.43.35-.14-.1-.29-.08-.46.04l-.14.49c-.07-.01-.16-.03-.24-.07-.09-.03-.18,0-.27.1-.05.07,0,.12.14.17.14.04.08.08-.19.11l.08.18s-.06.03-.07.1c-.1-.05-.22-.09-.35-.11s-.24.02-.33.12c-.06.14-.07.25-.03.34.04.08.1.15.17.2.07.05.12.11.17.17.05.06.02.18-.09.36-.09.06-.18.12-.29.18-.11.06-.13.17-.08.33-.22-.07-.34-.03-.36.14s-.14.27-.34.31c-.04.26.06.45.31.56l.28.05c-.34.21-.7.33-1.08.36-.38.03-.78.02-1.19-.02-.41-.05-.81-.12-1.21-.23-.4-.1-.79-.15-1.17-.14-.94-.04-1.83-.11-2.67-.21-.84-.1-1.68-.2-2.54-.3l-.18.03c-.05.56-.13,1.08-.23,1.56-.1.48-.15.98-.16,1.51-.05.07-.1.17-.17.31.02.12,0,.24-.03.36-.04.13,0,.24.14.34.6.29,1.24.46,1.94.52.69.06,1.36.23,1.99.53.71.08,1.37.29,1.97.64.61.35,1.2.72,1.78,1.12l-.2.19c.19.22.32.37.38.46.06.09-.05.09-.34,0-.07.22-.12.42-.16.6-.02.15-.04.3-.05.45,0,.15,0,.27.03.35-.1-.05-.23-.09-.38-.12s-.26-.06-.32-.11l.07.24c-.07-.01-.14-.04-.18-.09-.05-.05-.12-.04-.2.02.05.16.17.27.37.32.2.05.32.19.36.43-.07-.01-.13-.05-.15-.11-.03-.06-.07-.06-.12,0l.16.42c-.08.03-.15.03-.2.02s-.13.02-.21.08c.09.13.19.24.29.33-.11-.02-.21-.03-.31-.02-.1,0-.18,0-.25-.01-.08.03-.09.08-.03.17h.06s0,.06,0,.06h-.06s0-.06,0-.06c-.01.07-.04.13-.08.16-.05.07-.05.12,0,.14.05.03.09.06.13.11l.26.5c-.18-.07-.29-.05-.32.06-.04.11-.12.21-.25.3.12.17.06.23-.2.17-.26-.06-.48.04-.68.32.06.09.09.15.08.18-.08.03-.15.03-.2.02s-.13.02-.21.08c.14.06.21.19.19.37-.01.19-.06.33-.16.43-.05.07-.09.16-.13.26-.04.11-.08.2-.13.26-.29.14-.58.17-.87.09-.29-.08-.59-.1-.9-.03-.64-.03-1.3-.11-1.98-.24-.68-.13-1.33-.28-1.94-.46-.25.57-.43,1.15-.54,1.76-.12.61-.21,1.1-.27,1.46l-.67,9.62c0,.19,0,.41-.02.65-.02.24-.1.47-.25.67,0,.42-.05.82-.17,1.2s-.24.76-.36,1.14-.2.76-.25,1.15c-.05.39-.02.78.06,1.18l-.16.26c.06-.14.02-.26-.11-.36-.04,0-.1.02-.18.08v.06c-.41-.1-.65-.35-.74-.75-.19,0-.28.1-.27.27,0,.17-.03.29-.11.35-.02-.34-.17-.58-.45-.7-.1.14-.15.24-.17.31l-.03.17.03-.17v-.06c-.04-.2-.12-.36-.25-.5-.12.06-.19.16-.19.31,0,.15-.05.28-.15.37l-.11-.02c-.09.06-.12.13-.09.21-.16.05-.26,0-.31-.17-.05-.16-.11-.28-.17-.37,0-.04-.01-.06-.05-.06s-.06,0-.06.05c-.09.06-.12.12-.11.18,0,.06-.01.12-.06.19-.11-.51-.34-.82-.7-.91-.18-.07-.27.02-.27.27,0,.25-.09.32-.26.21-.03-.27-.12-.46-.28-.56-.15-.1-.27-.29-.33-.57,0-.04-.04-.12-.13-.25-.07-.01-.12.04-.14.15-.06-.09-.09-.15-.08-.18-.25-.08-.36-.02-.31.18.04.2.02.34-.07.44-.05-.16-.02-.32.08-.47.1-.15.02-.27-.23-.35-.32-.13-.65-.17-1-.14-.35.04-.58-.16-.7-.6l-.18.03c-.31-.66-.46-1.36-.45-2.09,0-.74.03-1.48.08-2.23.11-.67.22-1.78.35-3.33.12-1.55.26-3.18.4-4.88.15-1.7.27-3.29.38-4.77.11-1.48.21-2.5.3-3.05.1-.63.24-1.53.41-2.69.17-1.17.39-2.42.64-3.76.26-1.34.54-2.67.85-3.99.31-1.31.65-2.43,1.03-3.36.06-.14.15-.26.26-.36.11-.1.14-.22.09-.38,0-.19.09-.3.28-.32.19-.03.19-.13,0-.31-.03-.08,0-.18.05-.3.06-.12.09-.22.11-.3.27-.03.43-.1.49-.2,0-.19-.05-.35-.12-.47-.07-.13-.08-.28-.01-.46.08-.02.17-.03.26-.01s.18-.03.28-.13c-.01-.15-.02-.28-.02-.37,0-.09.06-.17.18-.23.1-.14.19-.26.29-.38.09-.12.19-.23.28-.32.05-.1.06-.26.02-.45.09-.1.22-.15.4-.16.17,0,.24-.11.19-.31.68,0,1.33.09,1.95.26.62.18,1.25.26,1.89.25.76-.03,1.45.02,2.05.14.61.12,1.27.16,2,.13,1.3-.09,2.56,0,3.77.25,1.21.26,2.47.45,3.77.59v-.06c.52.12,1.04.28,1.58.48.54.2,1.02.49,1.45.86l-.3.07.24.27c-.09.06-.16.12-.23.16-.06.05-.13.12-.18.23l.11.02s0,.06-.06.05c.06.09.03.16-.09.21-.12.06-.24.19-.35.4.05.16.13.26.24.29.11.04.23.1.37.2Z"/>
          <path d="M372.91,150.62l-.23-.32c-.12.02-.19.1-.21.25-.01.07-.02.15,0,.23,0,.08,0,.15,0,.23-.02.15-.13.24-.33.29l-.06.39c.02-.15-.03-.27-.17-.37-.14-.1-.26-.17-.36-.23-.09.06-.12.16-.11.3.02.14.04.24.06.32l-.17-.03c-.07-.01-.14-.06-.2-.15-.06-.09-.12-.17-.19-.26-.06.1-.08.21-.08.33,0,.11,0,.23-.03.34v.06s-.12-.02-.12-.02c-.04,0-.05.03-.05.11,0,.08-.02.15-.06.22-.16.05-.25.15-.28.3-.02.11,0,.22.03.32.04.1.05.21.03.32v.06s-.53.37-.53.37c.04.2.11.37.2.52.09.15.16.32.2.52h-.06c-.03-.28-.11-.53-.25-.76-.13-.23-.28-.45-.43-.67-.11-.02-.17,0-.18.08s0,.15.02.23c-.14-.1-.25-.23-.33-.4-.09-.17-.22-.26-.41-.29-.05.07-.06.12-.03.17-.02.15.02.3.13.45s.17.32.17.51c-.07-.05-.12-.12-.17-.2-.04-.08-.12-.13-.23-.15l-.44-.47v-.06c-.07-.01-.12-.03-.15-.05-.03-.03-.09-.04-.16-.06-.12.06-.2.18-.23.36-.01.07,0,.19.06.35l-.26-.16-.12.04-.32.23c-.26-.27-.48-.46-.65-.56-.8-1.15-1.54-2.4-2.24-3.72-.23-.45-.43-.89-.61-1.3-.18-.41-.38-.84-.61-1.3l-.24.07c.4,1.24.94,2.42,1.61,3.54.67,1.12,1.42,2.18,2.24,3.18l-.28-.05c-.07-.01-.13,0-.18.03-.75-.77-1.44-1.8-2.08-3.1-.64-1.3-1.18-2.46-1.62-3.48-1.96.13-3.91.04-5.87-.28-.59-.1-1.17-.21-1.74-.34-.57-.13-1.12-.3-1.65-.5l-.17-.03c-.07-.01-.12.07-.12.24,0,.17-.02.29-.03.36-.1.59-.3,1.14-.61,1.64-.31.5-.55,1.02-.71,1.56-.07-.01-.13-.04-.16-.08-.11-.02-.19.04-.23.16-.04.13-.07.26-.1.41l-.04.22c-.01.07-.04.14-.09.21v-.06c.06-.07.1-.19.13-.38-.04-.23-.05-.41-.03-.52-.1-.09-.16-.21-.17-.34-.02-.14-.05-.26-.11-.39l-.07.1c-.07-.01-.12-.05-.13-.11,0-.06-.03-.09-.07-.1h-.06c-.19,0-.29.09-.3.25,0,.17-.1.22-.28.15-.08.02-.13.08-.14.18s-.07.09-.17,0l-.25.47-.03-.18-.23.02s-.04-.12-.02-.23l-.24.07s-.04-.12-.02-.23-.01-.17-.08-.18l-.11-.02c-.12.06-.19.18-.2.37-.01.19-.11.27-.29.24l-.06.05.05-.33c.02-.15-.04-.23-.19-.26-.07-.01-.11,0-.09.04.01.04-.02.09-.11.15-.03-.08-.03-.15-.02-.2s-.02-.09-.1-.1-.12-.06-.15-.14c-.03-.08-.05-.14-.08-.18l-.23.02c.02-.15,0-.25-.07-.3l-.18.08c.02-.11-.03-.19-.13-.25l-.14.15s-.02-.1-.08-.18c-.07-.01-.14.03-.19.11-.05.09-.12.16-.21.22v.06s-.06,0-.06,0c-.07-.01-.14-.04-.21-.09-.07-.05-.14-.08-.21-.09-.04,0-.1.02-.18.08-.19-.03-.28-.13-.29-.3-.01-.17-.09-.27-.24-.29-.14-.29-.22-.6-.25-.92-.02-.33,0-.64.04-.93.23-1.4.62-2.77,1.16-4.11.54-1.33,1.09-2.66,1.65-3.97l3.49-8.13c.29-.63.59-1.26.9-1.87.31-.61.61-1.22.89-1.82.49-1.13.91-2.26,1.26-3.38.35-1.12.91-2.16,1.68-3.14.18.03.29,0,.33-.12.04-.11.13-.17.29-.18l.25-.81c-.01.07.02.12.09.13.07-.18.15-.32.24-.42.09-.1.17-.22.23-.36.07.01.13,0,.18-.03.11.02.19-.02.24-.1.05-.09.14-.14.25-.16,0-.04.02-.09.06-.16.03-.07.05-.14.06-.22v-.06c0,.07,0,.11.05.12l.11.02c.14-.17.28-.21.42-.13.14.08.27-.02.39-.31,0-.04.03-.05.06-.05s.06.02.08.04c.02.02.06.04.13.05.04,0,.06,0,.06-.05.07.01.17,0,.29-.01.12-.02.15-.09.09-.21l.07-.1c.07.05.12.12.17.2.04.08.1.13.18.14l.12-.04c-.06-.09-.09-.17-.07-.24.02-.11.09-.19.21-.25.12-.06.16-.16.11-.32l.11.02s.1-.02.18-.08c.36.55.68,1.17.95,1.86.27.69.44,1.36.52,2.02l.3-.07c-.09-.39-.2-.77-.33-1.13-.13-.36-.26-.73-.39-1.09l.8,2.07-.17-.37c-.04.22.03.5.21.83l.02-.11s0-.07-.01-.09c-.02-.02-.02-.05-.01-.09l.09.47c.06.09.09.15.08.18l-.07-.3h-.06c-.09.05-.09.09-.02.1-.02.11,0,.21.07.3.18,1.24.38,2.46.62,3.66.24,1.2.51,2.39.81,3.57-.05.07-.05.12,0,.14.05.03.09.08.12.16.45,1.67,1.01,3.27,1.69,4.8.68,1.53,1.38,3.08,2.11,4.64.32.58.63,1.17.94,1.75.3.58.6,1.16.88,1.74-.02.15.01.27.11.36.1.09.18.2.23.32.25.57.48,1.16.71,1.77.22.61.42,1.21.59,1.8.19.22.26.47.22.75s0,.54.15.79l-.03.17c-.05.33.04.66.29.99.25.33.42.65.52.97.07.28.12.54.15.79.03.25.15.49.34.71ZM346.89,150.06l-.11.32-.33.29.44-.61ZM347.21,149.49l-.26.53.05-.33.2-.19ZM360.14,140.05l-2.61-7.31-.03.51-.04-.46c-.06.14-.25.51-.55,1.1-.31.6-.63,1.22-.96,1.86-.33.65-.64,1.24-.92,1.78-.28.54-.43.87-.45.98-.01.07.02.13.09.16.07.03.14.05.22.06-.33-.05-.54.06-.63.35-.09.29-.2.52-.34.68l6.21.28ZM360.38,138.9c-.07-.24-.25-.76-.54-1.57-.29-.81-.58-1.65-.89-2.54-.31-.88-.6-1.7-.88-2.45-.28-.75-.44-1.18-.5-1.3.04.23.17.74.41,1.52.23.78.51,1.6.82,2.47.31.87.63,1.68.94,2.43.31.75.53,1.23.65,1.44ZM357.65,134.41s-.01-.15-.06-.35c-.03-.08-.05-.18-.07-.3l.05-.28.08.92ZM361.14,117.97l-.08-.18h-.06s.08.18.08.18h.06ZM361.58,119.75c.01-.07-.04-.32-.16-.74-.12-.42-.21-.67-.27-.76l.41,1.66.02-.11v-.06ZM362.2,121.22s-.04-.1-.03-.18l-.04-.12v.06s-.02.06-.02.06c0,.04.02.1.08.18ZM360.94,140.36c-.04-.2-.12-.42-.23-.66-.11-.25-.25-.44-.42-.58.04.2.11.43.2.69.09.26.22.44.39.55h.06ZM364.74,153.61h-.06c.01-.08.01-.14,0-.18-.01-.04-.01-.1,0-.17.06.09.08.2.06.35Z"/>
          <path d="M389.53,147.83c.09.85.06,1.88-.08,3.09-.14,1.21-.54,2.52-1.18,3.93-.65,1.41-1.6,2.9-2.87,4.48-1.26,1.58-2.98,3.19-5.15,4.85-.28.07-.53.19-.77.36-.24.17-.46.34-.68.51-.22.17-.44.33-.67.46-.23.13-.49.18-.79.13l-.21-.43c-.05.07-.09.09-.12.06-.03-.03-.07-.02-.12,0,.11-.21.06-.34-.16-.4-.22-.06-.29-.19-.22-.41-.03-.31.05-.6.23-.87.18-.27.25-.57.23-.87-.06-.09-.13-.11-.22-.06-.08.04-.16.08-.24.1-.09.1-.17.1-.23.02l-.06-.35c-.28.1-.46.16-.54.17-.08,0-.13,0-.17,0s-.1.01-.18.06c-.08.04-.25.12-.49.23.13-.36.24-.61.32-.74.08-.14.16-.26.23-.36.07-.1.16-.22.26-.36.1-.14.21-.38.35-.74-.07-.05-.12-.1-.15-.14s-.09-.05-.17-.03c-.3.22-.49.34-.57.36-.08.02-.14.03-.18.03s-.1.01-.18.06c-.08.04-.3.19-.64.44.25-.34.41-.57.48-.69.08-.12.14-.21.19-.28.05-.07.12-.15.21-.25.09-.1.28-.3.55-.59l-.52.37c-.34.25-.57.42-.68.51-.11.1-.21.17-.29.24-.09.06-.19.13-.32.2-.13.07-.38.21-.75.42.29-.41.53-.73.7-.97.17-.24.35-.46.54-.68.19-.22.39-.44.59-.67.21-.23.49-.53.86-.88.31-.52.7-1.02,1.16-1.52.46-.49.89-1.01,1.28-1.55.81-1.69,1.05-3.32.72-4.89-.33-1.57-.85-2.99-1.55-4.27-.7-1.27-1.43-2.34-2.18-3.2-.75-.86-1.14-1.41-1.18-1.64-.01-.15-.03-.27-.06-.35-.03-.08-.07-.16-.13-.25-.34-1.19-.57-2.39-.69-3.58-.13-1.2-.09-2.42.12-3.68s.6-2.54,1.2-3.84c.59-1.31,1.46-2.64,2.59-4.01.75-.9,1.6-1.71,2.53-2.43.93-.72,1.85-1.4,2.75-2.05.75-.41,1.5-.73,2.26-.97.76-.24,1.52-.48,2.28-.74.07-.22.2-.36.38-.42.18-.06.34-.18.48-.35l.65.22c.23.19.48.35.74.49.26.14.57.2.91.18.02.08.08.11.16.08.08-.02.15-.01.22.04v.06c.09.09.19.12.29.08.1-.04.12.03.05.21.23.19.49.2.76.04.27-.16.48-.1.62.19.07.01.16.05.27.1.1.06.11.15.01.29.12-.06.26-.02.41.1.15.12.28.09.38-.08.19.26.24.49.17.71-.07.22-.19.42-.36.62-.17.2-.34.4-.52.6-.18.2-.31.4-.39.62-.18.39-.43.87-.75,1.44-.32.57-1.06,1.28-2.22,2.11-.13.09-.29.15-.48.18-.19.03-.29.13-.28.32-.06.14-.18.27-.35.4-.17.12-.33.27-.47.44-.07-.01-.25.15-.53.48-.28.33-.59.81-.91,1.41-.33.61-.64,1.33-.92,2.15-.29.83-.45,1.73-.5,2.71.03.95.27,1.82.71,2.59.44.77.95,1.63,1.51,2.58.57.95,1.11,2.05,1.62,3.31.51,1.26.88,2.86,1.09,4.79Z"/>
          <path d="M415.65,153.47c-.35.06-.77.05-1.25-.03s-.94-.06-1.38.06c-.05.07-.03.12.06.15.09.03.09.1,0,.2-.2.04-.37.06-.52.06-.15,0-.33.01-.52.06-.08.03-.12.07-.11.12,0,.06-.01.12-.06.19.06.12.13.17.23.15.1-.02.18,0,.25.04.12-.06.24-.04.36.06.12.1.26.12.42.07.07.24.02.35-.17.34-.19-.01-.34,0-.46.01-.1-.05-.15-.04-.12.04.02.08-.02.13-.14.15.02.08.09.11.18.09.1-.02.18.01.24.1.02.12-.03.21-.16.29-.13.07-.14.16-.04.25,0,.26-.12.39-.34.37-.22-.02-.37.06-.44.24-.19-.03-.33.06-.44.27.06.09.14.15.23.18.09.03.11.1.05.21-.19-.03-.33.01-.42.13-.1.12-.2.2-.33.26l-.06.05.36.23s-.09.05-.15.06c-.06,0-.1-.03-.12-.11-.12.06-.26.05-.42-.01-.16-.06-.28-.07-.37,0,.05.16.12.24.22.23.09,0,.19.04.29.13,0,.04-.07.07-.18.08-.12.02-.15.11-.1.27-.1-.05-.25-.11-.43-.16-.18-.05-.32.01-.43.19-.02.11-.08.17-.17.17-.1,0-.2-.01-.3-.05-.11-.04-.21-.05-.3-.05-.1,0-.17.06-.23.16l.19.2c-.33-.05-.66-.06-.99-.02-.33.04-.68.07-1.07.08-.4-.1-.79-.15-1.17-.14-.38.01-.76-.09-1.15-.3-.14-.1-.42-.29-.85-.57-.43-.28-.9-.58-1.41-.91-.51-.33-1.03-.67-1.54-1.02-.51-.35-.95-.67-1.32-.96-.36-.36-.73-.73-1.1-1.09-.38-.36-.74-.75-1.09-1.15-1.05-1.23-1.95-2.63-2.7-4.2-.75-1.56-1.16-3.15-1.24-4.76-.36-1.27-.42-2.74-.19-4.41.23-1.67.62-3.3,1.14-4.9.53-1.6,1.13-3.06,1.8-4.37s1.26-2.27,1.78-2.87c1.54-1.76,3.43-3.32,5.66-4.68,2.23-1.36,4.49-2.4,6.77-3.13.2-.04.47-.04.82.02s.72.14,1.1.24c.38.1.74.22,1.08.35.34.13.61.25.82.36.05.16.12.24.22.23.09,0,.19.04.29.13.06.09.1.17.1.24,0,.08.04.16.1.24l.17.03c-.1.17-.18.26-.21.25.04.2.21.42.49.68.28.25.46.47.55.63-.11.21-.11.44,0,.68.16-.05.25-.02.27.07.02.1.06.19.13.28-.06.14-.13.29-.22.45-.08.16-.06.3.07.44l.16.08c-.13.59-.46.93-.97,1.04-.51.11-1,.33-1.48.67-.44.38-.9.75-1.38,1.11-.48.36-.95.73-1.43,1.1-.39.32-.92.79-1.57,1.42-.65.63-1.32,1.31-2.01,2.03-.69.72-1.34,1.43-1.94,2.13-.61.7-1.05,1.29-1.32,1.78-.64,1.11-1.11,2.32-1.42,3.64-.31,1.31-.34,2.6-.09,3.85-.12.28-.11.52.05.72.16.2.2.42.12.67.22.3.3.58.26.84.23.68.43,1.21.6,1.58.17.37.35.67.56.92.21.24.48.47.83.68.34.21.79.47,1.35.79.38.21,1.04.44,1.97.66.93.23,1.86.38,2.8.46.53.01.94.01,1.22,0,.29,0,.55-.02.8-.04.25-.02.52-.02.8-.01.28,0,.68.07,1.19.2.02.08-.01.13-.11.15-.1.02-.15.07-.17.14-.14.13-.26.26-.38.39-.12.13-.17.29-.16.49l.14.19s-.11.1-.2.19c.23.19.5.32.79.39.29.07.58.16.86.28l.1.07Z"/>
          <path d="M443.95,160.04c-.17.09-.25.21-.26.36,0,.15-.06.33-.17.54-.26-.04-.45.08-.57.36-.02.11-.01.19.02.23-.2.04-.41.08-.64.09-.23.02-.4.13-.51.34-1.66.15-3.28.31-4.89.48-1.6.17-3.23.3-4.87.37-1.72.06-3.44.02-5.16-.11-1.72-.13-3.42-.18-5.1-.15-.68,0-1.35-.01-2.01-.05-.66-.03-1.33-.14-2.02-.33.12-.02.22-.02.31,0s.18,0,.27-.07c-.16-.41-.49-.61-.98-.62.12-.06.19-.14.21-.25s.01-.21,0-.29c-.03-.08-.02-.13.02-.14.04-.01.07-.06.08-.13l-.03-.52c.13-.58.22-1.2.27-1.83.05-.64.17-1.2.36-1.7.01-.07.06-.16.16-.26.09-.1.11-.19.05-.28l-.11-.02c.2-.04.35-.15.45-.32-.05-.16-.09-.33-.12-.5-.03-.18,0-.33.1-.47.69-.3,1.41-.5,2.14-.59.73-.09,1.46-.21,2.16-.36.12-.02.22-.02.31,0s.18,0,.27-.07c0-1.33.07-2.65.22-3.97.16-1.32.34-2.64.53-3.95.2-1.31.39-2.64.59-3.97.2-1.33.33-2.68.4-4.03l-.1-.07c-.12.06-.24.08-.36.08-.11,0-.21.01-.29.04-.11,1.12-.27,2.26-.48,3.42-.21,1.16-.39,2.32-.54,3.47.02.08.02.27,0,.57-.03.3-.05.62-.07.96-.02.34-.03.66-.04.96-.01.3,0,.49.02.57-.19-.22-.29-.58-.31-1.07-.01-.49.01-1.01.08-1.55.07-.54.15-1.06.25-1.55.1-.5.15-.88.16-1.14l.04-.56.11-1.01c.18-.62.27-1.14.29-1.57.01-.43.12-.92.32-1.45-.89.12-1.81.16-2.75.12-.94-.04-1.87-.02-2.8.05l-.66-.16c.01-.07-.02-.12-.09-.13-.18-.07-.4-.08-.67-.05-.27.03-.44-.07-.52-.31-.06-.09-.14-.17-.24-.27-.1-.09-.18-.18-.24-.27.33-.4.45-.84.36-1.31-.09-.47-.07-.9.07-1.3-.08-.43-.03-.87.16-1.31.19-.44.39-.86.6-1.24,0-.19.05-.33.18-.43.13-.09.24-.22.35-.4.16-.5.48-.78.96-.81.48-.04.92-.11,1.32-.24,1.53-.28,3.07-.52,4.64-.72,1.57-.2,3.11-.42,4.63-.66.97-.14,1.94-.24,2.89-.29.96-.05,1.93-.07,2.91-.06.2.15.43.22.67.22.25,0,.5,0,.77.01.26,0,.5.05.72.12.22.07.4.24.55.49.19,0,.34.05.46.16.11.11.24.22.37.32l1.2-.03c.04.2.2.39.47.59.03.31.02.59-.03.85s.07.49.34.68c.28.12.59.24.91.35.32.11.53.33.63.64.03.27-.03.5-.2.68-.16.18-.34.34-.53.48s-.38.29-.56.45c-.18.16-.29.37-.33.63-1.02.44-2.06.8-3.11,1.08-1.05.28-2.15.44-3.29.48l-.07.1c-.06,1.96-.16,3.87-.31,5.72-.15,1.85-.29,3.72-.4,5.6-.14.13-.17.25-.11.35.06.1.06.23,0,.37-.13.78-.2,1.55-.21,2.33-.01.78-.03,1.54-.04,2.3.64.03,1.31.05,2.01.07.7.02,1.37.04,2.01.07.1.06.25.06.42.01.18-.05.31.01.4.18l1.07.06c-.27.03-.54.02-.82-.02s-.55-.05-.82-.02c-.57.02-1.13,0-1.67-.05-.54-.05-1.09,0-1.64.13.25.12.5.16.78.13.27-.03.51-.01.73.06.9.07,1.84.14,2.81.2.98.07,1.94.18,2.9.33-.04.03-.05.05,0,.06.02.08.08.12.18.11.09,0,.18.02.24.07.02.12-.01.25-.09.38-.08.14-.03.24.15.31l.33.05c-.19.23-.18.39.04.46.23-.04.4.02.49.16.09.15.25.2.49.16.02.12.05.24.08.36.04.12.07.24.08.36-.09.06-.18.08-.3.07s-.18.05-.2.19,0,.26.06.35v-.06s.18.03.18.03v.06s-.11.02-.19.08c-.03.19,0,.33.1.44.1.11.19.25.27.41.34-.02.51.1.51.37-.02.11-.07.24-.15.4-.08.16-.06.32.06.49-.01.07-.06.14-.15.2-.09.06-.06.14.07.24Z"/>
          <path d="M461.56,159.62c.09.85.06,1.88-.08,3.09-.14,1.21-.54,2.52-1.18,3.93-.65,1.41-1.6,2.9-2.87,4.48-1.26,1.58-2.98,3.19-5.15,4.85-.28.07-.53.19-.77.36-.24.17-.46.34-.68.51-.22.17-.44.33-.67.46-.23.13-.49.18-.79.13l-.21-.43c-.05.07-.09.09-.12.06-.03-.03-.07-.02-.12,0,.11-.21.06-.34-.16-.4-.22-.06-.29-.19-.22-.41-.03-.31.05-.6.23-.87.18-.27.25-.57.23-.87-.06-.09-.13-.11-.22-.06-.08.04-.16.08-.24.1-.09.1-.17.1-.23.02l-.06-.35c-.28.1-.46.16-.54.17-.08,0-.13,0-.17,0s-.1.01-.18.06c-.08.04-.25.12-.49.23.13-.36.24-.61.32-.74.08-.14.16-.26.23-.36.07-.1.16-.22.26-.36.1-.14.21-.38.35-.74-.07-.05-.12-.1-.15-.14s-.09-.05-.17-.03c-.3.22-.49.34-.57.36-.08.02-.14.03-.18.03s-.1.01-.18.06c-.08.04-.3.19-.64.44.25-.34.41-.57.48-.69.08-.12.14-.21.19-.28.05-.07.12-.15.21-.25.09-.1.28-.3.55-.59l-.52.37c-.34.25-.57.42-.68.51-.11.1-.21.17-.29.24-.09.06-.19.13-.32.2-.13.07-.38.21-.75.42.29-.41.53-.73.7-.97.17-.24.35-.46.54-.68.19-.22.39-.44.59-.67.21-.23.49-.53.86-.88.31-.52.7-1.02,1.16-1.52.46-.49.89-1.01,1.28-1.55.81-1.69,1.05-3.32.72-4.89-.33-1.57-.85-2.99-1.55-4.27-.7-1.27-1.43-2.34-2.18-3.2-.75-.86-1.14-1.41-1.18-1.64-.01-.15-.03-.27-.06-.35-.03-.08-.07-.16-.13-.25-.34-1.19-.57-2.39-.69-3.58-.13-1.2-.09-2.42.12-3.68s.6-2.54,1.2-3.84c.59-1.31,1.46-2.64,2.59-4.01.75-.9,1.6-1.71,2.53-2.43.93-.72,1.85-1.4,2.75-2.05.75-.41,1.5-.73,2.26-.97.76-.24,1.52-.48,2.28-.74.07-.22.2-.36.38-.42.18-.06.34-.18.48-.35l.65.22c.23.19.48.35.74.49.26.14.57.2.91.18.02.08.08.11.16.08.08-.02.15-.01.22.04v.06c.09.09.19.12.29.08.1-.04.12.03.05.21.23.19.49.2.76.04.27-.16.48-.1.62.19.07.01.16.05.27.1.1.06.11.15.01.29.12-.06.26-.02.41.1.15.12.28.09.38-.08.19.26.24.49.17.71-.07.22-.19.42-.36.62-.17.2-.34.4-.52.6-.18.2-.31.4-.39.62-.18.39-.43.87-.75,1.44-.32.57-1.06,1.28-2.22,2.11-.13.09-.29.15-.48.18-.19.03-.29.13-.28.32-.06.14-.18.27-.35.4-.17.12-.33.27-.47.44-.07-.01-.25.15-.53.48-.28.33-.59.81-.91,1.41-.33.61-.64,1.33-.92,2.15-.29.83-.45,1.73-.5,2.71.03.95.27,1.82.71,2.59.44.77.95,1.63,1.51,2.58.57.95,1.11,2.05,1.62,3.31.51,1.26.88,2.86,1.09,4.79Z"/>
          <path d="M496.62,137.48c-.06.1-.15.19-.27.27-.13.07-.25.15-.38.22-.13.07-.22.16-.27.27-.06.1-.02.26.09.47.1.06.15.14.13.25l-.05.33c-.02.11-.02.21,0,.29.02.08.13.12.32.11-.05.07-.1.13-.14.18-.05.05-.06.11-.03.19.15.25.09.41-.17.49-.26.07-.46.19-.6.36-.01.07,0,.16.01.26.02.1,0,.18-.04.25-.38.24-.79.41-1.22.51-.43.1-.87.21-1.31.33l.16.08c-.29.14-.61.25-.96.33-.35.08-.67.24-.94.5-.24.07-.49.14-.74.19-.26.05-.53.06-.83,0-.24.07-.5.11-.78.1-.28,0-.55.04-.79.15-.09.06-.06.1.09.13h.4s0,.06,0,.06c.15.02.39.04.73.03.34,0,.7,0,1.08-.02.38-.01.75-.02,1.11-.02.36,0,.61.02.76.04-.23.04-.56.06-.98.07-.42,0-.86.01-1.34,0-.47,0-.91.01-1.32.04-.4.03-.71.1-.92.22l3.94-.09c-.27.03-.64.06-1.12.07-.48.02-.97.04-1.49.07-.52.03-1.01.05-1.49.07-.48.02-.85.02-1.11.02-.01.99,0,1.98.05,3,.04,1.01.02,2.02-.07,3.03-.01.53-.08,1.06-.2,1.59-.13.53-.14,1.07-.04,1.62l-1.01,6.49c.02,1.03,0,2.1-.07,3.23-.07,1.13-.16,2.23-.26,3.31.1.09.09.26-.03.51,0,.04-.03.05-.06.05l-.03.17.03-.17.06-.05-.1-.07c-.22.15-.33.38-.34.68-.01.3-.13.53-.34.68-.07.41-.24.66-.52.77l-.47.09c.02-.15.02-.22-.02-.23l-.11-.02c-.17.12-.27.31-.29.55-.02.24-.18.36-.48.35l-.35.4.03-.17c-.15.01-.29-.08-.41-.29-.12.02-.2.1-.24.25-.04.14-.1.29-.16.43-.06.14-.12.25-.17.31-.05.07-.16.05-.33-.05-.03-.08-.05-.14-.08-.18-.03-.04-.08-.11-.14-.19-.07-.01-.12,0-.15.06-.03.05-.08.11-.17.17l-.14-.19-.12.04s.05.06.03.18h-.29s-.03.18-.03.18c-.06-.09-.14-.13-.24-.12-.1,0-.2-.02-.3-.08.03.31-.06.44-.27.41s-.31.08-.31.35c-.09.1-.17.1-.23.02-.08.02-.16.14-.23.33-.07.2-.15.42-.22.67-.08.25-.15.5-.21.73-.06.24-.09.39-.1.47-.14-.1-.23-.43-.29-.99-.06-.56-.07-.95-.04-1.17,0-.19-.09-.26-.25-.21-.16.05-.21-.02-.14-.19-.04-.2-.16-.27-.36-.23-.2.04-.27-.06-.23-.32-.06-.09-.13-.12-.21-.09-.08.02-.16.03-.23.02-.09.29-.22.36-.41.22-.19-.14-.33-.11-.44.1-.1-.55-.21-1.12-.31-1.73-.11-.61-.19-1.22-.24-1.83l2.09-13.43c0-.49-.05-.98-.16-1.45-.11-.47-.17-.96-.16-1.45.05-.07.1-.08.15-.03.05.05.1.04.15-.03.06-.14.05-.41-.04-.8-.12.06-.15.13-.09.21.06.09.02.14-.14.15l-.04.22c-.06-.12-.09-.27-.1-.44-.01-.17.12-.26.38-.25l-.27-1.81c.23-.04.31-.16.23-.36-.17-.33-.24-.61-.21-.83l.36-3.58c-.07-.05-.11-.08-.13-.11-.02-.02-.05,0-.1.07,0,.46-.04.96-.13,1.51s-.14,1.08-.14,1.57c.01.38-.02.75-.09,1.09-.08.35-.07.74,0,1.17l.11.02-.11,1.01c-.04-.42-.08-.88-.12-1.36-.04-.48-.02-.92.05-1.33l-.09-.13c.03-.68.09-1.29.16-1.85.07-.56.1-1.16.1-1.81-.66-.37-1.39-.65-2.2-.82-.81-.17-1.59-.37-2.35-.61-.21-.11-.62-.26-1.23-.46-.61-.19-1.26-.39-1.93-.57-.67-.19-1.31-.35-1.91-.48-.6-.14-1-.2-1.19-.2l-.04-.12c.12-.02.25-.02.4,0s.27-.05.38-.22c-.06-.12-.04-.21.05-.28.09-.06.15-.13.2-.19l.09-.9c.23-.27.45-.52.64-.78.19-.25.41-.51.64-.78.08-.02.16-.03.23-.02s.14-.03.19-.14c-.05-.16-.11-.28-.17-.37.05-.07.1-.17.17-.31.06-.14.18-.16.35-.06l.14-.15-.09-.13h-.06s-.06-.02-.06-.02c.2-.04.33-.1.4-.16.07-.06.17-.18.31-.35l-.05-.06c.15-.01.33-.02.52-.03.19,0,.26-.09.21-.25-.13-.13-.28-.21-.45-.22-.17,0-.35-.03-.53-.06.18-.39.54-.61,1.08-.68.54-.06,1.05-.13,1.51-.21,1.58.07,3.17.23,4.76.47,1.59.24,3.17.47,4.75.69,1.58.22,3.15.4,4.72.55,1.57.14,3.11.15,4.61.01,1-.06,1.95-.01,2.88.16.92.17,1.88.24,2.87.21-.09.06-.09.19,0,.4-.08.03-.13.04-.15.03s-.07.03-.16.09c-.02.15,0,.23.07.24l.44.07s.03.03,0,.06-.03.09.03.18c.08-.02.19-.03.34,0-.22.16-.24.29-.07.42.17.12.28.23.35.31l.39.06ZM487.58,144.03c-.3-.05-.47-.04-.52.03.07.05.14.06.22.04.08-.02.16-.05.24-.07h.06ZM482.96,169.1c.08-.02.12-.06.13-.09s-.03-.06-.1-.07l-.03.17ZM492.68,143.84h-.34s0-.05,0-.05h.34s0,.05,0,.05Z"/>
          <path d="M509.45,167.46c.09.85.06,1.88-.08,3.09-.14,1.21-.54,2.52-1.18,3.93-.65,1.41-1.6,2.9-2.87,4.48-1.26,1.58-2.98,3.19-5.15,4.85-.28.07-.53.19-.77.36-.24.17-.46.34-.68.51-.22.17-.44.33-.67.46-.23.13-.49.18-.79.13l-.21-.43c-.05.07-.09.09-.12.06-.03-.03-.07-.02-.12,0,.11-.21.06-.34-.16-.4-.22-.06-.29-.19-.22-.41-.03-.31.05-.6.23-.87.18-.27.25-.57.23-.87-.06-.09-.13-.11-.22-.06-.08.04-.16.08-.24.1-.09.1-.17.1-.23.02l-.06-.35c-.28.1-.46.16-.54.17-.08,0-.13,0-.17,0s-.1.01-.18.06c-.08.04-.25.12-.49.23.13-.36.24-.61.32-.74.08-.14.16-.26.23-.36.07-.1.16-.22.26-.36.1-.14.21-.38.35-.74-.07-.05-.12-.1-.15-.14s-.09-.05-.17-.03c-.3.22-.49.34-.57.36-.08.02-.14.03-.18.03s-.1.01-.18.06c-.08.04-.3.19-.64.44.24-.34.41-.57.48-.69.08-.12.14-.21.19-.28.05-.07.12-.15.21-.25.09-.1.28-.3.55-.59l-.52.37c-.34.25-.57.42-.68.51-.11.1-.21.17-.29.24-.09.06-.19.13-.32.2-.13.07-.38.21-.75.42.29-.41.53-.73.7-.97.17-.24.35-.46.54-.68.19-.22.38-.44.59-.67.21-.23.49-.53.86-.88.31-.52.7-1.02,1.16-1.52.46-.49.89-1.01,1.28-1.55.81-1.69,1.05-3.32.72-4.89-.33-1.57-.85-2.99-1.55-4.27-.7-1.27-1.43-2.34-2.18-3.2-.75-.86-1.14-1.41-1.18-1.64-.01-.15-.03-.27-.06-.35-.03-.08-.07-.16-.13-.25-.34-1.19-.57-2.39-.69-3.58-.13-1.2-.09-2.42.12-3.68s.6-2.54,1.2-3.84c.59-1.31,1.46-2.64,2.59-4.01.75-.9,1.6-1.71,2.53-2.43.93-.72,1.85-1.4,2.75-2.05.75-.41,1.5-.73,2.26-.97.76-.24,1.52-.48,2.28-.74.07-.22.2-.36.38-.42.18-.06.34-.18.48-.35l.65.22c.23.19.48.35.74.49.26.14.57.2.91.18.02.08.08.11.16.08.08-.02.15-.01.22.04v.06c.09.09.19.12.29.08.1-.04.12.03.05.21.23.19.49.2.76.04.27-.16.48-.1.62.19.07.01.16.05.27.1.1.06.11.15,0,.29.12-.06.26-.02.41.1.15.12.28.09.38-.08.19.26.24.49.17.71-.07.22-.19.42-.36.62-.17.2-.34.4-.52.6-.18.2-.31.4-.39.62-.18.39-.43.87-.75,1.44-.32.57-1.06,1.28-2.22,2.11-.13.09-.29.15-.48.18-.19.03-.29.13-.28.32-.06.14-.18.27-.35.4-.17.12-.33.27-.47.44-.07-.01-.25.15-.53.48-.28.33-.59.81-.91,1.41-.33.61-.64,1.33-.92,2.15-.29.83-.45,1.73-.5,2.71.03.95.27,1.82.71,2.59.44.77.95,1.63,1.51,2.58.57.95,1.11,2.05,1.62,3.31.51,1.26.88,2.86,1.09,4.79Z"/>
        </g>
      </g>
      <g>
        <path class="cls-1" d="M306.16,380.83c14.21,7.45,34.78,1.24,31.56-22.37-2.57-18.8-28.96-11.05-37.66-25.49-7.31,9.92-9.37,24.62-4.99,35.71,2.18,5.52,6.27,9.62,11.09,12.15Z"/>
        <path d="M318.11,386.06c-4.39,0-8.91-1.06-13.01-3.21h0c-5.69-2.98-9.89-7.59-12.15-13.33-4.65-11.79-2.48-27.38,5.28-37.9.45-.61,1.18-.96,1.94-.92.76.04,1.45.45,1.85,1.1,3.44,5.71,10.19,7.51,17.34,9.43,8.91,2.38,19.01,5.09,20.63,16.93,1.44,10.59-1.58,19.09-8.49,23.95-3.75,2.63-8.48,3.96-13.38,3.96ZM307.22,378.81c7.2,3.77,15.9,3.59,21.65-.44,5.53-3.88,7.81-10.66,6.59-19.6-1.21-8.84-8.66-10.83-17.29-13.14-6.32-1.69-13.36-3.58-18-8.7-5.45,9.16-6.72,21.44-2.98,30.92,2.35,5.95,6.75,9.25,10.03,10.96h0Z"/>
      </g>
    </g>
  </g>
</svg>