<?xml version="1.0" encoding="UTF-8"?>
<svg id="Layer_2" data-name="Layer 2" xmlns="http://www.w3.org/2000/svg" viewBox="0 0 357.19 500">
  <defs>
    <style>
      .cls-1 {
        fill: #5885c4;
      }

      .cls-2 {
        fill: #abc2e1;
      }

      .cls-3 {
        fill: #fff;
      }

      .cls-4 {
        fill: #f8a712;
      }
    </style>
  </defs>
  <g id="svg">
    <g>
      <path class="cls-2" d="M297.38,371.73c-6.04-9.38-9.23-23.21-10.44-38.48-6.65-6.36-14.39-10.67-21.57-13.58-37.52-15.2-92.75-6.13-126.1,18.98-3.15,7.17-6.34,13.34-9.21,17.77-4.71,7.27-10.62,13.22-17.18,17.57-.32,1.08-.63,2.16-.88,3.25-6.26,27.06.15,51.9,18.05,69.93,5.24,5.27,11.25,9.74,17.86,13.37-9.28-23.1-4.5-48.57,14.26-75.78.85-1.24,2.45-1.71,3.84-1.15,1.39.57,2.2,2.02,1.94,3.5-3.95,22.98-4.09,33.11-.55,45.8,5.59-19.02,13.9-28.62,29.09-41.46,1.19-1.01,2.94-1.01,4.13,0,1.19,1.01,1.47,2.74.67,4.08-16.02,26.71-17.47,57.84-14.54,72.25.28,1.4.67,2.7,1.11,3.94,11.18.73,22.94-.19,34.91-2.87,9.05-2.03,17.66-5.2,25.67-9.29-12.09-31.59-8.24-51.27,5.23-84.57.58-1.43,2.09-2.24,3.6-1.93,1.51.31,2.58,1.65,2.55,3.19l-.12,5.81c-.42,19.99-.72,33.91,3.11,46.59,2.81-18.69,9.57-29.26,22.32-43.85,1.03-1.18,2.76-1.44,4.09-.62,1.33.82,1.87,2.49,1.28,3.93-6.21,15.13-8.26,30.85-8.08,44.37,12.8-15.4,20.71-34.01,21.48-53.31-2.42-1.99-4.61-4.47-6.53-7.46Z"/>
      <g>
        <path class="cls-3" d="M275.09,132.05c-.49-.04-.98-.05-1.47-.05-10.83,0-23.53,8.49-30.71,19.2.44,2.94.74,6.03.87,9.33.29,2.14.32,4.3.09,6.44-.12,9.85-1.38,18.25-3.81,25.32,6.05-1.01,12.4-1.18,18.86-.44,5.4.62,11.02,2.13,16.54,4.34,11.39-4.79,16.75-16.32,16.75-35.74-.29-17.5-6.36-27.61-17.1-28.41ZM269.94,182.84c-2.29,1.94-5.2,2.4-7.44,2.4-.22,0-.44,0-.65-.01-2.41-.09-4.47-.67-6.11-1.71-2.32-1.47-3.81-3.93-4.22-6.96-.46-3.46.64-7.12,2.88-9.56,3.72-4.05,10.23-5.64,16.6-4.06.64.16,1.09.75,1.06,1.41-.02.66-.51,1.22-1.16,1.33-3.33.57-6.16,3.34-6.91,6.62.98-.75,2.27-1.08,3.65-.91,1.88.23,3.55,1.35,4.36,2.92,1.38,2.69.49,6.35-2.07,8.52Z"/>
        <path class="cls-3" d="M237.4,160.93c-.42-10.9-2.59-19.44-6.62-26.11-6.16-10.21-13.75-15.92-22.53-16.96-1.44-.22-2.9-.33-4.37-.33-9.95,0-20.61,4.92-29.95,13.92-12.8,12.34-19.71,29.09-18.02,43.72.02.17.03.34.02.52-1.04,21.86,13.28,35.43,40.32,38.2,2.63.27,5.25.27,7.8.03,2-2.86,4.33-5.52,6.99-7.94,6.03-5.5,13.38-9.54,21.48-11.95,3.2-7.12,4.84-16.14,4.96-27.28,0-.11,0-.22.02-.33.2-1.71.17-3.44-.07-5.14-.02-.11-.03-.22-.03-.33ZM206.92,187.98c-3.54,3-8.04,3.7-11.5,3.7-.34,0-.68,0-1-.02-3.73-.15-6.91-1.03-9.45-2.64-3.58-2.26-5.89-6.08-6.51-10.74-.71-5.35.99-11.01,4.45-14.78,5.75-6.27,15.84-8.73,25.7-6.27.96.24,1.63,1.12,1.59,2.12s-.76,1.83-1.74,1.99c-5.26.91-9.73,5.33-10.83,10.54,1.53-1.25,3.58-1.8,5.77-1.53,2.9.36,5.47,2.08,6.71,4.49,2.13,4.15.76,9.79-3.2,13.14Z"/>
      </g>
      <g>
        <path class="cls-1" d="M73.58,415.57c-.06-.2-.1-.41-.16-.61-4.43,1.54-9.3,3.1-14.65,4.62-9.02,2.57-26.07,5.51-41.61,5.9,10.23,4.13,21.52,5.85,34.64,5.34,1.45-.05,2.77.88,3.18,2.28.42,1.4-.17,2.9-1.42,3.65-7.18,4.31-14.54,7.05-22.28,8.25,13.01,5.12,24.25,5.32,37.07,3.79,1.35-.16,2.66.55,3.26,1.78.59,1.23.34,2.7-.63,3.66-3.45,3.42-9.3,6.3-16.47,8.24,18.32,6.24,33.9.83,40.35-2.14,3.89-1.79,7.17-3.71,9.95-5.67-15.73-10.07-26.92-23.92-31.24-39.1Z"/>
        <path class="cls-1" d="M259.78,61.64c-1.07-.58-1.72-1.71-1.67-2.92.54-15.4,7.1-33.16,16.33-45.84-9.75,4.5-18.42,11.39-26.69,21.13-.95,1.11-2.52,1.44-3.83.8-1.31-.64-2.02-2.08-1.73-3.51,1.55-7.62,4.28-14.4,8.25-20.48-11.62,5.78-18.86,13.43-25.91,23.23-.8,1.11-2.21,1.59-3.52,1.19s-2.22-1.58-2.27-2.94c-.18-4.76,1.67-10.93,5.1-17.41-28.93,12.38-43.07,39.82-43.44,40.56-.36.74-.99,1.32-1.78,1.61-36.8,13.37-63.92,46.31-72.48,82.56,19.33-3.16,38.83-5.64,58.38-7.43,1.56-1.85,3.23-3.64,5.01-5.35,12.16-11.72,26.6-17.31,39.62-15.32,9.75,1.16,18.5,7.13,25.4,17.3,7.19,0,15.34.14,24.04.48,5.6-2.65,11.47-4.03,17.02-3.62,5.7.42,10,2.57,13.24,5.65,10.17,1,20.44,2.37,30.32,4.23-9.77-33.76-35.31-60.91-59.35-73.91ZM212.57,96.28c-.25.92-.9,1.67-1.76,2.07l-45.94,20.82c-.43.19-.87.28-1.32.28-1.05,0-2.06-.52-2.67-1.44l-4.64-7.07c-.95-1.45-.58-3.38.84-4.37l40.43-28.27c.69-.49,1.55-.67,2.39-.53.83.15,1.58.62,2.06,1.32l10.15,14.51c.54.78.71,1.76.46,2.68ZM296.5,122.31c-.62.64-1.46.97-2.3.97-.61,0-1.23-.17-1.77-.53l-33.59-22.29c-.8-.53-1.32-1.4-1.42-2.36s.25-1.91.94-2.58l11.4-11.2c1.26-1.24,3.28-1.22,4.52.04l27.5,28c1.21,1.24,1.22,3.22.02,4.46l-5.31,5.48Z"/>
        <path class="cls-1" d="M105.26,378.16c-5.1,2.25-10.43,3.58-15.82,3.83-.69.03-1.37.05-2.04.05-2.53,0-4.99-.23-7.37-.67-2.71,10.8-3.34,21.77-.3,32.45,4.6,16.18,18.04,30.83,36.86,40.2,7.36,3.66,15.08,6.65,23.02,9-5.11-3.28-9.83-7.07-14.09-11.36-18.98-19.11-26.13-45.14-20.26-73.5Z"/>
        <path class="cls-1" d="M308.37,221.33c1.25-4.38,2.14-8.9,2.69-13.5-5.9-.58-11.78-1.08-17.61-1.5,1.7,1.27,3.36,2.61,4.94,4.01,3.9,3.46,7.24,7.15,9.99,10.99Z"/>
        <path class="cls-1" d="M262.76,302.75c-1.77,0-3.55-.08-5.33-.24-1.31-.12-2.42-1.03-2.79-2.29-.37-1.27.08-2.63,1.12-3.43,4.91-3.77,8.05-9.24,8.83-15.41.69-5.45-.64-10.77-3.63-14.58-.95-1.21-2-2.24-3.13-3.11-6.53,10.31-17.17,17.91-28.58,22.23-.11.06-.21.13-.32.17-1.83.68-3.69,1.24-5.55,1.75-.31.09-.63.17-.94.25-.89.23-1.78.44-2.68.63-.91.19-1.81.37-2.71.52-.27.05-.54.09-.82.13-1.25.19-2.5.35-3.73.46-1.99.18-3.96.27-5.88.27-1.47,0-2.91-.05-4.33-.15-.59-.04-1.17-.13-1.75-.19-.81-.08-1.63-.15-2.42-.26-1.22-.18-2.41-.42-3.59-.68-.14-.03-.28-.05-.42-.08-.21-.05-.41-.12-.62-.17-6.27-1.53-11.82-4.19-16.3-7.92-8.86-7.38-13.97-19.45-13.68-31.97,0,0,0-.02,0-.02.02-.84.06-1.67.13-2.51,1.08-13.23,5.83-23.2,14.09-29.73-5.3-1.87-9.63-4.24-13.16-6.92-9.53,1.48-17.8,3.24-24.54,5.22.69,4.9,1.77,9.73,3.38,14.42,1.43,4.16,3.3,8.31,5.12,12.33,2.51,5.56,5.11,11.3,6.72,17.42,4.3,16.39-2.71,45.64-11.63,69.11,35.41-21.97,87.73-29,124.15-14.25,7.06,2.86,13.31,6.45,18.69,10.7-.28-8.92.03-18.12.77-27.06-7.48,3.51-15.86,5.37-24.47,5.37Z"/>
        <path class="cls-1" d="M350.66,333.61c-1.25-15.61-10.52-30.95-20.33-47.19l-.43-.72c-10.93-18.09-3.29-31.88,4.1-45.23,6.56-11.85,12.76-23.05,7.21-37.86-4.16-11.08-13.61-19.99-24.8-23.74,3.17,16.93,1.85,34.21-3.65,49.66,3.34,6.64,4.99,13.58,4.79,20.49-.49,16.38-6.61,30.24-17.7,40.08-1.86,1.65-3.84,3.17-5.93,4.53-2.74,27.52-1.49,58.56,8.83,74.62,4.97,7.73,11.49,11.03,19.91,10.09,4.17-.47,8.38-3,12.89-7.75,11.21-11.82,16.15-23.92,15.1-37Z"/>
        <path class="cls-1" d="M89.15,375.61c13.26-.62,26.88-9.3,35.55-22.67,11.85-18.28,30.29-69.89,24.37-92.43-1.47-5.6-3.85-10.85-6.36-16.41-1.88-4.15-3.82-8.44-5.34-12.89-6.89-20.09-4.92-41.86-2.69-61.45-12.26.93-24,7.83-30.63,18.21-8.51,13.33-4.76,25.57-.8,38.53,4.46,14.59,9.07,29.67-5.37,45.09-4.41,4.71-9.49,8.67-14.4,12.5-3.35,2.61-6.82,5.32-9.96,8.19-6.17,5.63-11.36,12.56-15.01,20.03-7.32,15-6.2,35.69,2.67,49.18,4.49,6.83,13,14.83,27.99,14.14Z"/>
      </g>
      <g>
        <path class="cls-4" d="M200.7,270.44h0c-.97-.14-1.99-.22-3.07-.3-2.75-.21-5.87-.44-8.75-1.93-7.47-3.88-8.96-9.17-8.89-12.93.14-7.89,7.14-16.12,16.31-22.85.78-4.18,2.09-8.19,3.91-11.96-1.53,0-3.06-.08-4.61-.24-3.5-.36-6.72-.89-9.72-1.54-.63.34-1.26.68-1.85,1.06-8.27,5.26-12.99,14.31-14.02,26.91-.93,11.37,3.39,22.51,11.27,29.07,9.88,8.23,23.45,8.38,30.66,7.73,3.02-.27,6.05-.8,9.06-1.58-.27-.22-.55-.43-.82-.64-6.36-5.02-12.37-9.77-19.47-10.81Z"/>
        <path class="cls-4" d="M258.18,198.2c-16.45-1.9-32.06,2.65-42.84,12.49-9.12,8.32-13.78,19.42-13.49,32.1l-3.19.15,3.19-.08c.13,4.91,1.25,8.21,3.43,10.08,4.12,3.54,12.62,2.45,21.62,1.3,5-.64,10.24-1.31,15.36-1.31,8.96,0,17.53,2.05,23.72,9.93,4.04,5.15,5.85,12.19,4.95,19.33-.66,5.22-2.64,10.05-5.73,14.12,11.44-.52,22.24-4.72,30.4-11.96,9.74-8.64,15.11-20.92,15.55-35.49.62-20.52-22.39-47.12-52.98-50.65Z"/>
      </g>
      <g>
        <path d="M320.01,384.91c1.1,0,2.22-.06,3.37-.19,5.73-.64,11.23-3.82,16.82-9.71,12.53-13.21,18.03-26.92,16.83-41.9-1.37-17.12-11.02-33.08-21.23-49.98l-.43-.72c-9.01-14.92-2.88-26,4.22-38.82,6.65-12.01,14.19-25.63,7.6-43.2-3-7.99-8.37-14.99-15.12-20.2,1.39-16.54,1.37-35.25-.62-40.55-.38-1-1.23-1.75-2.27-1.99-1.05-.24-2.11-.47-3.17-.71-8.63-34.12-32.48-63.64-61.42-79.94,1.23-17.89,10.77-38.6,22.7-48.9,1.12-.97,1.43-2.59.74-3.9-.69-1.32-2.19-1.98-3.63-1.61-11.84,3.05-22.13,8.58-31.66,17.09,2.55-5.24,5.97-9.94,10.32-14.2,1.06-1.04,1.26-2.67.5-3.94-.77-1.27-2.31-1.84-3.72-1.38-13.78,4.47-23.08,10.6-30.62,18.23,1.32-2.55,2.91-5.17,4.73-7.72.79-1.11.79-2.6,0-3.7-.79-1.11-2.19-1.6-3.5-1.22-33.45,9.75-50.88,37.93-55.07,45.7-39.13,14.66-67.68,50.36-76,89.31-1.28.22-2.57.42-3.85.65,0,0,0,0,0,0-.23.04-.52.12-.84.25-.04.02-.09.03-.13.05-.23.1-.45.23-.67.38-.06.04-.11.07-.16.11-.21.16-.4.33-.58.52-.06.06-.11.13-.17.19-.16.2-.32.41-.46.64-.02.03-.04.05-.05.07,0,0,0,.02-.01.03,0,0,0,0-.01.02-1.37,2.36-1.52,8.34-.97,16.01-15.89-10.63-36.92-16.23-48.3-15.45-.98.07-1.87.58-2.43,1.39-.55.81-.7,1.83-.4,2.77,4.23,13.27,15.64,22.2,25.1,28.51,4.33,2.89,8.9,5.86,13.6,8.63-11.19,4.21-20.77,13.22-25.03,24.29-.33.87-.27,1.83.16,2.65.44.82,1.21,1.41,2.11,1.61,4.53,1.03,10.22,2.08,16.24,2.08,5.31,0,10.88-.82,16.12-3.19,1.41-.64,2.83-1.5,4.2-2.52.71,6.25,2.54,12.25,4.27,17.91,4.29,14.02,7.99,26.13-3.93,38.86-4.07,4.35-8.73,7.98-13.67,11.83-3.45,2.69-7.02,5.47-10.34,8.51-6.76,6.17-12.45,13.76-16.45,21.94-8.25,16.9-6.96,40.24,3.07,55.49,4.61,7.01,10.79,11.98,18.04,14.69-2.41,9.54-3.33,19.28-1.79,28.99-4.51,1.59-9.52,3.2-15.05,4.77-9.9,2.82-35.75,7.23-53.46,5.17-1.48-.17-2.87.69-3.38,2.09-.5,1.4.02,2.96,1.27,3.76,10.99,7.13,22.82,11.19,36.52,12.43-6.14,1.94-12.49,2.71-19.2,2.36-1.48-.08-2.82.87-3.24,2.3s.2,2.95,1.5,3.68c12.66,7.16,23.66,10.5,36.88,10.77-3.19.93-6.72,1.66-10.39,2.12-1.38.17-2.48,1.21-2.74,2.58-.26,1.36.39,2.74,1.61,3.4,10.56,5.75,20.65,7.66,29.4,7.66,11.68,0,20.97-3.41,25.76-5.62,5.35-2.47,9.71-5.16,13.27-7.93.96.52,1.93,1.04,2.92,1.53,12.88,6.41,26.82,10.92,41.14,13.43,11.98,16.29,32.85,26.83,52,26.83,5.6,0,11.06-.9,16.1-2.83,1.41-.54,2.25-2,2.01-3.49-.24-1.49-1.5-2.62-3.01-2.68-8.95-.41-22.96-2.75-30.56-12.72,1.29.04,2.58.08,3.88.08,9.38,0,19.07-1.08,28.87-3.27.3-.07.59-.15.88-.22.2.07.42.12.64.14,11.09,1.2,21.71,4.03,31.99,6.76,12.76,3.4,25.12,6.68,37.46,6.68,9.68,0,19.35-2.02,29.19-7.61,1.32-.75,1.93-2.31,1.47-3.76-.46-1.44-1.88-2.36-3.38-2.2-29.5,3.11-33.37-7.47-35.45-13.15-1.78-4.87-3.34-11.87-4.09-20.16,15.45-16.45,25.41-37.05,27.18-58.63,3.07,1.3,6.39,1.96,9.94,1.96ZM341.21,202.63c5.55,14.81-.65,26-7.21,37.86-7.39,13.34-15.03,27.14-4.1,45.23l.43.72c9.81,16.24,19.08,31.57,20.33,47.19,1.05,13.07-3.89,25.17-15.1,37-4.51,4.75-8.72,7.29-12.89,7.75-8.42.94-14.94-2.36-19.91-10.09-10.33-16.06-11.57-47.1-8.83-74.62,2.08-1.37,4.07-2.88,5.93-4.53,11.09-9.84,17.21-23.7,17.7-40.08.21-6.91-1.45-13.85-4.79-20.49,5.5-15.45,6.82-32.72,3.65-49.66,11.2,3.75,20.65,12.66,24.8,23.74ZM286.46,324.45c-5.38-4.25-11.63-7.84-18.69-10.7-36.42-14.75-88.74-7.73-124.15,14.25,8.92-23.47,15.94-52.72,11.63-69.11-1.61-6.12-4.21-11.87-6.72-17.42-1.82-4.02-3.7-8.17-5.12-12.33-1.61-4.69-2.68-9.52-3.38-14.42,6.73-1.98,15-3.74,24.54-5.22,3.53,2.68,7.85,5.05,13.16,6.92-8.27,6.52-13.01,16.5-14.09,29.73-.07.84-.11,1.68-.13,2.51,0,0,0,.02,0,.02-.03,1.48.01,2.95.13,4.42.1,1.24.25,2.46.45,3.67,1.55,9.48,6.18,18.11,13.1,23.88,3.92,3.27,8.66,5.71,13.99,7.29.76.23,1.53.44,2.32.63.21.05.41.12.62.17.14.03.28.05.42.08,1.18.26,2.37.49,3.59.68.79.12,1.61.18,2.42.26.59.06,1.16.15,1.75.19,1.42.1,2.86.15,4.33.15h0c1.92,0,3.89-.09,5.88-.27,1.24-.11,2.48-.27,3.73-.46.27-.04.54-.08.82-.13.9-.15,1.81-.33,2.71-.52.89-.19,1.78-.4,2.68-.63.31-.08.63-.16.94-.25,1.86-.51,3.72-1.07,5.55-1.75.12-.04.21-.12.32-.17,11.41-4.32,22.05-11.92,28.58-22.23,1.12.87,2.17,1.9,3.13,3.11,3,3.81,4.32,9.13,3.63,14.58-.78,6.17-3.91,11.64-8.83,15.41-1.05.8-1.49,2.16-1.12,3.43.37,1.27,1.47,2.18,2.79,2.29,1.78.16,3.56.24,5.33.24,8.61,0,16.99-1.86,24.47-5.37-.74,8.94-1.05,18.14-.77,27.06ZM265.98,262.86c-6.19-7.88-14.76-9.93-23.72-9.93-5.11,0-10.36.67-15.36,1.31-9,1.15-17.5,2.23-21.62-1.3-2.18-1.87-3.3-5.17-3.43-10.08l-3.19.08,3.19-.15c-.3-12.68,4.37-23.78,13.49-32.1,10.78-9.83,26.39-14.39,42.84-12.49,30.59,3.53,53.59,30.13,52.98,50.65-.44,14.58-5.82,26.85-15.55,35.49-8.16,7.25-18.96,11.44-30.4,11.96,3.09-4.07,5.07-8.9,5.73-14.12.9-7.14-.9-14.18-4.95-19.33ZM211.93,283.47c-7.21.65-20.78.5-30.66-7.73-7.88-6.56-12.2-17.7-11.27-29.07,1.03-12.59,5.75-21.65,14.02-26.91.59-.38,1.22-.72,1.85-1.06,3,.65,6.22,1.18,9.72,1.54,1.54.16,3.08.23,4.61.24-1.81,3.77-3.13,7.77-3.91,11.96-9.16,6.72-16.17,14.96-16.31,22.85-.06,3.76,1.43,9.05,8.89,12.93,2.88,1.49,6,1.73,8.75,1.93,1.08.08,2.1.16,3.07.3h0c7.1,1.04,13.11,5.78,19.47,10.81.27.21.54.43.82.64-3.01.78-6.04,1.31-9.06,1.58ZM298.38,210.34c-1.58-1.4-3.23-2.74-4.94-4.01,5.83.42,11.71.92,17.61,1.5-.55,4.6-1.44,9.11-2.69,13.5-2.75-3.84-6.09-7.53-9.99-10.99ZM275.45,196.19c-5.52-2.21-11.13-3.72-16.54-4.34-6.46-.75-12.8-.57-18.86.44,2.43-7.08,3.69-15.47,3.81-25.32.23-2.14.2-4.3-.09-6.44-.13-3.3-.43-6.39-.87-9.33,7.18-10.71,19.88-19.2,30.71-19.2.5,0,.99.02,1.47.05,10.74.8,16.81,10.9,17.1,28.41,0,19.42-5.36,30.94-16.75,35.74ZM237.4,160.93c0,.11.01.22.03.33.24,1.71.27,3.44.07,5.14-.01.11-.02.22-.02.33-.12,11.14-1.76,20.16-4.96,27.28-8.1,2.41-15.45,6.45-21.48,11.95-2.65,2.42-4.99,5.08-6.99,7.94-2.56.23-5.17.24-7.8-.03-27.04-2.77-41.36-16.34-40.32-38.2,0-.17,0-.35-.02-.52-1.69-14.62,5.22-31.37,18.02-43.72,9.33-9,19.99-13.92,29.95-13.92,1.48,0,2.94.11,4.37.33,8.78,1.05,16.37,6.76,22.53,16.96,4.03,6.68,6.2,15.22,6.62,26.11ZM178.59,57.07c.79-.29,1.42-.87,1.78-1.61.38-.75,14.51-28.18,43.44-40.56-3.43,6.47-5.28,12.65-5.1,17.41.05,1.36.96,2.54,2.27,2.94s2.72-.08,3.52-1.19c7.05-9.8,14.29-17.45,25.91-23.23-3.97,6.09-6.69,12.87-8.25,20.48-.29,1.43.42,2.87,1.73,3.51,1.31.64,2.89.31,3.83-.8,8.28-9.74,16.95-16.63,26.69-21.13-9.23,12.67-15.79,30.44-16.33,45.84-.04,1.21.61,2.35,1.67,2.92,24.05,13,49.59,40.15,59.35,73.91-9.88-1.86-20.16-3.23-30.32-4.23-3.24-3.08-7.54-5.23-13.24-5.65-5.54-.41-11.41.97-17.02,3.62-8.7-.34-16.85-.47-24.04-.48-6.9-10.16-15.65-16.13-25.4-17.3-13.01-1.99-27.46,3.6-39.62,15.32-1.77,1.71-3.44,3.5-5.01,5.35-19.55,1.79-39.05,4.27-58.38,7.43,8.56-36.25,35.68-69.19,72.48-82.56ZM61.16,361.48c-8.87-13.49-9.99-34.17-2.67-49.18,3.65-7.47,8.84-14.39,15.01-20.03,3.14-2.87,6.61-5.57,9.96-8.19,4.91-3.83,9.99-7.79,14.4-12.5,14.44-15.42,9.83-30.51,5.37-45.09-3.96-12.96-7.7-25.2.8-38.53,6.62-10.38,18.37-17.28,30.63-18.21-2.23,19.59-4.2,41.36,2.69,61.45,1.52,4.44,3.47,8.74,5.34,12.89,2.52,5.56,4.89,10.81,6.36,16.41,5.92,22.55-12.52,74.15-24.37,92.43-8.67,13.37-22.29,22.06-35.55,22.67-14.99.69-23.5-7.3-27.99-14.14ZM94.87,460.34c-6.45,2.98-22.03,8.39-40.35,2.14,7.17-1.94,13.02-4.82,16.47-8.24.97-.96,1.22-2.43.63-3.66-.59-1.23-1.91-1.95-3.26-1.78-12.83,1.53-24.06,1.33-37.07-3.79,7.74-1.2,15.1-3.94,22.28-8.25,1.25-.75,1.83-2.25,1.42-3.65-.42-1.4-1.73-2.34-3.18-2.28-13.12.5-24.41-1.21-34.64-5.34,15.54-.39,32.59-3.33,41.61-5.9,5.35-1.52,10.22-3.08,14.65-4.62.06.2.1.41.16.61,4.32,15.17,15.5,29.03,31.24,39.1-2.78,1.96-6.06,3.87-9.95,5.67ZM116.59,454.02c-18.82-9.36-32.26-24.02-36.86-40.2-3.04-10.68-2.41-21.65.3-32.45,2.37.44,4.83.67,7.37.67.68,0,1.36-.02,2.04-.05,5.38-.25,10.72-1.59,15.82-3.83-5.87,28.36,1.28,54.39,20.26,73.5,4.26,4.29,8.98,8.07,14.09,11.36-7.94-2.35-15.66-5.34-23.02-9ZM282.43,432.5c-.18-13.52,1.88-29.25,8.08-44.37.59-1.45.05-3.11-1.28-3.93-1.33-.82-3.06-.56-4.09.62-12.75,14.59-19.51,25.15-22.32,43.85-3.83-12.68-3.54-26.6-3.11-46.59l.12-5.81c.03-1.54-1.04-2.88-2.55-3.19-1.51-.31-3.03.5-3.6,1.93-13.48,33.29-17.32,52.98-5.23,84.57-8.01,4.09-16.62,7.26-25.67,9.29-11.96,2.68-23.73,3.6-34.91,2.87-.45-1.24-.83-2.54-1.11-3.94-2.93-14.41-1.48-45.53,14.54-72.25.8-1.34.52-3.07-.67-4.08-1.19-1.01-2.94-1.01-4.13,0-15.18,12.84-23.5,22.44-29.09,41.46-3.54-12.69-3.4-22.82.55-45.8.25-1.48-.55-2.93-1.94-3.5-1.39-.57-2.98-.09-3.84,1.15-18.76,27.21-23.54,52.68-14.26,75.78-6.61-3.63-12.62-8.1-17.86-13.37-17.91-18.03-24.32-42.86-18.05-69.93.25-1.09.56-2.17.88-3.25,6.56-4.35,12.47-10.3,17.18-17.57,2.87-4.43,6.06-10.6,9.21-17.77,33.35-25.11,88.58-34.18,126.1-18.98,7.18,2.91,14.92,7.22,21.57,13.58,1.21,15.28,4.41,29.1,10.44,38.48,1.92,2.99,4.11,5.47,6.53,7.46-.78,19.3-8.68,37.92-21.48,53.31Z"/>
        <path d="M203.41,170.34c-2.2-.27-4.24.28-5.77,1.53,1.1-5.21,5.57-9.63,10.83-10.54.98-.17,1.71-1,1.74-1.99s-.63-1.88-1.59-2.12c-9.86-2.46-19.95,0-25.7,6.27-3.46,3.77-5.17,9.44-4.45,14.78.62,4.67,2.93,8.48,6.51,10.74,2.54,1.61,5.72,2.49,9.45,2.64.32.01.65.02,1,.02,3.46,0,7.95-.71,11.5-3.7,3.96-3.34,5.33-8.99,3.2-13.14-1.24-2.42-3.81-4.14-6.71-4.49Z"/>
        <path d="M210.81,98.35c.87-.39,1.51-1.15,1.76-2.07.25-.92.08-1.9-.46-2.68l-10.15-14.51c-.49-.69-1.23-1.17-2.06-1.32-.84-.15-1.69.04-2.39.53l-40.43,28.27c-1.42.99-1.79,2.93-.84,4.37l4.64,7.07c.61.92,1.62,1.44,2.67,1.44.44,0,.89-.09,1.32-.28l45.94-20.82Z"/>
        <path d="M258.85,100.47l33.59,22.29c.54.36,1.16.53,1.77.53.84,0,1.68-.33,2.3-.97l5.31-5.48c1.21-1.25,1.2-3.23-.02-4.46l-27.5-28c-1.24-1.26-3.26-1.28-4.52-.04l-11.4,11.2c-.69.67-1.03,1.62-.94,2.58s.61,1.83,1.42,2.36Z"/>
        <path d="M267.65,171.4c-1.38-.17-2.67.16-3.65.91.75-3.28,3.59-6.05,6.91-6.62.65-.11,1.14-.67,1.16-1.33.02-.66-.42-1.25-1.06-1.41-6.37-1.59-12.89,0-16.6,4.06-2.24,2.44-3.34,6.1-2.88,9.56.4,3.02,1.9,5.49,4.22,6.96,1.64,1.04,3.7,1.61,6.11,1.71.21,0,.42.01.65.01,2.23,0,5.14-.46,7.44-2.4,2.56-2.17,3.46-5.83,2.07-8.52-.81-1.57-2.48-2.69-4.36-2.92Z"/>
      </g>
    </g>
  </g>
</svg>