<?xml version="1.0" encoding="UTF-8"?>
<svg id="Layer_2" data-name="Layer 2" xmlns="http://www.w3.org/2000/svg" viewBox="0 0 294.34 177.73">
  <g id="svg">
    <g>
      <path d="M93.09,122.27c-1.26.42-2.8.63-4.62.63s-3.5.35-5.04,1.05c-.14.28-.04.46.31.53.35.07.38.31.1.74-.7.28-1.33.45-1.89.52-.56.07-1.19.25-1.89.53-.28.14-.39.31-.31.52.07.21.03.46-.1.74.28.42.59.56.95.42.35-.14.66-.14.95,0,.42-.28.87-.28,1.36,0,.49.28,1.01.28,1.58,0,.42.84.28,1.3-.42,1.37-.7.07-1.26.18-1.68.31-.42-.14-.56-.07-.42.21.14.28,0,.49-.42.63.14.28.38.35.74.21.35-.14.66-.07.94.21.14.42,0,.81-.42,1.16-.42.35-.42.67,0,.95.14.98-.21,1.51-1.05,1.58-.84.07-1.33.45-1.47,1.16-.7,0-1.19.42-1.47,1.26.28.28.6.46.95.53.35.07.45.31.31.73-.7,0-1.19.25-1.47.74-.28.49-.63.88-1.05,1.16l-.21.21,1.47.63c-.14.14-.31.25-.52.31-.21.07-.39-.03-.53-.31-.42.28-.95.35-1.57.21-.63-.14-1.09-.07-1.37.21.28.56.6.81.95.73.35-.07.74.04,1.16.32,0,.14-.21.28-.63.42-.42.14-.49.49-.21,1.05-.42-.14-.98-.24-1.68-.31-.7-.07-1.19.25-1.47.95,0,.42-.18.67-.52.73-.35.07-.74.07-1.16,0-.42-.07-.81-.07-1.16,0-.35.07-.6.32-.73.74l.84.63c-1.26,0-2.49.18-3.68.52-1.19.35-2.49.66-3.89.95-1.54-.14-3.01-.07-4.41.21-1.4.28-2.87.14-4.41-.42-.56-.28-1.71-.81-3.47-1.58-1.75-.77-3.68-1.61-5.78-2.52-2.1-.91-4.2-1.86-6.3-2.84-2.1-.98-3.92-1.89-5.46-2.73-1.54-1.12-3.12-2.24-4.73-3.36-1.61-1.12-3.19-2.31-4.73-3.57-4.62-3.92-8.79-8.54-12.5-13.87-3.71-5.32-6.2-10.92-7.46-16.81C1.29,96.15.16,90.75.03,84.45c-.14-6.3.28-12.57,1.26-18.8.98-6.23,2.31-11.97,3.99-17.23,1.68-5.25,3.29-9.14,4.83-11.66,4.62-7.42,10.64-14.32,18.07-20.69,7.42-6.37,15.13-11.59,23.11-15.65.7-.28,1.71-.42,3.05-.42s2.73.07,4.2.21c1.47.14,2.87.35,4.2.63,1.33.28,2.42.56,3.26.84.28.56.6.81.95.74.35-.07.74.04,1.16.31.28.28.45.56.52.84.07.28.24.56.53.84h.63c-.28.7-.49,1.05-.63,1.05.28.7,1.01,1.44,2.21,2.21,1.19.77,2,1.44,2.42,2-.28.84-.14,1.68.42,2.52.56-.28.91-.24,1.05.1.14.35.35.67.63.95-.14.56-.31,1.16-.52,1.78-.21.63-.04,1.16.52,1.58l.63.21c-.14,2.24-1.12,3.71-2.94,4.41-1.82.7-3.5,1.82-5.04,3.36-1.4,1.68-2.87,3.33-4.41,4.94-1.54,1.61-3.08,3.26-4.62,4.94-1.26,1.4-2.91,3.47-4.94,6.2-2.03,2.73-4.1,5.64-6.2,8.72-2.1,3.08-4.06,6.09-5.88,9.03-1.82,2.94-3.08,5.39-3.78,7.35-1.68,4.48-2.7,9.24-3.05,14.28-.35,5.04.32,9.81,2,14.28-.28,1.12-.07,2,.63,2.63.7.63.98,1.44.84,2.42.98.98,1.47,1.96,1.47,2.94,1.26,2.38,2.31,4.2,3.15,5.46.84,1.26,1.71,2.28,2.63,3.05.91.77,2.06,1.44,3.47,2,1.4.56,3.22,1.26,5.46,2.1,1.54.56,4.1.98,7.67,1.26,3.57.28,7.11.28,10.61,0,1.96-.28,3.47-.53,4.52-.74,1.05-.21,2.03-.42,2.94-.63.91-.21,1.89-.38,2.94-.52,1.05-.14,2.55-.14,4.52,0,.14.28.03.49-.32.63-.35.14-.52.35-.52.63-.42.56-.81,1.12-1.16,1.68-.35.56-.46,1.19-.32,1.89l.63.63c-.14.14-.35.42-.63.84.98.56,2.03.88,3.15.95,1.12.07,2.24.25,3.36.52l.42.21Z"/>
      <path d="M186.2,64.49c-1.12,10.65-3.57,21.64-7.35,32.98-3.78,11.34-8.02,22.06-12.71,32.14-4.69,10.08-9.53,19.12-14.49,27.1-4.97,7.98-9.14,13.93-12.5,17.86-1.12.7-2.31,1.33-3.57,1.89-1.26.56-2.59.98-3.99,1.26-.28-.28-.21-.56.21-.84.42-.28.28-.56-.42-.84,0-.28.07-.67.21-1.16.14-.49-.07-.88-.63-1.16.28-.28.42-.56.42-.84l-.84-.42c0-.28.14-.49.42-.63.28-.14.42-.35.42-.63-.56-.28-1.02-.14-1.37.42-.35.56-.81.77-1.36.63-.84.14-1.79.42-2.84.84-1.05.42-2,.35-2.84-.21.56-.28.56-.56,0-.84-.28-.28-.52-.42-.73-.42s-.46-.07-.74-.21c0-.14-.14-.35-.42-.63-.56.42-.94.45-1.16.1-.21-.35-.52-.67-.95-.95l.63-.63c-.28-.28-.56-.31-.84-.1-.28.21-.56.45-.84.74h-.63c.28,0,.49-.07.63-.21.28-.14.28-.35,0-.63-.7.28-1.23.35-1.57.21-.35-.14-.88,0-1.58.42,0-.14.21-.42.63-.84-.28-.56-.6-.67-.95-.31-.35.35-.74.52-1.16.52-.28-.42-.35-.77-.21-1.05.14-.28.07-.63-.21-1.05-.28.14-.52.31-.73.52s-.46.24-.74.11c-.14-.7-.49-1.02-1.05-.95-.56.07-.98-.25-1.26-.95.42-.42.31-.88-.32-1.37-.63-.49-.67-1.09-.1-1.78.84-4.07,2.48-7.81,4.94-11.24,2.45-3.43,4.8-6.96,7.04-10.61,1.96-4.76,3.99-9.45,6.09-14.08,2.1-4.62,4.34-9.17,6.72-13.65-.84-1.26-1.96-2.1-3.36-2.52-1.4-.42-2.24-1.4-2.52-2.94-1.54-.28-2.66-.95-3.36-2-.7-1.05-1.61-2-2.73-2.84-1.4-1.12-2.56-2.38-3.47-3.78-.91-1.4-2.35-3.5-4.31-6.3-1.4-2.66-2.59-5-3.57-7.04-.98-2.03-1.86-3.99-2.63-5.88-.77-1.89-1.54-3.82-2.31-5.78-.77-1.96-1.72-4.13-2.84-6.51-2.94-6.44-5.15-13.23-6.62-20.38-1.47-7.14-2.21-14.35-2.21-21.64.28-.42.38-.87.32-1.37-.07-.49-.11-1.01-.11-1.57.42,0,.74.14.95.42.21.28.39.56.53.84.42-.56.56-1.19.42-1.89-.14-.7-.14-1.4,0-2.1.42-.28.84-.31,1.26-.1.42.21.7.04.84-.52-.14-1.12.21-1.89,1.05-2.31.84-.42,1.33-1.19,1.47-2.31.42.14.74.07.95-.21.21-.28.45-.49.74-.63.28.28.56.39.84.31.28-.07.56-.03.84.11v-.42c.28-.14.56,0,.84.42.28-.28.35-.42.21-.42.42,0,.95.21,1.58.63.63.42,1.08.77,1.36,1.05l-.63-1.89,2.1,1.47-.42-2.94c1.68,1.54,3.05,3.43,4.1,5.67,1.05,2.24,2.21,4.41,3.47,6.51l-.42-3.78-.21-1.26c-.14-.7-.28-1.4-.42-2.1-.28-.56-.49-1.26-.63-2.1,2.94,4.2,5.64,9.14,8.09,14.81,2.45,5.67,4.94,11.38,7.46,17.12,2.52,5.74,5.25,11.31,8.2,16.7,2.94,5.39,6.44,9.98,10.5,13.76,1.54-4.34,2.76-9.1,3.68-14.28.91-5.18,1.71-10.36,2.42-15.54.7-5.18,1.33-10.08,1.89-14.71.56-4.62,1.19-8.47,1.89-11.55.28,0,.56.49.84,1.47.28.98.63,1.33,1.05,1.05-.14-.28,0,.1.42,1.16.42,1.05.63,1.72.63,2l.63-4.62c.28.7.98.88,2.1.52,1.12-.35,1.82-.66,2.1-.95.14-.28.35-.42.63-.42s.56.07.84.21c.56-.7,1.08-1.26,1.57-1.68.49-.42.87-.98,1.16-1.68.42.28.91.14,1.47-.42l1.68-1.05c.28.84.95,1.16,2,.95s1.78.25,2.21,1.37v-.63c.28.56.66.95,1.16,1.16.49.21.87.53,1.16.95,1.12,2.8,2.13,5.64,3.05,8.51.91,2.87,1.71,5.71,2.42,8.51-.7.7-.84,1.44-.42,2.21.42.77.56,1.65.42,2.63.14,3.64.35,7.28.63,10.92.28,3.64.21,7.35-.21,11.13Z"/>
      <path d="M205.86,39.28c-.28-.28-.39-.63-.32-1.05.07-.42-.04-.77-.31-1.05l-1.47-17.44c.14-.28.21-.21.21.21s.07.7.21.84l.63.21c0,.14-.18.42-.53.84-.35.42-.25.77.31,1.05-.28.14-.35,1.05-.21,2.73.14,1.68.32,3.5.53,5.46.21,1.96.42,3.75.63,5.36.21,1.61.32,2.56.32,2.84ZM293.88,54.41c.98,7.56.38,15.16-1.79,22.79-2.17,7.64-5.01,14.74-8.51,21.32-1.82,3.5-4.66,7.56-8.51,12.18-3.85,4.62-8.09,9.17-12.71,13.66-4.62,4.48-9.28,8.69-13.97,12.6-4.69,3.92-8.86,7-12.5,9.24-.42.14-1.47.46-3.15.95-1.68.49-3.47,1.01-5.36,1.58-1.89.56-3.61,1.08-5.15,1.57-1.54.49-2.52.81-2.94.95-1.12-.28-1.61-.6-1.47-.95.14-.35-.35-.52-1.47-.52,0-.28-.07-.42-.21-.42h-.42l.21-.21c-.28-.14-.74-.81-1.37-2-.63-1.19-2-1.64-4.1-1.36,0-.14-.14-.35-.42-.63l.21-1.26-1.47.21c.28-.42.7-.73,1.26-.95.56-.21.7-.52.42-.95l-.84.21c.28-.14.42-.42.42-.84,0,.14-.14.07-.42-.21.14,0,.28-.14.42-.42.14-.28.35-.42.63-.42-.14-.14-.21-.28-.21-.42h.21c-.28-.42-.56-.49-.84-.21s-.56.21-.84-.21l-.21.21.21-.21c.7-.56,1.57-1.29,2.62-2.21,1.05-.91,1.92-1.71,2.63-2.42l-1.47.84-1.05.63c1.26-1.54,2.66-2.87,4.2-3.99h-.21c-.98.28-1.93.74-2.84,1.36-.91.63-1.72,1.3-2.42,2,1.26-1.54,2.87-2.97,4.83-4.31,1.96-1.33,3.71-2.77,5.25-4.31-.14-.28-.56-.21-1.26.21-.7.42-1.19.56-1.47.42l2.1-1.05c-1.12-.28-2.17-.49-3.15-.63-.98-.14-1.75.07-2.31.63-.56-.56-.98-.56-1.26,0-.28.56-.7.56-1.26,0l-.84-.84.21-.21c0-.14-.28-.21-.84-.21-.14-.56-.45-1.05-.95-1.47-.49-.42-.45-.77.1-1.05,0-.7-.14-3.39-.42-8.09-.28-4.69-.56-10.43-.84-17.23-.28-6.79-.56-14.11-.84-21.95-.28-7.84-.56-15.16-.84-21.95-.28-6.79-.53-12.57-.74-17.33-.21-4.76-.31-7.49-.31-8.19-.14-1.96-.18-3.68-.11-5.15.07-1.47.24-3.39.53-5.78v6.93c.28-.28.45-.81.52-1.58.07-.77.07-1.57,0-2.42-.07-.84-.1-1.68-.1-2.52s.07-1.4.21-1.68c.14.14.21.14.21,0s.07-.21.21-.21c0-.28-.07-.49-.21-.63-.14-.14-.14-.35,0-.63l1.47-.21c.28.42.35.84.21,1.26-.14.42.07.77.63,1.05v.63h.21c.14-.98.1-1.96-.1-2.94-.21-.98.24-1.82,1.37-2.52,0-.28.07-.49.21-.63.14.56.49.77,1.05.63.56-.14.91.07,1.05.63.28-.14.84-.14,1.68,0,.84.14,1.4-.14,1.68-.84l1.47-.21c0-.14.31-.31.95-.52.63-.21,1.33-.39,2.1-.53.77-.14,1.5-.28,2.21-.42.7-.14,1.12-.28,1.26-.42.28-.28.59-.42.95-.42h1.16c.56-.28,1.05-.42,1.47-.42.28.14.52.18.73.1.21-.07.45-.03.74.11,4.48-.42,8.96-.56,13.44-.42,4.48.14,9.17.77,14.08,1.89,11.48,3.64,20.8,10.29,27.94,19.96,2.8,3.64,4.73,7.53,5.78,11.66,1.05,4.13,2.13,8.23,3.26,12.29ZM265.52,52.1c-1.12-3.22-2.73-6.58-4.83-10.08-2.1-3.5-5.04-5.88-8.82-7.14-2.8-.98-5.43-1.96-7.88-2.94-2.45-.98-5.08-1.82-7.88-2.52-.28.14-.63.14-1.05,0-.42-.14-.77-.07-1.05.21-.14-.42-.7-.84-1.68-1.26.28,1.12.52,2.24.74,3.36.21,1.12.45,2.24.73,3.36h-.21c.98,4.76,1.92,10.23,2.84,16.39.91,6.16,1.71,12.39,2.42,18.7.7,6.3,1.26,12.43,1.68,18.38.42,5.95.63,11.1.63,15.44,3.22-2.66,6.27-5.46,9.14-8.4,2.87-2.94,5.15-6.23,6.83-9.87.7,0,.98-.31.84-.94-.14-.63.07-1.08.63-1.37,3.36-4.06,5.46-9.03,6.3-14.92.84-5.88,1.05-11.34.63-16.39Z"/>
    </g>
  </g>
</svg>